G04 #@! TF.GenerationSoftware,KiCad,Pcbnew,(5.1.2-1)-1*
G04 #@! TF.CreationDate,2019-09-06T23:38:15-06:00*
G04 #@! TF.ProjectId,DC435,44433433-352e-46b6-9963-61645f706362,rev?*
G04 #@! TF.SameCoordinates,Original*
G04 #@! TF.FileFunction,Copper,L1,Top*
G04 #@! TF.FilePolarity,Positive*
%FSLAX46Y46*%
G04 Gerber Fmt 4.6, Leading zero omitted, Abs format (unit mm)*
G04 Created by KiCad (PCBNEW (5.1.2-1)-1) date 2019-09-06 23:38:15*
%MOMM*%
%LPD*%
G04 APERTURE LIST*
%ADD10C,0.010000*%
%ADD11C,1.778000*%
%ADD12C,0.800000*%
%ADD13C,0.250000*%
G04 APERTURE END LIST*
D10*
G36*
X150043831Y-83990266D02*
G01*
X150148898Y-84012952D01*
X150153778Y-84014350D01*
X150252956Y-84050448D01*
X150346204Y-84099017D01*
X150432344Y-84158932D01*
X150510198Y-84229065D01*
X150578588Y-84308290D01*
X150636334Y-84395479D01*
X150682259Y-84489506D01*
X150699616Y-84536312D01*
X150727895Y-84643121D01*
X150741928Y-84751036D01*
X150741711Y-84859086D01*
X150727237Y-84966298D01*
X150702828Y-85058794D01*
X150692690Y-85088553D01*
X150682830Y-85115301D01*
X150675057Y-85134178D01*
X150673747Y-85136912D01*
X150671986Y-85141951D01*
X150673744Y-85144392D01*
X150680237Y-85143721D01*
X150692679Y-85139424D01*
X150712285Y-85130985D01*
X150740269Y-85117891D01*
X150777848Y-85099627D01*
X150826235Y-85075680D01*
X150870361Y-85053673D01*
X150927936Y-85024816D01*
X150973689Y-85001614D01*
X151008841Y-84983357D01*
X151034615Y-84969333D01*
X151052231Y-84958831D01*
X151062910Y-84951138D01*
X151067875Y-84945543D01*
X151068346Y-84941335D01*
X151066943Y-84939140D01*
X151046129Y-84906539D01*
X151032710Y-84865356D01*
X151027126Y-84819746D01*
X151029818Y-84773865D01*
X151041224Y-84731869D01*
X151044274Y-84724966D01*
X151071227Y-84681614D01*
X151104077Y-84650079D01*
X151141023Y-84629870D01*
X151180264Y-84620499D01*
X151220000Y-84621476D01*
X151258428Y-84632314D01*
X151293749Y-84652522D01*
X151324160Y-84681612D01*
X151347862Y-84719096D01*
X151363053Y-84764483D01*
X151367963Y-84812843D01*
X151366706Y-84845581D01*
X151361750Y-84871222D01*
X151351480Y-84897033D01*
X151347385Y-84905372D01*
X151326736Y-84946309D01*
X151358504Y-84946309D01*
X151404547Y-84952991D01*
X151445524Y-84971755D01*
X151480176Y-85000676D01*
X151507242Y-85037830D01*
X151525463Y-85081293D01*
X151533579Y-85129138D01*
X151530331Y-85179443D01*
X151525222Y-85201025D01*
X151505416Y-85247222D01*
X151477145Y-85283379D01*
X151442495Y-85309372D01*
X151403552Y-85325081D01*
X151362403Y-85330383D01*
X151321132Y-85325156D01*
X151281828Y-85309277D01*
X151246575Y-85282626D01*
X151217460Y-85245079D01*
X151204833Y-85219773D01*
X151193582Y-85192846D01*
X150299384Y-85640988D01*
X150245700Y-85610390D01*
X150218950Y-85595535D01*
X150200688Y-85587071D01*
X150186969Y-85583901D01*
X150173843Y-85584932D01*
X150163168Y-85587493D01*
X150145289Y-85593132D01*
X150135266Y-85597978D01*
X150134473Y-85599136D01*
X150140627Y-85603347D01*
X150158163Y-85613897D01*
X150185786Y-85630056D01*
X150222204Y-85651095D01*
X150266120Y-85676283D01*
X150316242Y-85704890D01*
X150371275Y-85736187D01*
X150429925Y-85769443D01*
X150490897Y-85803929D01*
X150552897Y-85838915D01*
X150614631Y-85873670D01*
X150674805Y-85907466D01*
X150732124Y-85939571D01*
X150785294Y-85969256D01*
X150833021Y-85995792D01*
X150874010Y-86018448D01*
X150906968Y-86036493D01*
X150930600Y-86049200D01*
X150943612Y-86055836D01*
X150945708Y-86056652D01*
X150953017Y-86050661D01*
X150961085Y-86036201D01*
X150961281Y-86035733D01*
X150981733Y-86004548D01*
X151014921Y-85977449D01*
X151044474Y-85961829D01*
X151086769Y-85950112D01*
X151127985Y-85951301D01*
X151166499Y-85963795D01*
X151200687Y-85985995D01*
X151228925Y-86016303D01*
X151249591Y-86053119D01*
X151261060Y-86094844D01*
X151261710Y-86139878D01*
X151255653Y-86169852D01*
X151237242Y-86210488D01*
X151209111Y-86244240D01*
X151173892Y-86269662D01*
X151134216Y-86285310D01*
X151092716Y-86289737D01*
X151052197Y-86281565D01*
X151039451Y-86278018D01*
X151035732Y-86279727D01*
X151035744Y-86279751D01*
X151053980Y-86316156D01*
X151066570Y-86343204D01*
X151074557Y-86364423D01*
X151078981Y-86383338D01*
X151080884Y-86403476D01*
X151081307Y-86428363D01*
X151081306Y-86434023D01*
X151080234Y-86470309D01*
X151076500Y-86497599D01*
X151069181Y-86521308D01*
X151064589Y-86531994D01*
X151039837Y-86574172D01*
X151009649Y-86606164D01*
X150989209Y-86619728D01*
X150961717Y-86627996D01*
X150928695Y-86629467D01*
X150896936Y-86624345D01*
X150878177Y-86616390D01*
X150846775Y-86591623D01*
X150822124Y-86559194D01*
X150808034Y-86531904D01*
X150797556Y-86497957D01*
X150791966Y-86456507D01*
X150791371Y-86412957D01*
X150795880Y-86372705D01*
X150804281Y-86344009D01*
X150811468Y-86326306D01*
X150814840Y-86315367D01*
X150814772Y-86313930D01*
X150808062Y-86309966D01*
X150789526Y-86299347D01*
X150759962Y-86282522D01*
X150720170Y-86259943D01*
X150670950Y-86232061D01*
X150613101Y-86199325D01*
X150547421Y-86162188D01*
X150474711Y-86121098D01*
X150395770Y-86076507D01*
X150311396Y-86028866D01*
X150222390Y-85978624D01*
X150129551Y-85926234D01*
X150033677Y-85872145D01*
X149935569Y-85816807D01*
X149836025Y-85760673D01*
X149735845Y-85704191D01*
X149635828Y-85647814D01*
X149536774Y-85591991D01*
X149439482Y-85537173D01*
X149344751Y-85483810D01*
X149253380Y-85432354D01*
X149166169Y-85383255D01*
X149083917Y-85336964D01*
X149007423Y-85293930D01*
X148937487Y-85254606D01*
X148874909Y-85219441D01*
X148820486Y-85188886D01*
X148775019Y-85163392D01*
X148739307Y-85143409D01*
X148714149Y-85129388D01*
X148700345Y-85121780D01*
X148697842Y-85120480D01*
X148692444Y-85126398D01*
X148684682Y-85140889D01*
X148683572Y-85143343D01*
X148660859Y-85178462D01*
X148627841Y-85208349D01*
X148588617Y-85229542D01*
X148576705Y-85233556D01*
X148528500Y-85240631D01*
X148482729Y-85233824D01*
X148440946Y-85213742D01*
X148404704Y-85180990D01*
X148389413Y-85160462D01*
X148367506Y-85115444D01*
X148357493Y-85067800D01*
X148358622Y-85019864D01*
X148370146Y-84973971D01*
X148391313Y-84932453D01*
X148421374Y-84897645D01*
X148459579Y-84871880D01*
X148485317Y-84861959D01*
X148511088Y-84855999D01*
X148534314Y-84853172D01*
X148544441Y-84853431D01*
X148564237Y-84856336D01*
X148541921Y-84813053D01*
X148529282Y-84786007D01*
X148522609Y-84762804D01*
X148520246Y-84736231D01*
X148520175Y-84718339D01*
X148526189Y-84665406D01*
X148543555Y-84620499D01*
X148573171Y-84581573D01*
X148585359Y-84570067D01*
X148627032Y-84541529D01*
X148670303Y-84527208D01*
X148714100Y-84527054D01*
X148757348Y-84541018D01*
X148798973Y-84569051D01*
X148811226Y-84580438D01*
X148844319Y-84622747D01*
X148864122Y-84669760D01*
X148870425Y-84719891D01*
X148863017Y-84771552D01*
X148843013Y-84820746D01*
X148831193Y-84845201D01*
X148827884Y-84859662D01*
X148830488Y-84864668D01*
X148840628Y-84870763D01*
X148860556Y-84882311D01*
X148888177Y-84898130D01*
X148921394Y-84917036D01*
X148958112Y-84937849D01*
X148996236Y-84959384D01*
X149033670Y-84980460D01*
X149068319Y-84999895D01*
X149098088Y-85016506D01*
X149120880Y-85029111D01*
X149134600Y-85036527D01*
X149137682Y-85038001D01*
X149136655Y-85031081D01*
X149132735Y-85014216D01*
X149128352Y-84997099D01*
X149115235Y-84931866D01*
X149107596Y-84859168D01*
X149107398Y-84850785D01*
X149315985Y-84850785D01*
X149318456Y-84869062D01*
X149333442Y-84887757D01*
X149335627Y-84889540D01*
X149348382Y-84902285D01*
X149357461Y-84919302D01*
X149364906Y-84944905D01*
X149367607Y-84957194D01*
X149392295Y-85041228D01*
X149429387Y-85118502D01*
X149478059Y-85188236D01*
X149537492Y-85249653D01*
X149606862Y-85301972D01*
X149685349Y-85344415D01*
X149772131Y-85376201D01*
X149822737Y-85388784D01*
X149842017Y-85391130D01*
X149871990Y-85392771D01*
X149908844Y-85393579D01*
X149948771Y-85393428D01*
X149956520Y-85393277D01*
X149999734Y-85392001D01*
X150032675Y-85389972D01*
X150059585Y-85386569D01*
X150084706Y-85381176D01*
X150112279Y-85373173D01*
X150127063Y-85368409D01*
X150212251Y-85333651D01*
X150289378Y-85288261D01*
X150357118Y-85233212D01*
X150414141Y-85169475D01*
X150430898Y-85145931D01*
X150463781Y-85090610D01*
X150487924Y-85034519D01*
X150505711Y-84971809D01*
X150509953Y-84951886D01*
X150517341Y-84920214D01*
X150524592Y-84901021D01*
X150532503Y-84892303D01*
X150533926Y-84891733D01*
X150553002Y-84879988D01*
X150560888Y-84862866D01*
X150557786Y-84843981D01*
X150543903Y-84826946D01*
X150529809Y-84818830D01*
X150498630Y-84810153D01*
X150467886Y-84808981D01*
X150440019Y-84814265D01*
X150417471Y-84824958D01*
X150402682Y-84840014D01*
X150398096Y-84858384D01*
X150402642Y-84873377D01*
X150415628Y-84886609D01*
X150428444Y-84892581D01*
X150439825Y-84898256D01*
X150445291Y-84909370D01*
X150444782Y-84927841D01*
X150438241Y-84955589D01*
X150425609Y-84994530D01*
X150425322Y-84995355D01*
X150391612Y-85071271D01*
X150347043Y-85138879D01*
X150293045Y-85197591D01*
X150231049Y-85246819D01*
X150162487Y-85285973D01*
X150088790Y-85314467D01*
X150011389Y-85331713D01*
X149931714Y-85337121D01*
X149851198Y-85330105D01*
X149771270Y-85310076D01*
X149714910Y-85287277D01*
X149638153Y-85243392D01*
X149571710Y-85189738D01*
X149516176Y-85127060D01*
X149472149Y-85056103D01*
X149440225Y-84977615D01*
X149427255Y-84927817D01*
X149425678Y-84912436D01*
X149431500Y-84902840D01*
X149447263Y-84893941D01*
X149468399Y-84878581D01*
X149476425Y-84860647D01*
X149471889Y-84842486D01*
X149455336Y-84826444D01*
X149428956Y-84815297D01*
X149395593Y-84810215D01*
X149365832Y-84812641D01*
X149341455Y-84821156D01*
X149324245Y-84834343D01*
X149315985Y-84850785D01*
X149107398Y-84850785D01*
X149105846Y-84785143D01*
X149109785Y-84721231D01*
X149128501Y-84614060D01*
X149152405Y-84536280D01*
X149500875Y-84536280D01*
X149507413Y-84580400D01*
X149525626Y-84618808D01*
X149553411Y-84650361D01*
X149588667Y-84673917D01*
X149629293Y-84688333D01*
X149673186Y-84692466D01*
X149718245Y-84685173D01*
X149750553Y-84672037D01*
X149785763Y-84648103D01*
X149811253Y-84620612D01*
X149822950Y-84602315D01*
X149829561Y-84585670D01*
X149832493Y-84565268D01*
X149832866Y-84548784D01*
X150070528Y-84548784D01*
X150080293Y-84591728D01*
X150101510Y-84628622D01*
X150131949Y-84658263D01*
X150169380Y-84679449D01*
X150211574Y-84690976D01*
X150256302Y-84691641D01*
X150301334Y-84680241D01*
X150308492Y-84677185D01*
X150346539Y-84655428D01*
X150373700Y-84628538D01*
X150387979Y-84605223D01*
X150403755Y-84559929D01*
X150405118Y-84515971D01*
X150392132Y-84473870D01*
X150368013Y-84437748D01*
X150334277Y-84406847D01*
X150295403Y-84388193D01*
X150248874Y-84380678D01*
X150237655Y-84380411D01*
X150187356Y-84386308D01*
X150144305Y-84403473D01*
X150109842Y-84430555D01*
X150085308Y-84466204D01*
X150072045Y-84509069D01*
X150070528Y-84548784D01*
X149832866Y-84548784D01*
X149833149Y-84536280D01*
X149832454Y-84506819D01*
X149829433Y-84486394D01*
X149822681Y-84469558D01*
X149811332Y-84451634D01*
X149780526Y-84419421D01*
X149750160Y-84400209D01*
X149704935Y-84384144D01*
X149659617Y-84380318D01*
X149616274Y-84387601D01*
X149576973Y-84404865D01*
X149543783Y-84430981D01*
X149518772Y-84464820D01*
X149504008Y-84505253D01*
X149500875Y-84536280D01*
X149152405Y-84536280D01*
X149159552Y-84513025D01*
X149201987Y-84418767D01*
X149254858Y-84331930D01*
X149317217Y-84253155D01*
X149388115Y-84183085D01*
X149466604Y-84122362D01*
X149551736Y-84071627D01*
X149642561Y-84031524D01*
X149738131Y-84002694D01*
X149837499Y-83985779D01*
X149939715Y-83981423D01*
X150043831Y-83990266D01*
X150043831Y-83990266D01*
G37*
X150043831Y-83990266D02*
X150148898Y-84012952D01*
X150153778Y-84014350D01*
X150252956Y-84050448D01*
X150346204Y-84099017D01*
X150432344Y-84158932D01*
X150510198Y-84229065D01*
X150578588Y-84308290D01*
X150636334Y-84395479D01*
X150682259Y-84489506D01*
X150699616Y-84536312D01*
X150727895Y-84643121D01*
X150741928Y-84751036D01*
X150741711Y-84859086D01*
X150727237Y-84966298D01*
X150702828Y-85058794D01*
X150692690Y-85088553D01*
X150682830Y-85115301D01*
X150675057Y-85134178D01*
X150673747Y-85136912D01*
X150671986Y-85141951D01*
X150673744Y-85144392D01*
X150680237Y-85143721D01*
X150692679Y-85139424D01*
X150712285Y-85130985D01*
X150740269Y-85117891D01*
X150777848Y-85099627D01*
X150826235Y-85075680D01*
X150870361Y-85053673D01*
X150927936Y-85024816D01*
X150973689Y-85001614D01*
X151008841Y-84983357D01*
X151034615Y-84969333D01*
X151052231Y-84958831D01*
X151062910Y-84951138D01*
X151067875Y-84945543D01*
X151068346Y-84941335D01*
X151066943Y-84939140D01*
X151046129Y-84906539D01*
X151032710Y-84865356D01*
X151027126Y-84819746D01*
X151029818Y-84773865D01*
X151041224Y-84731869D01*
X151044274Y-84724966D01*
X151071227Y-84681614D01*
X151104077Y-84650079D01*
X151141023Y-84629870D01*
X151180264Y-84620499D01*
X151220000Y-84621476D01*
X151258428Y-84632314D01*
X151293749Y-84652522D01*
X151324160Y-84681612D01*
X151347862Y-84719096D01*
X151363053Y-84764483D01*
X151367963Y-84812843D01*
X151366706Y-84845581D01*
X151361750Y-84871222D01*
X151351480Y-84897033D01*
X151347385Y-84905372D01*
X151326736Y-84946309D01*
X151358504Y-84946309D01*
X151404547Y-84952991D01*
X151445524Y-84971755D01*
X151480176Y-85000676D01*
X151507242Y-85037830D01*
X151525463Y-85081293D01*
X151533579Y-85129138D01*
X151530331Y-85179443D01*
X151525222Y-85201025D01*
X151505416Y-85247222D01*
X151477145Y-85283379D01*
X151442495Y-85309372D01*
X151403552Y-85325081D01*
X151362403Y-85330383D01*
X151321132Y-85325156D01*
X151281828Y-85309277D01*
X151246575Y-85282626D01*
X151217460Y-85245079D01*
X151204833Y-85219773D01*
X151193582Y-85192846D01*
X150299384Y-85640988D01*
X150245700Y-85610390D01*
X150218950Y-85595535D01*
X150200688Y-85587071D01*
X150186969Y-85583901D01*
X150173843Y-85584932D01*
X150163168Y-85587493D01*
X150145289Y-85593132D01*
X150135266Y-85597978D01*
X150134473Y-85599136D01*
X150140627Y-85603347D01*
X150158163Y-85613897D01*
X150185786Y-85630056D01*
X150222204Y-85651095D01*
X150266120Y-85676283D01*
X150316242Y-85704890D01*
X150371275Y-85736187D01*
X150429925Y-85769443D01*
X150490897Y-85803929D01*
X150552897Y-85838915D01*
X150614631Y-85873670D01*
X150674805Y-85907466D01*
X150732124Y-85939571D01*
X150785294Y-85969256D01*
X150833021Y-85995792D01*
X150874010Y-86018448D01*
X150906968Y-86036493D01*
X150930600Y-86049200D01*
X150943612Y-86055836D01*
X150945708Y-86056652D01*
X150953017Y-86050661D01*
X150961085Y-86036201D01*
X150961281Y-86035733D01*
X150981733Y-86004548D01*
X151014921Y-85977449D01*
X151044474Y-85961829D01*
X151086769Y-85950112D01*
X151127985Y-85951301D01*
X151166499Y-85963795D01*
X151200687Y-85985995D01*
X151228925Y-86016303D01*
X151249591Y-86053119D01*
X151261060Y-86094844D01*
X151261710Y-86139878D01*
X151255653Y-86169852D01*
X151237242Y-86210488D01*
X151209111Y-86244240D01*
X151173892Y-86269662D01*
X151134216Y-86285310D01*
X151092716Y-86289737D01*
X151052197Y-86281565D01*
X151039451Y-86278018D01*
X151035732Y-86279727D01*
X151035744Y-86279751D01*
X151053980Y-86316156D01*
X151066570Y-86343204D01*
X151074557Y-86364423D01*
X151078981Y-86383338D01*
X151080884Y-86403476D01*
X151081307Y-86428363D01*
X151081306Y-86434023D01*
X151080234Y-86470309D01*
X151076500Y-86497599D01*
X151069181Y-86521308D01*
X151064589Y-86531994D01*
X151039837Y-86574172D01*
X151009649Y-86606164D01*
X150989209Y-86619728D01*
X150961717Y-86627996D01*
X150928695Y-86629467D01*
X150896936Y-86624345D01*
X150878177Y-86616390D01*
X150846775Y-86591623D01*
X150822124Y-86559194D01*
X150808034Y-86531904D01*
X150797556Y-86497957D01*
X150791966Y-86456507D01*
X150791371Y-86412957D01*
X150795880Y-86372705D01*
X150804281Y-86344009D01*
X150811468Y-86326306D01*
X150814840Y-86315367D01*
X150814772Y-86313930D01*
X150808062Y-86309966D01*
X150789526Y-86299347D01*
X150759962Y-86282522D01*
X150720170Y-86259943D01*
X150670950Y-86232061D01*
X150613101Y-86199325D01*
X150547421Y-86162188D01*
X150474711Y-86121098D01*
X150395770Y-86076507D01*
X150311396Y-86028866D01*
X150222390Y-85978624D01*
X150129551Y-85926234D01*
X150033677Y-85872145D01*
X149935569Y-85816807D01*
X149836025Y-85760673D01*
X149735845Y-85704191D01*
X149635828Y-85647814D01*
X149536774Y-85591991D01*
X149439482Y-85537173D01*
X149344751Y-85483810D01*
X149253380Y-85432354D01*
X149166169Y-85383255D01*
X149083917Y-85336964D01*
X149007423Y-85293930D01*
X148937487Y-85254606D01*
X148874909Y-85219441D01*
X148820486Y-85188886D01*
X148775019Y-85163392D01*
X148739307Y-85143409D01*
X148714149Y-85129388D01*
X148700345Y-85121780D01*
X148697842Y-85120480D01*
X148692444Y-85126398D01*
X148684682Y-85140889D01*
X148683572Y-85143343D01*
X148660859Y-85178462D01*
X148627841Y-85208349D01*
X148588617Y-85229542D01*
X148576705Y-85233556D01*
X148528500Y-85240631D01*
X148482729Y-85233824D01*
X148440946Y-85213742D01*
X148404704Y-85180990D01*
X148389413Y-85160462D01*
X148367506Y-85115444D01*
X148357493Y-85067800D01*
X148358622Y-85019864D01*
X148370146Y-84973971D01*
X148391313Y-84932453D01*
X148421374Y-84897645D01*
X148459579Y-84871880D01*
X148485317Y-84861959D01*
X148511088Y-84855999D01*
X148534314Y-84853172D01*
X148544441Y-84853431D01*
X148564237Y-84856336D01*
X148541921Y-84813053D01*
X148529282Y-84786007D01*
X148522609Y-84762804D01*
X148520246Y-84736231D01*
X148520175Y-84718339D01*
X148526189Y-84665406D01*
X148543555Y-84620499D01*
X148573171Y-84581573D01*
X148585359Y-84570067D01*
X148627032Y-84541529D01*
X148670303Y-84527208D01*
X148714100Y-84527054D01*
X148757348Y-84541018D01*
X148798973Y-84569051D01*
X148811226Y-84580438D01*
X148844319Y-84622747D01*
X148864122Y-84669760D01*
X148870425Y-84719891D01*
X148863017Y-84771552D01*
X148843013Y-84820746D01*
X148831193Y-84845201D01*
X148827884Y-84859662D01*
X148830488Y-84864668D01*
X148840628Y-84870763D01*
X148860556Y-84882311D01*
X148888177Y-84898130D01*
X148921394Y-84917036D01*
X148958112Y-84937849D01*
X148996236Y-84959384D01*
X149033670Y-84980460D01*
X149068319Y-84999895D01*
X149098088Y-85016506D01*
X149120880Y-85029111D01*
X149134600Y-85036527D01*
X149137682Y-85038001D01*
X149136655Y-85031081D01*
X149132735Y-85014216D01*
X149128352Y-84997099D01*
X149115235Y-84931866D01*
X149107596Y-84859168D01*
X149107398Y-84850785D01*
X149315985Y-84850785D01*
X149318456Y-84869062D01*
X149333442Y-84887757D01*
X149335627Y-84889540D01*
X149348382Y-84902285D01*
X149357461Y-84919302D01*
X149364906Y-84944905D01*
X149367607Y-84957194D01*
X149392295Y-85041228D01*
X149429387Y-85118502D01*
X149478059Y-85188236D01*
X149537492Y-85249653D01*
X149606862Y-85301972D01*
X149685349Y-85344415D01*
X149772131Y-85376201D01*
X149822737Y-85388784D01*
X149842017Y-85391130D01*
X149871990Y-85392771D01*
X149908844Y-85393579D01*
X149948771Y-85393428D01*
X149956520Y-85393277D01*
X149999734Y-85392001D01*
X150032675Y-85389972D01*
X150059585Y-85386569D01*
X150084706Y-85381176D01*
X150112279Y-85373173D01*
X150127063Y-85368409D01*
X150212251Y-85333651D01*
X150289378Y-85288261D01*
X150357118Y-85233212D01*
X150414141Y-85169475D01*
X150430898Y-85145931D01*
X150463781Y-85090610D01*
X150487924Y-85034519D01*
X150505711Y-84971809D01*
X150509953Y-84951886D01*
X150517341Y-84920214D01*
X150524592Y-84901021D01*
X150532503Y-84892303D01*
X150533926Y-84891733D01*
X150553002Y-84879988D01*
X150560888Y-84862866D01*
X150557786Y-84843981D01*
X150543903Y-84826946D01*
X150529809Y-84818830D01*
X150498630Y-84810153D01*
X150467886Y-84808981D01*
X150440019Y-84814265D01*
X150417471Y-84824958D01*
X150402682Y-84840014D01*
X150398096Y-84858384D01*
X150402642Y-84873377D01*
X150415628Y-84886609D01*
X150428444Y-84892581D01*
X150439825Y-84898256D01*
X150445291Y-84909370D01*
X150444782Y-84927841D01*
X150438241Y-84955589D01*
X150425609Y-84994530D01*
X150425322Y-84995355D01*
X150391612Y-85071271D01*
X150347043Y-85138879D01*
X150293045Y-85197591D01*
X150231049Y-85246819D01*
X150162487Y-85285973D01*
X150088790Y-85314467D01*
X150011389Y-85331713D01*
X149931714Y-85337121D01*
X149851198Y-85330105D01*
X149771270Y-85310076D01*
X149714910Y-85287277D01*
X149638153Y-85243392D01*
X149571710Y-85189738D01*
X149516176Y-85127060D01*
X149472149Y-85056103D01*
X149440225Y-84977615D01*
X149427255Y-84927817D01*
X149425678Y-84912436D01*
X149431500Y-84902840D01*
X149447263Y-84893941D01*
X149468399Y-84878581D01*
X149476425Y-84860647D01*
X149471889Y-84842486D01*
X149455336Y-84826444D01*
X149428956Y-84815297D01*
X149395593Y-84810215D01*
X149365832Y-84812641D01*
X149341455Y-84821156D01*
X149324245Y-84834343D01*
X149315985Y-84850785D01*
X149107398Y-84850785D01*
X149105846Y-84785143D01*
X149109785Y-84721231D01*
X149128501Y-84614060D01*
X149152405Y-84536280D01*
X149500875Y-84536280D01*
X149507413Y-84580400D01*
X149525626Y-84618808D01*
X149553411Y-84650361D01*
X149588667Y-84673917D01*
X149629293Y-84688333D01*
X149673186Y-84692466D01*
X149718245Y-84685173D01*
X149750553Y-84672037D01*
X149785763Y-84648103D01*
X149811253Y-84620612D01*
X149822950Y-84602315D01*
X149829561Y-84585670D01*
X149832493Y-84565268D01*
X149832866Y-84548784D01*
X150070528Y-84548784D01*
X150080293Y-84591728D01*
X150101510Y-84628622D01*
X150131949Y-84658263D01*
X150169380Y-84679449D01*
X150211574Y-84690976D01*
X150256302Y-84691641D01*
X150301334Y-84680241D01*
X150308492Y-84677185D01*
X150346539Y-84655428D01*
X150373700Y-84628538D01*
X150387979Y-84605223D01*
X150403755Y-84559929D01*
X150405118Y-84515971D01*
X150392132Y-84473870D01*
X150368013Y-84437748D01*
X150334277Y-84406847D01*
X150295403Y-84388193D01*
X150248874Y-84380678D01*
X150237655Y-84380411D01*
X150187356Y-84386308D01*
X150144305Y-84403473D01*
X150109842Y-84430555D01*
X150085308Y-84466204D01*
X150072045Y-84509069D01*
X150070528Y-84548784D01*
X149832866Y-84548784D01*
X149833149Y-84536280D01*
X149832454Y-84506819D01*
X149829433Y-84486394D01*
X149822681Y-84469558D01*
X149811332Y-84451634D01*
X149780526Y-84419421D01*
X149750160Y-84400209D01*
X149704935Y-84384144D01*
X149659617Y-84380318D01*
X149616274Y-84387601D01*
X149576973Y-84404865D01*
X149543783Y-84430981D01*
X149518772Y-84464820D01*
X149504008Y-84505253D01*
X149500875Y-84536280D01*
X149152405Y-84536280D01*
X149159552Y-84513025D01*
X149201987Y-84418767D01*
X149254858Y-84331930D01*
X149317217Y-84253155D01*
X149388115Y-84183085D01*
X149466604Y-84122362D01*
X149551736Y-84071627D01*
X149642561Y-84031524D01*
X149738131Y-84002694D01*
X149837499Y-83985779D01*
X149939715Y-83981423D01*
X150043831Y-83990266D01*
G36*
X149758108Y-85765342D02*
G01*
X149798172Y-85788150D01*
X149833600Y-85808626D01*
X149862565Y-85825688D01*
X149883239Y-85838254D01*
X149893796Y-85845244D01*
X149894776Y-85846232D01*
X149888493Y-85850092D01*
X149870442Y-85859779D01*
X149841852Y-85874665D01*
X149803955Y-85894122D01*
X149757981Y-85917520D01*
X149705162Y-85944233D01*
X149646728Y-85973632D01*
X149583911Y-86005087D01*
X149570077Y-86011995D01*
X149500673Y-86046693D01*
X149430614Y-86081819D01*
X149361898Y-86116367D01*
X149296523Y-86149328D01*
X149236487Y-86179692D01*
X149183789Y-86206452D01*
X149140424Y-86228598D01*
X149112875Y-86242794D01*
X148980430Y-86311497D01*
X149001916Y-86338288D01*
X149029345Y-86383508D01*
X149043210Y-86433273D01*
X149043313Y-86486473D01*
X149035071Y-86525234D01*
X149015687Y-86568007D01*
X148986704Y-86603191D01*
X148950561Y-86629565D01*
X148909698Y-86645905D01*
X148866555Y-86650989D01*
X148823572Y-86643594D01*
X148809730Y-86638159D01*
X148768513Y-86611936D01*
X148736301Y-86576235D01*
X148713955Y-86533595D01*
X148702339Y-86486552D01*
X148702314Y-86437645D01*
X148714742Y-86389411D01*
X148720699Y-86376113D01*
X148732631Y-86348877D01*
X148735463Y-86331483D01*
X148728484Y-86321928D01*
X148710983Y-86318211D01*
X148700025Y-86317909D01*
X148654121Y-86311140D01*
X148613323Y-86291891D01*
X148579149Y-86261741D01*
X148553116Y-86222275D01*
X148536742Y-86175073D01*
X148532127Y-86142894D01*
X148534149Y-86091608D01*
X148546795Y-86045763D01*
X148568373Y-86006370D01*
X148597192Y-85974438D01*
X148631563Y-85950977D01*
X148669793Y-85936998D01*
X148710193Y-85933510D01*
X148751071Y-85941523D01*
X148790737Y-85962048D01*
X148809478Y-85977217D01*
X148829637Y-85998946D01*
X148846931Y-86022912D01*
X148853364Y-86034723D01*
X148862203Y-86052293D01*
X148869124Y-86062515D01*
X148870865Y-86063597D01*
X148877966Y-86060369D01*
X148896868Y-86051190D01*
X148926409Y-86036635D01*
X148965428Y-86017284D01*
X149012764Y-85993715D01*
X149067255Y-85966505D01*
X149127741Y-85936233D01*
X149193059Y-85903477D01*
X149248351Y-85875702D01*
X149621497Y-85688119D01*
X149758108Y-85765342D01*
X149758108Y-85765342D01*
G37*
X149758108Y-85765342D02*
X149798172Y-85788150D01*
X149833600Y-85808626D01*
X149862565Y-85825688D01*
X149883239Y-85838254D01*
X149893796Y-85845244D01*
X149894776Y-85846232D01*
X149888493Y-85850092D01*
X149870442Y-85859779D01*
X149841852Y-85874665D01*
X149803955Y-85894122D01*
X149757981Y-85917520D01*
X149705162Y-85944233D01*
X149646728Y-85973632D01*
X149583911Y-86005087D01*
X149570077Y-86011995D01*
X149500673Y-86046693D01*
X149430614Y-86081819D01*
X149361898Y-86116367D01*
X149296523Y-86149328D01*
X149236487Y-86179692D01*
X149183789Y-86206452D01*
X149140424Y-86228598D01*
X149112875Y-86242794D01*
X148980430Y-86311497D01*
X149001916Y-86338288D01*
X149029345Y-86383508D01*
X149043210Y-86433273D01*
X149043313Y-86486473D01*
X149035071Y-86525234D01*
X149015687Y-86568007D01*
X148986704Y-86603191D01*
X148950561Y-86629565D01*
X148909698Y-86645905D01*
X148866555Y-86650989D01*
X148823572Y-86643594D01*
X148809730Y-86638159D01*
X148768513Y-86611936D01*
X148736301Y-86576235D01*
X148713955Y-86533595D01*
X148702339Y-86486552D01*
X148702314Y-86437645D01*
X148714742Y-86389411D01*
X148720699Y-86376113D01*
X148732631Y-86348877D01*
X148735463Y-86331483D01*
X148728484Y-86321928D01*
X148710983Y-86318211D01*
X148700025Y-86317909D01*
X148654121Y-86311140D01*
X148613323Y-86291891D01*
X148579149Y-86261741D01*
X148553116Y-86222275D01*
X148536742Y-86175073D01*
X148532127Y-86142894D01*
X148534149Y-86091608D01*
X148546795Y-86045763D01*
X148568373Y-86006370D01*
X148597192Y-85974438D01*
X148631563Y-85950977D01*
X148669793Y-85936998D01*
X148710193Y-85933510D01*
X148751071Y-85941523D01*
X148790737Y-85962048D01*
X148809478Y-85977217D01*
X148829637Y-85998946D01*
X148846931Y-86022912D01*
X148853364Y-86034723D01*
X148862203Y-86052293D01*
X148869124Y-86062515D01*
X148870865Y-86063597D01*
X148877966Y-86060369D01*
X148896868Y-86051190D01*
X148926409Y-86036635D01*
X148965428Y-86017284D01*
X149012764Y-85993715D01*
X149067255Y-85966505D01*
X149127741Y-85936233D01*
X149193059Y-85903477D01*
X149248351Y-85875702D01*
X149621497Y-85688119D01*
X149758108Y-85765342D01*
D11*
X141046200Y-78917800D03*
X143586200Y-78917800D03*
X156286200Y-78917800D03*
X158826200Y-78917800D03*
X141046200Y-96697800D03*
X143586200Y-96697800D03*
X146126200Y-96697800D03*
X148666200Y-96697800D03*
X151206200Y-96697800D03*
X153746200Y-96697800D03*
X156286200Y-96697800D03*
X158826200Y-96697800D03*
D12*
X143489680Y-91348560D03*
X141542840Y-81271040D03*
X145445480Y-81447640D03*
X142331440Y-89717880D03*
X158145480Y-82580480D03*
X155168600Y-82544920D03*
X150073360Y-78912720D03*
X141122400Y-89717880D03*
X156204920Y-94564200D03*
D13*
X143489680Y-83217880D02*
X143489680Y-91348560D01*
X141542840Y-81271040D02*
X143489680Y-83217880D01*
X141719440Y-81447640D02*
X141542840Y-81271040D01*
X145445480Y-81447640D02*
X141719440Y-81447640D01*
X144877641Y-79806799D02*
X146766280Y-81695438D01*
X144475199Y-79806799D02*
X144877641Y-79806799D01*
X143586200Y-78917800D02*
X144475199Y-79806799D01*
X146766280Y-81695438D02*
X146766280Y-87096600D01*
X146766280Y-87096600D02*
X147320000Y-87096600D01*
X147320000Y-87096600D02*
X147909280Y-87685880D01*
X147909280Y-87685880D02*
X152232360Y-87685880D01*
X157937201Y-79806799D02*
X158826200Y-78917800D01*
X157420479Y-80323521D02*
X157937201Y-79806799D01*
X157420479Y-82497761D02*
X157420479Y-80323521D01*
X152232360Y-87685880D02*
X157420479Y-82497761D01*
X159715199Y-95808801D02*
X158826200Y-96697800D01*
X159715199Y-81064034D02*
X159715199Y-95808801D01*
X158826200Y-80175035D02*
X159715199Y-81064034D01*
X158826200Y-78917800D02*
X158826200Y-80175035D01*
X142331440Y-90283565D02*
X142331440Y-89717880D01*
X158145480Y-82580480D02*
X158145480Y-89301320D01*
X142331440Y-91263322D02*
X142331440Y-90283565D01*
X143305678Y-92237560D02*
X142331440Y-91263322D01*
X158145480Y-89301320D02*
X155209240Y-92237560D01*
X155209240Y-92237560D02*
X143305678Y-92237560D01*
X151536400Y-78912720D02*
X155168600Y-82544920D01*
X150073360Y-78912720D02*
X151536400Y-78912720D01*
X141122400Y-90283565D02*
X141122400Y-89717880D01*
X141122400Y-90690692D02*
X141122400Y-90283565D01*
X144995908Y-94564200D02*
X141122400Y-90690692D01*
X156204920Y-94564200D02*
X144995908Y-94564200D01*
M02*
