M48
; DRILL file {KiCad (5.1.2-1)-1} date Friday, September 06, 2019 at 11:38:06 PM
; FORMAT={-:-/ absolute / inch / decimal}
; #@! TF.CreationDate,2019-09-06T23:38:06-06:00
; #@! TF.GenerationSoftware,Kicad,Pcbnew,(5.1.2-1)-1
; #@! TF.FileFunction,Plated,1,2,PTH
FMAT,2
INCH
T1C0.0157
T2C0.0400
%
G90
G05
T1
X5.556Y-3.5322
X5.5726Y-3.1996
X5.6036Y-3.5322
X5.6492Y-3.5964
X5.7262Y-3.2066
X5.9084Y-3.1068
X6.109Y-3.2498
X6.1498Y-3.723
X6.2262Y-3.2512
T2
X5.553Y-3.107
X5.553Y-3.807
X5.653Y-3.107
X5.653Y-3.807
X5.753Y-3.807
X5.853Y-3.807
X5.953Y-3.807
X6.053Y-3.807
X6.153Y-3.107
X6.153Y-3.807
X6.253Y-3.107
X6.253Y-3.807
T0
M30
