G04 #@! TF.GenerationSoftware,KiCad,Pcbnew,(5.1.2-1)-1*
G04 #@! TF.CreationDate,2019-09-06T23:38:15-06:00*
G04 #@! TF.ProjectId,DC435,44433433-352e-46b6-9963-61645f706362,rev?*
G04 #@! TF.SameCoordinates,Original*
G04 #@! TF.FileFunction,Copper,L2,Bot*
G04 #@! TF.FilePolarity,Positive*
%FSLAX46Y46*%
G04 Gerber Fmt 4.6, Leading zero omitted, Abs format (unit mm)*
G04 Created by KiCad (PCBNEW (5.1.2-1)-1) date 2019-09-06 23:38:15*
%MOMM*%
%LPD*%
G04 APERTURE LIST*
%ADD10C,1.778000*%
%ADD11R,1.500000X1.100000*%
%ADD12R,1.700000X1.700000*%
%ADD13O,1.700000X1.700000*%
%ADD14C,0.100000*%
%ADD15C,1.425000*%
%ADD16R,1.600000X0.700000*%
%ADD17C,0.800000*%
%ADD18C,0.250000*%
G04 APERTURE END LIST*
D10*
X141046200Y-78917800D03*
X143586200Y-78917800D03*
X156286200Y-78917800D03*
X158826200Y-78917800D03*
X141046200Y-96697800D03*
X143586200Y-96697800D03*
X146126200Y-96697800D03*
X148666200Y-96697800D03*
X151206200Y-96697800D03*
X153746200Y-96697800D03*
X156286200Y-96697800D03*
X158826200Y-96697800D03*
D11*
X148725760Y-93841000D03*
X151725760Y-93841000D03*
X151725760Y-92341000D03*
X148725760Y-92341000D03*
D12*
X147533360Y-78912720D03*
D13*
X147533360Y-81452720D03*
X150073360Y-78912720D03*
X150073360Y-81452720D03*
X152613360Y-78912720D03*
X152613360Y-81452720D03*
D14*
G36*
X155813024Y-83399204D02*
G01*
X155837293Y-83402804D01*
X155861091Y-83408765D01*
X155884191Y-83417030D01*
X155906369Y-83427520D01*
X155927413Y-83440133D01*
X155947118Y-83454747D01*
X155965297Y-83471223D01*
X155981773Y-83489402D01*
X155996387Y-83509107D01*
X156009000Y-83530151D01*
X156019490Y-83552329D01*
X156027755Y-83575429D01*
X156033716Y-83599227D01*
X156037316Y-83623496D01*
X156038520Y-83648000D01*
X156038520Y-84573000D01*
X156037316Y-84597504D01*
X156033716Y-84621773D01*
X156027755Y-84645571D01*
X156019490Y-84668671D01*
X156009000Y-84690849D01*
X155996387Y-84711893D01*
X155981773Y-84731598D01*
X155965297Y-84749777D01*
X155947118Y-84766253D01*
X155927413Y-84780867D01*
X155906369Y-84793480D01*
X155884191Y-84803970D01*
X155861091Y-84812235D01*
X155837293Y-84818196D01*
X155813024Y-84821796D01*
X155788520Y-84823000D01*
X154538520Y-84823000D01*
X154514016Y-84821796D01*
X154489747Y-84818196D01*
X154465949Y-84812235D01*
X154442849Y-84803970D01*
X154420671Y-84793480D01*
X154399627Y-84780867D01*
X154379922Y-84766253D01*
X154361743Y-84749777D01*
X154345267Y-84731598D01*
X154330653Y-84711893D01*
X154318040Y-84690849D01*
X154307550Y-84668671D01*
X154299285Y-84645571D01*
X154293324Y-84621773D01*
X154289724Y-84597504D01*
X154288520Y-84573000D01*
X154288520Y-83648000D01*
X154289724Y-83623496D01*
X154293324Y-83599227D01*
X154299285Y-83575429D01*
X154307550Y-83552329D01*
X154318040Y-83530151D01*
X154330653Y-83509107D01*
X154345267Y-83489402D01*
X154361743Y-83471223D01*
X154379922Y-83454747D01*
X154399627Y-83440133D01*
X154420671Y-83427520D01*
X154442849Y-83417030D01*
X154465949Y-83408765D01*
X154489747Y-83402804D01*
X154514016Y-83399204D01*
X154538520Y-83398000D01*
X155788520Y-83398000D01*
X155813024Y-83399204D01*
X155813024Y-83399204D01*
G37*
D15*
X155163520Y-84110500D03*
D14*
G36*
X155813024Y-86374204D02*
G01*
X155837293Y-86377804D01*
X155861091Y-86383765D01*
X155884191Y-86392030D01*
X155906369Y-86402520D01*
X155927413Y-86415133D01*
X155947118Y-86429747D01*
X155965297Y-86446223D01*
X155981773Y-86464402D01*
X155996387Y-86484107D01*
X156009000Y-86505151D01*
X156019490Y-86527329D01*
X156027755Y-86550429D01*
X156033716Y-86574227D01*
X156037316Y-86598496D01*
X156038520Y-86623000D01*
X156038520Y-87548000D01*
X156037316Y-87572504D01*
X156033716Y-87596773D01*
X156027755Y-87620571D01*
X156019490Y-87643671D01*
X156009000Y-87665849D01*
X155996387Y-87686893D01*
X155981773Y-87706598D01*
X155965297Y-87724777D01*
X155947118Y-87741253D01*
X155927413Y-87755867D01*
X155906369Y-87768480D01*
X155884191Y-87778970D01*
X155861091Y-87787235D01*
X155837293Y-87793196D01*
X155813024Y-87796796D01*
X155788520Y-87798000D01*
X154538520Y-87798000D01*
X154514016Y-87796796D01*
X154489747Y-87793196D01*
X154465949Y-87787235D01*
X154442849Y-87778970D01*
X154420671Y-87768480D01*
X154399627Y-87755867D01*
X154379922Y-87741253D01*
X154361743Y-87724777D01*
X154345267Y-87706598D01*
X154330653Y-87686893D01*
X154318040Y-87665849D01*
X154307550Y-87643671D01*
X154299285Y-87620571D01*
X154293324Y-87596773D01*
X154289724Y-87572504D01*
X154288520Y-87548000D01*
X154288520Y-86623000D01*
X154289724Y-86598496D01*
X154293324Y-86574227D01*
X154299285Y-86550429D01*
X154307550Y-86527329D01*
X154318040Y-86505151D01*
X154330653Y-86484107D01*
X154345267Y-86464402D01*
X154361743Y-86446223D01*
X154379922Y-86429747D01*
X154399627Y-86415133D01*
X154420671Y-86402520D01*
X154442849Y-86392030D01*
X154465949Y-86383765D01*
X154489747Y-86377804D01*
X154514016Y-86374204D01*
X154538520Y-86373000D01*
X155788520Y-86373000D01*
X155813024Y-86374204D01*
X155813024Y-86374204D01*
G37*
D15*
X155163520Y-87085500D03*
D14*
G36*
X158794984Y-83399204D02*
G01*
X158819253Y-83402804D01*
X158843051Y-83408765D01*
X158866151Y-83417030D01*
X158888329Y-83427520D01*
X158909373Y-83440133D01*
X158929078Y-83454747D01*
X158947257Y-83471223D01*
X158963733Y-83489402D01*
X158978347Y-83509107D01*
X158990960Y-83530151D01*
X159001450Y-83552329D01*
X159009715Y-83575429D01*
X159015676Y-83599227D01*
X159019276Y-83623496D01*
X159020480Y-83648000D01*
X159020480Y-84573000D01*
X159019276Y-84597504D01*
X159015676Y-84621773D01*
X159009715Y-84645571D01*
X159001450Y-84668671D01*
X158990960Y-84690849D01*
X158978347Y-84711893D01*
X158963733Y-84731598D01*
X158947257Y-84749777D01*
X158929078Y-84766253D01*
X158909373Y-84780867D01*
X158888329Y-84793480D01*
X158866151Y-84803970D01*
X158843051Y-84812235D01*
X158819253Y-84818196D01*
X158794984Y-84821796D01*
X158770480Y-84823000D01*
X157520480Y-84823000D01*
X157495976Y-84821796D01*
X157471707Y-84818196D01*
X157447909Y-84812235D01*
X157424809Y-84803970D01*
X157402631Y-84793480D01*
X157381587Y-84780867D01*
X157361882Y-84766253D01*
X157343703Y-84749777D01*
X157327227Y-84731598D01*
X157312613Y-84711893D01*
X157300000Y-84690849D01*
X157289510Y-84668671D01*
X157281245Y-84645571D01*
X157275284Y-84621773D01*
X157271684Y-84597504D01*
X157270480Y-84573000D01*
X157270480Y-83648000D01*
X157271684Y-83623496D01*
X157275284Y-83599227D01*
X157281245Y-83575429D01*
X157289510Y-83552329D01*
X157300000Y-83530151D01*
X157312613Y-83509107D01*
X157327227Y-83489402D01*
X157343703Y-83471223D01*
X157361882Y-83454747D01*
X157381587Y-83440133D01*
X157402631Y-83427520D01*
X157424809Y-83417030D01*
X157447909Y-83408765D01*
X157471707Y-83402804D01*
X157495976Y-83399204D01*
X157520480Y-83398000D01*
X158770480Y-83398000D01*
X158794984Y-83399204D01*
X158794984Y-83399204D01*
G37*
D15*
X158145480Y-84110500D03*
D14*
G36*
X158794984Y-86374204D02*
G01*
X158819253Y-86377804D01*
X158843051Y-86383765D01*
X158866151Y-86392030D01*
X158888329Y-86402520D01*
X158909373Y-86415133D01*
X158929078Y-86429747D01*
X158947257Y-86446223D01*
X158963733Y-86464402D01*
X158978347Y-86484107D01*
X158990960Y-86505151D01*
X159001450Y-86527329D01*
X159009715Y-86550429D01*
X159015676Y-86574227D01*
X159019276Y-86598496D01*
X159020480Y-86623000D01*
X159020480Y-87548000D01*
X159019276Y-87572504D01*
X159015676Y-87596773D01*
X159009715Y-87620571D01*
X159001450Y-87643671D01*
X158990960Y-87665849D01*
X158978347Y-87686893D01*
X158963733Y-87706598D01*
X158947257Y-87724777D01*
X158929078Y-87741253D01*
X158909373Y-87755867D01*
X158888329Y-87768480D01*
X158866151Y-87778970D01*
X158843051Y-87787235D01*
X158819253Y-87793196D01*
X158794984Y-87796796D01*
X158770480Y-87798000D01*
X157520480Y-87798000D01*
X157495976Y-87796796D01*
X157471707Y-87793196D01*
X157447909Y-87787235D01*
X157424809Y-87778970D01*
X157402631Y-87768480D01*
X157381587Y-87755867D01*
X157361882Y-87741253D01*
X157343703Y-87724777D01*
X157327227Y-87706598D01*
X157312613Y-87686893D01*
X157300000Y-87665849D01*
X157289510Y-87643671D01*
X157281245Y-87620571D01*
X157275284Y-87596773D01*
X157271684Y-87572504D01*
X157270480Y-87548000D01*
X157270480Y-86623000D01*
X157271684Y-86598496D01*
X157275284Y-86574227D01*
X157281245Y-86550429D01*
X157289510Y-86527329D01*
X157300000Y-86505151D01*
X157312613Y-86484107D01*
X157327227Y-86464402D01*
X157343703Y-86446223D01*
X157361882Y-86429747D01*
X157381587Y-86415133D01*
X157402631Y-86402520D01*
X157424809Y-86392030D01*
X157447909Y-86383765D01*
X157471707Y-86377804D01*
X157495976Y-86374204D01*
X157520480Y-86373000D01*
X158770480Y-86373000D01*
X158794984Y-86374204D01*
X158794984Y-86374204D01*
G37*
D15*
X158145480Y-87085500D03*
D14*
G36*
X142280904Y-92334044D02*
G01*
X142305173Y-92337644D01*
X142328971Y-92343605D01*
X142352071Y-92351870D01*
X142374249Y-92362360D01*
X142395293Y-92374973D01*
X142414998Y-92389587D01*
X142433177Y-92406063D01*
X142449653Y-92424242D01*
X142464267Y-92443947D01*
X142476880Y-92464991D01*
X142487370Y-92487169D01*
X142495635Y-92510269D01*
X142501596Y-92534067D01*
X142505196Y-92558336D01*
X142506400Y-92582840D01*
X142506400Y-93832840D01*
X142505196Y-93857344D01*
X142501596Y-93881613D01*
X142495635Y-93905411D01*
X142487370Y-93928511D01*
X142476880Y-93950689D01*
X142464267Y-93971733D01*
X142449653Y-93991438D01*
X142433177Y-94009617D01*
X142414998Y-94026093D01*
X142395293Y-94040707D01*
X142374249Y-94053320D01*
X142352071Y-94063810D01*
X142328971Y-94072075D01*
X142305173Y-94078036D01*
X142280904Y-94081636D01*
X142256400Y-94082840D01*
X141331400Y-94082840D01*
X141306896Y-94081636D01*
X141282627Y-94078036D01*
X141258829Y-94072075D01*
X141235729Y-94063810D01*
X141213551Y-94053320D01*
X141192507Y-94040707D01*
X141172802Y-94026093D01*
X141154623Y-94009617D01*
X141138147Y-93991438D01*
X141123533Y-93971733D01*
X141110920Y-93950689D01*
X141100430Y-93928511D01*
X141092165Y-93905411D01*
X141086204Y-93881613D01*
X141082604Y-93857344D01*
X141081400Y-93832840D01*
X141081400Y-92582840D01*
X141082604Y-92558336D01*
X141086204Y-92534067D01*
X141092165Y-92510269D01*
X141100430Y-92487169D01*
X141110920Y-92464991D01*
X141123533Y-92443947D01*
X141138147Y-92424242D01*
X141154623Y-92406063D01*
X141172802Y-92389587D01*
X141192507Y-92374973D01*
X141213551Y-92362360D01*
X141235729Y-92351870D01*
X141258829Y-92343605D01*
X141282627Y-92337644D01*
X141306896Y-92334044D01*
X141331400Y-92332840D01*
X142256400Y-92332840D01*
X142280904Y-92334044D01*
X142280904Y-92334044D01*
G37*
D15*
X141793900Y-93207840D03*
D14*
G36*
X145255904Y-92334044D02*
G01*
X145280173Y-92337644D01*
X145303971Y-92343605D01*
X145327071Y-92351870D01*
X145349249Y-92362360D01*
X145370293Y-92374973D01*
X145389998Y-92389587D01*
X145408177Y-92406063D01*
X145424653Y-92424242D01*
X145439267Y-92443947D01*
X145451880Y-92464991D01*
X145462370Y-92487169D01*
X145470635Y-92510269D01*
X145476596Y-92534067D01*
X145480196Y-92558336D01*
X145481400Y-92582840D01*
X145481400Y-93832840D01*
X145480196Y-93857344D01*
X145476596Y-93881613D01*
X145470635Y-93905411D01*
X145462370Y-93928511D01*
X145451880Y-93950689D01*
X145439267Y-93971733D01*
X145424653Y-93991438D01*
X145408177Y-94009617D01*
X145389998Y-94026093D01*
X145370293Y-94040707D01*
X145349249Y-94053320D01*
X145327071Y-94063810D01*
X145303971Y-94072075D01*
X145280173Y-94078036D01*
X145255904Y-94081636D01*
X145231400Y-94082840D01*
X144306400Y-94082840D01*
X144281896Y-94081636D01*
X144257627Y-94078036D01*
X144233829Y-94072075D01*
X144210729Y-94063810D01*
X144188551Y-94053320D01*
X144167507Y-94040707D01*
X144147802Y-94026093D01*
X144129623Y-94009617D01*
X144113147Y-93991438D01*
X144098533Y-93971733D01*
X144085920Y-93950689D01*
X144075430Y-93928511D01*
X144067165Y-93905411D01*
X144061204Y-93881613D01*
X144057604Y-93857344D01*
X144056400Y-93832840D01*
X144056400Y-92582840D01*
X144057604Y-92558336D01*
X144061204Y-92534067D01*
X144067165Y-92510269D01*
X144075430Y-92487169D01*
X144085920Y-92464991D01*
X144098533Y-92443947D01*
X144113147Y-92424242D01*
X144129623Y-92406063D01*
X144147802Y-92389587D01*
X144167507Y-92374973D01*
X144188551Y-92362360D01*
X144210729Y-92351870D01*
X144233829Y-92343605D01*
X144257627Y-92337644D01*
X144281896Y-92334044D01*
X144306400Y-92332840D01*
X145231400Y-92332840D01*
X145255904Y-92334044D01*
X145255904Y-92334044D01*
G37*
D15*
X144768900Y-93207840D03*
D16*
X141542840Y-83433920D03*
X141542840Y-84703920D03*
X141542840Y-85973920D03*
X141542840Y-87243920D03*
X146472840Y-83433920D03*
X146472840Y-87243920D03*
X146472840Y-84703920D03*
X146472840Y-85973920D03*
D17*
X143489680Y-91348560D03*
X141542840Y-81271040D03*
X145445480Y-81447640D03*
X142331440Y-89717880D03*
X158145480Y-82580480D03*
X155168600Y-82544920D03*
X150073360Y-78912720D03*
X141122400Y-89717880D03*
X156204920Y-94564200D03*
D18*
X151763361Y-79762719D02*
X152613360Y-78912720D01*
X151438359Y-80087721D02*
X151763361Y-79762719D01*
X150408640Y-83002120D02*
X151438359Y-81972401D01*
X148630640Y-83002120D02*
X150408640Y-83002120D01*
X151438359Y-81972401D02*
X151438359Y-80087721D01*
X148198840Y-83433920D02*
X148630640Y-83002120D01*
X146472840Y-83433920D02*
X148198840Y-83433920D01*
X146433360Y-78912720D02*
X143388080Y-81958000D01*
X147533360Y-78912720D02*
X146433360Y-78912720D01*
X141992840Y-85973920D02*
X141542840Y-85973920D01*
X143388080Y-84578680D02*
X141992840Y-85973920D01*
X143388080Y-81958000D02*
X143388080Y-84578680D01*
X152725760Y-93841000D02*
X151725760Y-93841000D01*
X156504640Y-90062120D02*
X152725760Y-93841000D01*
X156504640Y-88426620D02*
X155163520Y-87085500D01*
X156504640Y-90062120D02*
X156504640Y-88426620D01*
X152735761Y-94716001D02*
X158145480Y-89306282D01*
X150600761Y-94716001D02*
X152735761Y-94716001D01*
X158145480Y-89306282D02*
X158145480Y-87085500D01*
X149725760Y-93841000D02*
X150600761Y-94716001D01*
X148725760Y-93841000D02*
X149725760Y-93841000D01*
X141542840Y-79414440D02*
X141046200Y-78917800D01*
X141542840Y-83433920D02*
X141542840Y-81271040D01*
X150725760Y-92341000D02*
X149733320Y-91348560D01*
X151725760Y-92341000D02*
X150725760Y-92341000D01*
X149733320Y-91348560D02*
X143489680Y-91348560D01*
X143489680Y-91348560D02*
X143489680Y-91348560D01*
X141542840Y-81271040D02*
X141542840Y-79414440D01*
X146331279Y-81452720D02*
X146326199Y-81447640D01*
X147533360Y-81452720D02*
X146331279Y-81452720D01*
X146326199Y-81447640D02*
X145445480Y-81447640D01*
X145445480Y-81447640D02*
X145445480Y-81447640D01*
X145635740Y-92341000D02*
X144768900Y-93207840D01*
X148725760Y-92341000D02*
X145635740Y-92341000D01*
X156291280Y-81452720D02*
X158826200Y-78917800D01*
X152613360Y-81452720D02*
X156291280Y-81452720D01*
X152135840Y-87630000D02*
X152613360Y-87152480D01*
X152613360Y-87152480D02*
X152613360Y-81452720D01*
X147908920Y-87630000D02*
X152135840Y-87630000D01*
X147522840Y-87243920D02*
X147908920Y-87630000D01*
X146472840Y-87243920D02*
X147522840Y-87243920D01*
X141793900Y-92232840D02*
X141793900Y-93207840D01*
X146472840Y-85973920D02*
X146022840Y-85973920D01*
X145422840Y-85973920D02*
X143504920Y-87891840D01*
X146472840Y-85973920D02*
X145422840Y-85973920D01*
X143504920Y-87891840D02*
X143504920Y-90236040D01*
X141793900Y-91947060D02*
X141793900Y-93207840D01*
X143504920Y-90236040D02*
X141793900Y-91947060D01*
X146472840Y-84703920D02*
X146022840Y-84703920D01*
X146472840Y-84703920D02*
X145769250Y-84703920D01*
X146022840Y-84703920D02*
X142331440Y-88395320D01*
X142331440Y-88395320D02*
X142331440Y-89717880D01*
X142331440Y-89717880D02*
X142331440Y-89717880D01*
X158145480Y-84110500D02*
X158145480Y-82580480D01*
X158145480Y-82580480D02*
X158145480Y-82580480D01*
X141077838Y-84703920D02*
X140289280Y-85492478D01*
X141542840Y-84703920D02*
X141077838Y-84703920D01*
X140289280Y-85492478D02*
X140289280Y-95194120D01*
X153827480Y-95194120D02*
X156245560Y-92776040D01*
X155934867Y-84881847D02*
X155163520Y-84110500D01*
X158108680Y-85148010D02*
X156201030Y-85148010D01*
X159345490Y-86384820D02*
X158108680Y-85148010D01*
X159345490Y-89716750D02*
X159345490Y-86384820D01*
X156201030Y-85148010D02*
X155934867Y-84881847D01*
X156286200Y-92776040D02*
X159345490Y-89716750D01*
X156245560Y-92776040D02*
X156286200Y-92776040D01*
X151206200Y-96697800D02*
X152095199Y-95808801D01*
X153456640Y-95194120D02*
X153827480Y-95194120D01*
X152841959Y-95808801D02*
X153456640Y-95194120D01*
X152095199Y-95808801D02*
X152841959Y-95808801D01*
X140289280Y-95194120D02*
X153456640Y-95194120D01*
X155163520Y-83298000D02*
X155168600Y-83292920D01*
X155163520Y-84110500D02*
X155163520Y-83298000D01*
X155168600Y-83292920D02*
X155168600Y-82544920D01*
X155168600Y-82544920D02*
X155168600Y-82544920D01*
X150073360Y-78912720D02*
X150073360Y-78912720D01*
X150073360Y-78912720D02*
X150073360Y-78912720D01*
X149223361Y-82302719D02*
X150073360Y-81452720D01*
X148693631Y-82302719D02*
X149223361Y-82302719D01*
X148324430Y-82671920D02*
X148693631Y-82302719D01*
X145499838Y-82671920D02*
X148324430Y-82671920D01*
X145347839Y-82823919D02*
X145499838Y-82671920D01*
X145347839Y-84488921D02*
X145347839Y-82823919D01*
X142592840Y-87243920D02*
X145347839Y-84488921D01*
X141542840Y-87243920D02*
X142592840Y-87243920D01*
X141542840Y-87843920D02*
X141122400Y-88264360D01*
X141542840Y-87243920D02*
X141542840Y-87843920D01*
X141122400Y-88264360D02*
X141122400Y-89717880D01*
X141122400Y-89717880D02*
X141122400Y-89717880D01*
X154635199Y-95808801D02*
X154960319Y-95808801D01*
X153746200Y-96697800D02*
X154635199Y-95808801D01*
X154960319Y-95808801D02*
X156204920Y-94564200D01*
X156204920Y-94564200D02*
X156204920Y-94564200D01*
M02*
