G04 #@! TF.GenerationSoftware,KiCad,Pcbnew,(5.1.2-1)-1*
G04 #@! TF.CreationDate,2019-09-06T23:38:15-06:00*
G04 #@! TF.ProjectId,DC435,44433433-352e-46b6-9963-61645f706362,rev?*
G04 #@! TF.SameCoordinates,Original*
G04 #@! TF.FileFunction,Soldermask,Bot*
G04 #@! TF.FilePolarity,Negative*
%FSLAX46Y46*%
G04 Gerber Fmt 4.6, Leading zero omitted, Abs format (unit mm)*
G04 Created by KiCad (PCBNEW (5.1.2-1)-1) date 2019-09-06 23:38:15*
%MOMM*%
%LPD*%
G04 APERTURE LIST*
%ADD10C,0.010000*%
%ADD11C,0.100000*%
G04 APERTURE END LIST*
D10*
G36*
X150165907Y-83464826D02*
G01*
X150415624Y-83516693D01*
X150668664Y-83604156D01*
X150911187Y-83718989D01*
X150952370Y-83744390D01*
X151010305Y-83784572D01*
X151078136Y-83834234D01*
X151149004Y-83888080D01*
X151216052Y-83940811D01*
X151272424Y-83987127D01*
X151311261Y-84021732D01*
X151325707Y-84039279D01*
X151337782Y-84058890D01*
X151368884Y-84097423D01*
X151404458Y-84137836D01*
X151470157Y-84212145D01*
X151521951Y-84277223D01*
X151567478Y-84344250D01*
X151614370Y-84424406D01*
X151666263Y-84521232D01*
X151762209Y-84724290D01*
X151831238Y-84914862D01*
X151871637Y-85088082D01*
X151875539Y-85115496D01*
X151880362Y-85179250D01*
X151882931Y-85270908D01*
X151883159Y-85380097D01*
X151880956Y-85496444D01*
X151879211Y-85546817D01*
X151869870Y-85708395D01*
X151854125Y-85843441D01*
X151828991Y-85963614D01*
X151791479Y-86080568D01*
X151738604Y-86205959D01*
X151678775Y-86329020D01*
X151629726Y-86423934D01*
X151587292Y-86499120D01*
X151544517Y-86564621D01*
X151494443Y-86630478D01*
X151430113Y-86706735D01*
X151369427Y-86775556D01*
X151185637Y-86953880D01*
X150974128Y-87106734D01*
X150734317Y-87234469D01*
X150465619Y-87337430D01*
X150386116Y-87361583D01*
X150311425Y-87380199D01*
X150231512Y-87393395D01*
X150136765Y-87402240D01*
X150017568Y-87407802D01*
X149954795Y-87409486D01*
X149837348Y-87411467D01*
X149748107Y-87410721D01*
X149676985Y-87406363D01*
X149613891Y-87397511D01*
X149548738Y-87383278D01*
X149494719Y-87369157D01*
X149244771Y-87291261D01*
X149027082Y-87201186D01*
X148836798Y-87096375D01*
X148669066Y-86974273D01*
X148564462Y-86879119D01*
X148381391Y-86676379D01*
X148231290Y-86462244D01*
X148111135Y-86231216D01*
X148017899Y-85977794D01*
X147970607Y-85799793D01*
X147939593Y-85595524D01*
X147934940Y-85375847D01*
X147955603Y-85152164D01*
X148000536Y-84935878D01*
X148067797Y-84740474D01*
X148167679Y-84527234D01*
X148268914Y-84350639D01*
X148372488Y-84208995D01*
X148387663Y-84191366D01*
X148439520Y-84131182D01*
X148480073Y-84081730D01*
X148503714Y-84049977D01*
X148507474Y-84042562D01*
X148521558Y-84026266D01*
X148559806Y-83991563D01*
X148616213Y-83943709D01*
X148678093Y-83893295D01*
X148893571Y-83743347D01*
X149127951Y-83621571D01*
X149374889Y-83530249D01*
X149628042Y-83471663D01*
X149881065Y-83448097D01*
X149916455Y-83447722D01*
X150165907Y-83464826D01*
X150165907Y-83464826D01*
G37*
X150165907Y-83464826D02*
X150415624Y-83516693D01*
X150668664Y-83604156D01*
X150911187Y-83718989D01*
X150952370Y-83744390D01*
X151010305Y-83784572D01*
X151078136Y-83834234D01*
X151149004Y-83888080D01*
X151216052Y-83940811D01*
X151272424Y-83987127D01*
X151311261Y-84021732D01*
X151325707Y-84039279D01*
X151337782Y-84058890D01*
X151368884Y-84097423D01*
X151404458Y-84137836D01*
X151470157Y-84212145D01*
X151521951Y-84277223D01*
X151567478Y-84344250D01*
X151614370Y-84424406D01*
X151666263Y-84521232D01*
X151762209Y-84724290D01*
X151831238Y-84914862D01*
X151871637Y-85088082D01*
X151875539Y-85115496D01*
X151880362Y-85179250D01*
X151882931Y-85270908D01*
X151883159Y-85380097D01*
X151880956Y-85496444D01*
X151879211Y-85546817D01*
X151869870Y-85708395D01*
X151854125Y-85843441D01*
X151828991Y-85963614D01*
X151791479Y-86080568D01*
X151738604Y-86205959D01*
X151678775Y-86329020D01*
X151629726Y-86423934D01*
X151587292Y-86499120D01*
X151544517Y-86564621D01*
X151494443Y-86630478D01*
X151430113Y-86706735D01*
X151369427Y-86775556D01*
X151185637Y-86953880D01*
X150974128Y-87106734D01*
X150734317Y-87234469D01*
X150465619Y-87337430D01*
X150386116Y-87361583D01*
X150311425Y-87380199D01*
X150231512Y-87393395D01*
X150136765Y-87402240D01*
X150017568Y-87407802D01*
X149954795Y-87409486D01*
X149837348Y-87411467D01*
X149748107Y-87410721D01*
X149676985Y-87406363D01*
X149613891Y-87397511D01*
X149548738Y-87383278D01*
X149494719Y-87369157D01*
X149244771Y-87291261D01*
X149027082Y-87201186D01*
X148836798Y-87096375D01*
X148669066Y-86974273D01*
X148564462Y-86879119D01*
X148381391Y-86676379D01*
X148231290Y-86462244D01*
X148111135Y-86231216D01*
X148017899Y-85977794D01*
X147970607Y-85799793D01*
X147939593Y-85595524D01*
X147934940Y-85375847D01*
X147955603Y-85152164D01*
X148000536Y-84935878D01*
X148067797Y-84740474D01*
X148167679Y-84527234D01*
X148268914Y-84350639D01*
X148372488Y-84208995D01*
X148387663Y-84191366D01*
X148439520Y-84131182D01*
X148480073Y-84081730D01*
X148503714Y-84049977D01*
X148507474Y-84042562D01*
X148521558Y-84026266D01*
X148559806Y-83991563D01*
X148616213Y-83943709D01*
X148678093Y-83893295D01*
X148893571Y-83743347D01*
X149127951Y-83621571D01*
X149374889Y-83530249D01*
X149628042Y-83471663D01*
X149881065Y-83448097D01*
X149916455Y-83447722D01*
X150165907Y-83464826D01*
G36*
X154617633Y-87990942D02*
G01*
X154671489Y-87990968D01*
X154862781Y-87991102D01*
X155019232Y-87991598D01*
X155144340Y-87992595D01*
X155241604Y-87994230D01*
X155314520Y-87996644D01*
X155366587Y-87999974D01*
X155401303Y-88004361D01*
X155422165Y-88009942D01*
X155432673Y-88016857D01*
X155435310Y-88021290D01*
X155442782Y-88060955D01*
X155446807Y-88124718D01*
X155447660Y-88202325D01*
X155445614Y-88283527D01*
X155440943Y-88358072D01*
X155433920Y-88415708D01*
X155424818Y-88446184D01*
X155423942Y-88447209D01*
X155404367Y-88454689D01*
X155360447Y-88460555D01*
X155289409Y-88464923D01*
X155188478Y-88467911D01*
X155054883Y-88469635D01*
X154885849Y-88470212D01*
X154878044Y-88470213D01*
X154355150Y-88470213D01*
X154323497Y-88518522D01*
X154298703Y-88572675D01*
X154275029Y-88652028D01*
X154255442Y-88743481D01*
X154242904Y-88833940D01*
X154239921Y-88887772D01*
X154232234Y-88959422D01*
X154214212Y-89029105D01*
X154210493Y-89038679D01*
X154190656Y-89086638D01*
X154184439Y-89112290D01*
X154192012Y-89129232D01*
X154211862Y-89149372D01*
X154228601Y-89160442D01*
X154256991Y-89168510D01*
X154302442Y-89174013D01*
X154370364Y-89177387D01*
X154466166Y-89179068D01*
X154585294Y-89179496D01*
X154709095Y-89179758D01*
X154801878Y-89181084D01*
X154870966Y-89184289D01*
X154923680Y-89190184D01*
X154967341Y-89199582D01*
X155009271Y-89213297D01*
X155055771Y-89231721D01*
X155198861Y-89308049D01*
X155312280Y-89408006D01*
X155397331Y-89533153D01*
X155455315Y-89685047D01*
X155464364Y-89721318D01*
X155475323Y-89795292D01*
X155482316Y-89897108D01*
X155485464Y-90016620D01*
X155484887Y-90143678D01*
X155480704Y-90268134D01*
X155473036Y-90379840D01*
X155462003Y-90468647D01*
X155455141Y-90501763D01*
X155400508Y-90647062D01*
X155316707Y-90768575D01*
X155202845Y-90867187D01*
X155058029Y-90943782D01*
X154981088Y-90971766D01*
X154921451Y-90989877D01*
X154867752Y-91002747D01*
X154811532Y-91011220D01*
X154744333Y-91016138D01*
X154657699Y-91018345D01*
X154543172Y-91018683D01*
X154511428Y-91018583D01*
X154386547Y-91017482D01*
X154291966Y-91014741D01*
X154219654Y-91009582D01*
X154161581Y-91001225D01*
X154109717Y-90988892D01*
X154066719Y-90975445D01*
X153929273Y-90919846D01*
X153822777Y-90854725D01*
X153746966Y-90783777D01*
X153705562Y-90727719D01*
X153666509Y-90660500D01*
X153634674Y-90592584D01*
X153614930Y-90534435D01*
X153612145Y-90496515D01*
X153612618Y-90495124D01*
X153637354Y-90473433D01*
X153684400Y-90456636D01*
X153696693Y-90454280D01*
X153766844Y-90437617D01*
X153835014Y-90413649D01*
X153836426Y-90413029D01*
X153897037Y-90393068D01*
X153971594Y-90377324D01*
X154001396Y-90373359D01*
X154062700Y-90369557D01*
X154098823Y-90376109D01*
X154122170Y-90395796D01*
X154126256Y-90401352D01*
X154160118Y-90436250D01*
X154209546Y-90473684D01*
X154220078Y-90480356D01*
X154252895Y-90497784D01*
X154289031Y-90509465D01*
X154336766Y-90516495D01*
X154404378Y-90519972D01*
X154500147Y-90520993D01*
X154526795Y-90520996D01*
X154630141Y-90520180D01*
X154703759Y-90517189D01*
X154756248Y-90510840D01*
X154796206Y-90499951D01*
X154832233Y-90483338D01*
X154842733Y-90477530D01*
X154895432Y-90440284D01*
X154935278Y-90399197D01*
X154943092Y-90386788D01*
X154952840Y-90347709D01*
X154960223Y-90279887D01*
X154965129Y-90192852D01*
X154967448Y-90096136D01*
X154967067Y-89999269D01*
X154963876Y-89911781D01*
X154957764Y-89843203D01*
X154949862Y-89806016D01*
X154922637Y-89764251D01*
X154878252Y-89721141D01*
X154868390Y-89713712D01*
X154841607Y-89696155D01*
X154813936Y-89683818D01*
X154778292Y-89675784D01*
X154727589Y-89671138D01*
X154654742Y-89668963D01*
X154552663Y-89668345D01*
X154517210Y-89668326D01*
X154406407Y-89668544D01*
X154326829Y-89669897D01*
X154271363Y-89673438D01*
X154232896Y-89680220D01*
X154204313Y-89691293D01*
X154178500Y-89707712D01*
X154160759Y-89721043D01*
X154112335Y-89753248D01*
X154072040Y-89771898D01*
X154061666Y-89773760D01*
X154018393Y-89767962D01*
X153950335Y-89752610D01*
X153868912Y-89730765D01*
X153785544Y-89705491D01*
X153712078Y-89680012D01*
X153654950Y-89655596D01*
X153625007Y-89632258D01*
X153612508Y-89600757D01*
X153610162Y-89583316D01*
X153612592Y-89528035D01*
X153625836Y-89459639D01*
X153633683Y-89432694D01*
X153650067Y-89369479D01*
X153666410Y-89284625D01*
X153679589Y-89194710D01*
X153681359Y-89179496D01*
X153694061Y-89083461D01*
X153710600Y-88982890D01*
X153727588Y-88898214D01*
X153729052Y-88891949D01*
X153745149Y-88811088D01*
X153756259Y-88730401D01*
X153759537Y-88681081D01*
X153766153Y-88608497D01*
X153781763Y-88527623D01*
X153789556Y-88498968D01*
X153805348Y-88433782D01*
X153821125Y-88346770D01*
X153834001Y-88254338D01*
X153836342Y-88233128D01*
X153841571Y-88174012D01*
X153846138Y-88125324D01*
X153853509Y-88086058D01*
X153867148Y-88055211D01*
X153890520Y-88031777D01*
X153927088Y-88014752D01*
X153980318Y-88003132D01*
X154053672Y-87995912D01*
X154150617Y-87992087D01*
X154274616Y-87990654D01*
X154429133Y-87990607D01*
X154617633Y-87990942D01*
X154617633Y-87990942D01*
G37*
X154617633Y-87990942D02*
X154671489Y-87990968D01*
X154862781Y-87991102D01*
X155019232Y-87991598D01*
X155144340Y-87992595D01*
X155241604Y-87994230D01*
X155314520Y-87996644D01*
X155366587Y-87999974D01*
X155401303Y-88004361D01*
X155422165Y-88009942D01*
X155432673Y-88016857D01*
X155435310Y-88021290D01*
X155442782Y-88060955D01*
X155446807Y-88124718D01*
X155447660Y-88202325D01*
X155445614Y-88283527D01*
X155440943Y-88358072D01*
X155433920Y-88415708D01*
X155424818Y-88446184D01*
X155423942Y-88447209D01*
X155404367Y-88454689D01*
X155360447Y-88460555D01*
X155289409Y-88464923D01*
X155188478Y-88467911D01*
X155054883Y-88469635D01*
X154885849Y-88470212D01*
X154878044Y-88470213D01*
X154355150Y-88470213D01*
X154323497Y-88518522D01*
X154298703Y-88572675D01*
X154275029Y-88652028D01*
X154255442Y-88743481D01*
X154242904Y-88833940D01*
X154239921Y-88887772D01*
X154232234Y-88959422D01*
X154214212Y-89029105D01*
X154210493Y-89038679D01*
X154190656Y-89086638D01*
X154184439Y-89112290D01*
X154192012Y-89129232D01*
X154211862Y-89149372D01*
X154228601Y-89160442D01*
X154256991Y-89168510D01*
X154302442Y-89174013D01*
X154370364Y-89177387D01*
X154466166Y-89179068D01*
X154585294Y-89179496D01*
X154709095Y-89179758D01*
X154801878Y-89181084D01*
X154870966Y-89184289D01*
X154923680Y-89190184D01*
X154967341Y-89199582D01*
X155009271Y-89213297D01*
X155055771Y-89231721D01*
X155198861Y-89308049D01*
X155312280Y-89408006D01*
X155397331Y-89533153D01*
X155455315Y-89685047D01*
X155464364Y-89721318D01*
X155475323Y-89795292D01*
X155482316Y-89897108D01*
X155485464Y-90016620D01*
X155484887Y-90143678D01*
X155480704Y-90268134D01*
X155473036Y-90379840D01*
X155462003Y-90468647D01*
X155455141Y-90501763D01*
X155400508Y-90647062D01*
X155316707Y-90768575D01*
X155202845Y-90867187D01*
X155058029Y-90943782D01*
X154981088Y-90971766D01*
X154921451Y-90989877D01*
X154867752Y-91002747D01*
X154811532Y-91011220D01*
X154744333Y-91016138D01*
X154657699Y-91018345D01*
X154543172Y-91018683D01*
X154511428Y-91018583D01*
X154386547Y-91017482D01*
X154291966Y-91014741D01*
X154219654Y-91009582D01*
X154161581Y-91001225D01*
X154109717Y-90988892D01*
X154066719Y-90975445D01*
X153929273Y-90919846D01*
X153822777Y-90854725D01*
X153746966Y-90783777D01*
X153705562Y-90727719D01*
X153666509Y-90660500D01*
X153634674Y-90592584D01*
X153614930Y-90534435D01*
X153612145Y-90496515D01*
X153612618Y-90495124D01*
X153637354Y-90473433D01*
X153684400Y-90456636D01*
X153696693Y-90454280D01*
X153766844Y-90437617D01*
X153835014Y-90413649D01*
X153836426Y-90413029D01*
X153897037Y-90393068D01*
X153971594Y-90377324D01*
X154001396Y-90373359D01*
X154062700Y-90369557D01*
X154098823Y-90376109D01*
X154122170Y-90395796D01*
X154126256Y-90401352D01*
X154160118Y-90436250D01*
X154209546Y-90473684D01*
X154220078Y-90480356D01*
X154252895Y-90497784D01*
X154289031Y-90509465D01*
X154336766Y-90516495D01*
X154404378Y-90519972D01*
X154500147Y-90520993D01*
X154526795Y-90520996D01*
X154630141Y-90520180D01*
X154703759Y-90517189D01*
X154756248Y-90510840D01*
X154796206Y-90499951D01*
X154832233Y-90483338D01*
X154842733Y-90477530D01*
X154895432Y-90440284D01*
X154935278Y-90399197D01*
X154943092Y-90386788D01*
X154952840Y-90347709D01*
X154960223Y-90279887D01*
X154965129Y-90192852D01*
X154967448Y-90096136D01*
X154967067Y-89999269D01*
X154963876Y-89911781D01*
X154957764Y-89843203D01*
X154949862Y-89806016D01*
X154922637Y-89764251D01*
X154878252Y-89721141D01*
X154868390Y-89713712D01*
X154841607Y-89696155D01*
X154813936Y-89683818D01*
X154778292Y-89675784D01*
X154727589Y-89671138D01*
X154654742Y-89668963D01*
X154552663Y-89668345D01*
X154517210Y-89668326D01*
X154406407Y-89668544D01*
X154326829Y-89669897D01*
X154271363Y-89673438D01*
X154232896Y-89680220D01*
X154204313Y-89691293D01*
X154178500Y-89707712D01*
X154160759Y-89721043D01*
X154112335Y-89753248D01*
X154072040Y-89771898D01*
X154061666Y-89773760D01*
X154018393Y-89767962D01*
X153950335Y-89752610D01*
X153868912Y-89730765D01*
X153785544Y-89705491D01*
X153712078Y-89680012D01*
X153654950Y-89655596D01*
X153625007Y-89632258D01*
X153612508Y-89600757D01*
X153610162Y-89583316D01*
X153612592Y-89528035D01*
X153625836Y-89459639D01*
X153633683Y-89432694D01*
X153650067Y-89369479D01*
X153666410Y-89284625D01*
X153679589Y-89194710D01*
X153681359Y-89179496D01*
X153694061Y-89083461D01*
X153710600Y-88982890D01*
X153727588Y-88898214D01*
X153729052Y-88891949D01*
X153745149Y-88811088D01*
X153756259Y-88730401D01*
X153759537Y-88681081D01*
X153766153Y-88608497D01*
X153781763Y-88527623D01*
X153789556Y-88498968D01*
X153805348Y-88433782D01*
X153821125Y-88346770D01*
X153834001Y-88254338D01*
X153836342Y-88233128D01*
X153841571Y-88174012D01*
X153846138Y-88125324D01*
X153853509Y-88086058D01*
X153867148Y-88055211D01*
X153890520Y-88031777D01*
X153927088Y-88014752D01*
X153980318Y-88003132D01*
X154053672Y-87995912D01*
X154150617Y-87992087D01*
X154274616Y-87990654D01*
X154429133Y-87990607D01*
X154617633Y-87990942D01*
G36*
X152423225Y-87996061D02*
G01*
X152580794Y-88012740D01*
X152711608Y-88043103D01*
X152820866Y-88089250D01*
X152913763Y-88153278D01*
X152995496Y-88237287D01*
X153058945Y-88324250D01*
X153105612Y-88412256D01*
X153137960Y-88515079D01*
X153156959Y-88638511D01*
X153163578Y-88788343D01*
X153160594Y-88931515D01*
X153153613Y-89059423D01*
X153143446Y-89156908D01*
X153127889Y-89231872D01*
X153104743Y-89292220D01*
X153071805Y-89345856D01*
X153031323Y-89395657D01*
X152990503Y-89445651D01*
X152962764Y-89486549D01*
X152954870Y-89505787D01*
X152967551Y-89531279D01*
X153000228Y-89572409D01*
X153031165Y-89605358D01*
X153079262Y-89662209D01*
X153117365Y-89722644D01*
X153129897Y-89751669D01*
X153142685Y-89813925D01*
X153152295Y-89904830D01*
X153158613Y-90014813D01*
X153161525Y-90134307D01*
X153160916Y-90253743D01*
X153156673Y-90363550D01*
X153148681Y-90454162D01*
X153138936Y-90508633D01*
X153082796Y-90648776D01*
X152994741Y-90771998D01*
X152879016Y-90874125D01*
X152739866Y-90950984D01*
X152660182Y-90979424D01*
X152601155Y-90995247D01*
X152542761Y-91006355D01*
X152476526Y-91013482D01*
X152393979Y-91017361D01*
X152286647Y-91018725D01*
X152207248Y-91018644D01*
X152083350Y-91017515D01*
X151989670Y-91014735D01*
X151918097Y-91009500D01*
X151860517Y-91001007D01*
X151808820Y-90988453D01*
X151766342Y-90974979D01*
X151629174Y-90918400D01*
X151521090Y-90848767D01*
X151433213Y-90758385D01*
X151356663Y-90639558D01*
X151337741Y-90603492D01*
X151300208Y-90518919D01*
X151288572Y-90458946D01*
X151304510Y-90418450D01*
X151349700Y-90392312D01*
X151411701Y-90377669D01*
X151473892Y-90364016D01*
X151551026Y-90342911D01*
X151599402Y-90327780D01*
X151677199Y-90306579D01*
X151732491Y-90306628D01*
X151776433Y-90330823D01*
X151820181Y-90382062D01*
X151822861Y-90385804D01*
X151866996Y-90439657D01*
X151915138Y-90477457D01*
X151974940Y-90501816D01*
X152054054Y-90515346D01*
X152160134Y-90520661D01*
X152219095Y-90521067D01*
X152320062Y-90520118D01*
X152391683Y-90516740D01*
X152442936Y-90509648D01*
X152482799Y-90497558D01*
X152520247Y-90479184D01*
X152523186Y-90477530D01*
X152573533Y-90444472D01*
X152608379Y-90407114D01*
X152630468Y-90357907D01*
X152642541Y-90289306D01*
X152647342Y-90193764D01*
X152647871Y-90134442D01*
X152646544Y-90024371D01*
X152640758Y-89944894D01*
X152628338Y-89888336D01*
X152607107Y-89847019D01*
X152574887Y-89813267D01*
X152551667Y-89795127D01*
X152515879Y-89772970D01*
X152474082Y-89757854D01*
X152416672Y-89747619D01*
X152334045Y-89740111D01*
X152295569Y-89737617D01*
X152101814Y-89725836D01*
X152101814Y-89265760D01*
X152303978Y-89256175D01*
X152397519Y-89250815D01*
X152461877Y-89243938D01*
X152506204Y-89233533D01*
X152539653Y-89217590D01*
X152565766Y-89198666D01*
X152598223Y-89170202D01*
X152620761Y-89140970D01*
X152635189Y-89103537D01*
X152643313Y-89050471D01*
X152646941Y-88974337D01*
X152647882Y-88867704D01*
X152647892Y-88860987D01*
X152647156Y-88764426D01*
X152643853Y-88697854D01*
X152636761Y-88652944D01*
X152624657Y-88621367D01*
X152609377Y-88598616D01*
X152547327Y-88546904D01*
X152457313Y-88507483D01*
X152348143Y-88481795D01*
X152228628Y-88471286D01*
X152107575Y-88477401D01*
X152002107Y-88499043D01*
X151927390Y-88529642D01*
X151866869Y-88577482D01*
X151834401Y-88614062D01*
X151783206Y-88667780D01*
X151733521Y-88695275D01*
X151675531Y-88698231D01*
X151599420Y-88678333D01*
X151555474Y-88661911D01*
X151487193Y-88639623D01*
X151422239Y-88625795D01*
X151395655Y-88623572D01*
X151330714Y-88611747D01*
X151294122Y-88577860D01*
X151287097Y-88545026D01*
X151299910Y-88488429D01*
X151334495Y-88414492D01*
X151385068Y-88332533D01*
X151445846Y-88251871D01*
X151511045Y-88181823D01*
X151514567Y-88178534D01*
X151588549Y-88117328D01*
X151665918Y-88070322D01*
X151752900Y-88035892D01*
X151855722Y-88012414D01*
X151980611Y-87998264D01*
X152133793Y-87991818D01*
X152233706Y-87990968D01*
X152423225Y-87996061D01*
X152423225Y-87996061D01*
G37*
X152423225Y-87996061D02*
X152580794Y-88012740D01*
X152711608Y-88043103D01*
X152820866Y-88089250D01*
X152913763Y-88153278D01*
X152995496Y-88237287D01*
X153058945Y-88324250D01*
X153105612Y-88412256D01*
X153137960Y-88515079D01*
X153156959Y-88638511D01*
X153163578Y-88788343D01*
X153160594Y-88931515D01*
X153153613Y-89059423D01*
X153143446Y-89156908D01*
X153127889Y-89231872D01*
X153104743Y-89292220D01*
X153071805Y-89345856D01*
X153031323Y-89395657D01*
X152990503Y-89445651D01*
X152962764Y-89486549D01*
X152954870Y-89505787D01*
X152967551Y-89531279D01*
X153000228Y-89572409D01*
X153031165Y-89605358D01*
X153079262Y-89662209D01*
X153117365Y-89722644D01*
X153129897Y-89751669D01*
X153142685Y-89813925D01*
X153152295Y-89904830D01*
X153158613Y-90014813D01*
X153161525Y-90134307D01*
X153160916Y-90253743D01*
X153156673Y-90363550D01*
X153148681Y-90454162D01*
X153138936Y-90508633D01*
X153082796Y-90648776D01*
X152994741Y-90771998D01*
X152879016Y-90874125D01*
X152739866Y-90950984D01*
X152660182Y-90979424D01*
X152601155Y-90995247D01*
X152542761Y-91006355D01*
X152476526Y-91013482D01*
X152393979Y-91017361D01*
X152286647Y-91018725D01*
X152207248Y-91018644D01*
X152083350Y-91017515D01*
X151989670Y-91014735D01*
X151918097Y-91009500D01*
X151860517Y-91001007D01*
X151808820Y-90988453D01*
X151766342Y-90974979D01*
X151629174Y-90918400D01*
X151521090Y-90848767D01*
X151433213Y-90758385D01*
X151356663Y-90639558D01*
X151337741Y-90603492D01*
X151300208Y-90518919D01*
X151288572Y-90458946D01*
X151304510Y-90418450D01*
X151349700Y-90392312D01*
X151411701Y-90377669D01*
X151473892Y-90364016D01*
X151551026Y-90342911D01*
X151599402Y-90327780D01*
X151677199Y-90306579D01*
X151732491Y-90306628D01*
X151776433Y-90330823D01*
X151820181Y-90382062D01*
X151822861Y-90385804D01*
X151866996Y-90439657D01*
X151915138Y-90477457D01*
X151974940Y-90501816D01*
X152054054Y-90515346D01*
X152160134Y-90520661D01*
X152219095Y-90521067D01*
X152320062Y-90520118D01*
X152391683Y-90516740D01*
X152442936Y-90509648D01*
X152482799Y-90497558D01*
X152520247Y-90479184D01*
X152523186Y-90477530D01*
X152573533Y-90444472D01*
X152608379Y-90407114D01*
X152630468Y-90357907D01*
X152642541Y-90289306D01*
X152647342Y-90193764D01*
X152647871Y-90134442D01*
X152646544Y-90024371D01*
X152640758Y-89944894D01*
X152628338Y-89888336D01*
X152607107Y-89847019D01*
X152574887Y-89813267D01*
X152551667Y-89795127D01*
X152515879Y-89772970D01*
X152474082Y-89757854D01*
X152416672Y-89747619D01*
X152334045Y-89740111D01*
X152295569Y-89737617D01*
X152101814Y-89725836D01*
X152101814Y-89265760D01*
X152303978Y-89256175D01*
X152397519Y-89250815D01*
X152461877Y-89243938D01*
X152506204Y-89233533D01*
X152539653Y-89217590D01*
X152565766Y-89198666D01*
X152598223Y-89170202D01*
X152620761Y-89140970D01*
X152635189Y-89103537D01*
X152643313Y-89050471D01*
X152646941Y-88974337D01*
X152647882Y-88867704D01*
X152647892Y-88860987D01*
X152647156Y-88764426D01*
X152643853Y-88697854D01*
X152636761Y-88652944D01*
X152624657Y-88621367D01*
X152609377Y-88598616D01*
X152547327Y-88546904D01*
X152457313Y-88507483D01*
X152348143Y-88481795D01*
X152228628Y-88471286D01*
X152107575Y-88477401D01*
X152002107Y-88499043D01*
X151927390Y-88529642D01*
X151866869Y-88577482D01*
X151834401Y-88614062D01*
X151783206Y-88667780D01*
X151733521Y-88695275D01*
X151675531Y-88698231D01*
X151599420Y-88678333D01*
X151555474Y-88661911D01*
X151487193Y-88639623D01*
X151422239Y-88625795D01*
X151395655Y-88623572D01*
X151330714Y-88611747D01*
X151294122Y-88577860D01*
X151287097Y-88545026D01*
X151299910Y-88488429D01*
X151334495Y-88414492D01*
X151385068Y-88332533D01*
X151445846Y-88251871D01*
X151511045Y-88181823D01*
X151514567Y-88178534D01*
X151588549Y-88117328D01*
X151665918Y-88070322D01*
X151752900Y-88035892D01*
X151855722Y-88012414D01*
X151980611Y-87998264D01*
X152133793Y-87991818D01*
X152233706Y-87990968D01*
X152423225Y-87996061D01*
G36*
X150359530Y-87992458D02*
G01*
X150437704Y-87996587D01*
X150490406Y-88002840D01*
X150510669Y-88010056D01*
X150513034Y-88032566D01*
X150515173Y-88089542D01*
X150517043Y-88177112D01*
X150518601Y-88291402D01*
X150519803Y-88428541D01*
X150520605Y-88584655D01*
X150520964Y-88755872D01*
X150520873Y-88920109D01*
X150520545Y-89128047D01*
X150520462Y-89301036D01*
X150520760Y-89442467D01*
X150521574Y-89555732D01*
X150523041Y-89644221D01*
X150525297Y-89711324D01*
X150528477Y-89760433D01*
X150532718Y-89794939D01*
X150538154Y-89818233D01*
X150544922Y-89833705D01*
X150553159Y-89844746D01*
X150558131Y-89849927D01*
X150599894Y-89876875D01*
X150661309Y-89887971D01*
X150692158Y-89888779D01*
X150754839Y-89892450D01*
X150790601Y-89905811D01*
X150807177Y-89925858D01*
X150817431Y-89964411D01*
X150823963Y-90027669D01*
X150826853Y-90105085D01*
X150826181Y-90186115D01*
X150822026Y-90260212D01*
X150814467Y-90316832D01*
X150804018Y-90345021D01*
X150772703Y-90358183D01*
X150717999Y-90366508D01*
X150680783Y-90368024D01*
X150621987Y-90369695D01*
X150579454Y-90378244D01*
X150550637Y-90398976D01*
X150532985Y-90437195D01*
X150523952Y-90498206D01*
X150520989Y-90587315D01*
X150521444Y-90699709D01*
X150522044Y-90808068D01*
X150520841Y-90884487D01*
X150517150Y-90935350D01*
X150510285Y-90967041D01*
X150499564Y-90985944D01*
X150489815Y-90994682D01*
X150450777Y-91008260D01*
X150377111Y-91016561D01*
X150267232Y-91019750D01*
X150248938Y-91019798D01*
X150156922Y-91019220D01*
X150095781Y-91016610D01*
X150058059Y-91010658D01*
X150036297Y-91000051D01*
X150023038Y-90983476D01*
X150020942Y-90979688D01*
X150011440Y-90939709D01*
X150005871Y-90864228D01*
X150004366Y-90755894D01*
X150005563Y-90672070D01*
X150007391Y-90562152D01*
X150006740Y-90484657D01*
X150003152Y-90433719D01*
X149996168Y-90403474D01*
X149985329Y-90388058D01*
X149983222Y-90386586D01*
X149956821Y-90381641D01*
X149897440Y-90377206D01*
X149810436Y-90373469D01*
X149701165Y-90370618D01*
X149574986Y-90368841D01*
X149463223Y-90368318D01*
X149311478Y-90367987D01*
X149193738Y-90367022D01*
X149105670Y-90365160D01*
X149042941Y-90362136D01*
X149001219Y-90357687D01*
X148976172Y-90351550D01*
X148963465Y-90343461D01*
X148960016Y-90337702D01*
X148953503Y-90299821D01*
X148949684Y-90234347D01*
X148948389Y-90151652D01*
X148949449Y-90062106D01*
X148952696Y-89976081D01*
X148957961Y-89903947D01*
X148965075Y-89856076D01*
X148968005Y-89846895D01*
X148990554Y-89801738D01*
X148994039Y-89795461D01*
X149547552Y-89795461D01*
X149550317Y-89844536D01*
X149565648Y-89865775D01*
X149597118Y-89878048D01*
X149655505Y-89885978D01*
X149730202Y-89889663D01*
X149810603Y-89889200D01*
X149886100Y-89884687D01*
X149946088Y-89876222D01*
X149979959Y-89863902D01*
X149981954Y-89861947D01*
X149991469Y-89830479D01*
X149999302Y-89761539D01*
X150005391Y-89655961D01*
X150009676Y-89514577D01*
X150010457Y-89473758D01*
X150011909Y-89317795D01*
X150009807Y-89198550D01*
X150003513Y-89114511D01*
X149992392Y-89064168D01*
X149975805Y-89046010D01*
X149953115Y-89058525D01*
X149923685Y-89100203D01*
X149886877Y-89169533D01*
X149884340Y-89174704D01*
X149846221Y-89249860D01*
X149796987Y-89343043D01*
X149744713Y-89439086D01*
X149720195Y-89483023D01*
X149678897Y-89557334D01*
X149645693Y-89619092D01*
X149624523Y-89660841D01*
X149618897Y-89674721D01*
X149607897Y-89697319D01*
X149581925Y-89734213D01*
X149580984Y-89735421D01*
X149547552Y-89795461D01*
X148994039Y-89795461D01*
X149022019Y-89745065D01*
X149030307Y-89730970D01*
X149056331Y-89686513D01*
X149096492Y-89616940D01*
X149146076Y-89530515D01*
X149200366Y-89435506D01*
X149254647Y-89340178D01*
X149304204Y-89252800D01*
X149344320Y-89181635D01*
X149369766Y-89135893D01*
X149392311Y-89095397D01*
X149428537Y-89031131D01*
X149474944Y-88949232D01*
X149528030Y-88855839D01*
X149584293Y-88757087D01*
X149640231Y-88659116D01*
X149692343Y-88568063D01*
X149737127Y-88490064D01*
X149771081Y-88431258D01*
X149790704Y-88397783D01*
X149793313Y-88393534D01*
X149815856Y-88354418D01*
X149835385Y-88316855D01*
X149856274Y-88278092D01*
X149890607Y-88217998D01*
X149931846Y-88147964D01*
X149942643Y-88129949D01*
X150026259Y-87990968D01*
X150262565Y-87990968D01*
X150359530Y-87992458D01*
X150359530Y-87992458D01*
G37*
X150359530Y-87992458D02*
X150437704Y-87996587D01*
X150490406Y-88002840D01*
X150510669Y-88010056D01*
X150513034Y-88032566D01*
X150515173Y-88089542D01*
X150517043Y-88177112D01*
X150518601Y-88291402D01*
X150519803Y-88428541D01*
X150520605Y-88584655D01*
X150520964Y-88755872D01*
X150520873Y-88920109D01*
X150520545Y-89128047D01*
X150520462Y-89301036D01*
X150520760Y-89442467D01*
X150521574Y-89555732D01*
X150523041Y-89644221D01*
X150525297Y-89711324D01*
X150528477Y-89760433D01*
X150532718Y-89794939D01*
X150538154Y-89818233D01*
X150544922Y-89833705D01*
X150553159Y-89844746D01*
X150558131Y-89849927D01*
X150599894Y-89876875D01*
X150661309Y-89887971D01*
X150692158Y-89888779D01*
X150754839Y-89892450D01*
X150790601Y-89905811D01*
X150807177Y-89925858D01*
X150817431Y-89964411D01*
X150823963Y-90027669D01*
X150826853Y-90105085D01*
X150826181Y-90186115D01*
X150822026Y-90260212D01*
X150814467Y-90316832D01*
X150804018Y-90345021D01*
X150772703Y-90358183D01*
X150717999Y-90366508D01*
X150680783Y-90368024D01*
X150621987Y-90369695D01*
X150579454Y-90378244D01*
X150550637Y-90398976D01*
X150532985Y-90437195D01*
X150523952Y-90498206D01*
X150520989Y-90587315D01*
X150521444Y-90699709D01*
X150522044Y-90808068D01*
X150520841Y-90884487D01*
X150517150Y-90935350D01*
X150510285Y-90967041D01*
X150499564Y-90985944D01*
X150489815Y-90994682D01*
X150450777Y-91008260D01*
X150377111Y-91016561D01*
X150267232Y-91019750D01*
X150248938Y-91019798D01*
X150156922Y-91019220D01*
X150095781Y-91016610D01*
X150058059Y-91010658D01*
X150036297Y-91000051D01*
X150023038Y-90983476D01*
X150020942Y-90979688D01*
X150011440Y-90939709D01*
X150005871Y-90864228D01*
X150004366Y-90755894D01*
X150005563Y-90672070D01*
X150007391Y-90562152D01*
X150006740Y-90484657D01*
X150003152Y-90433719D01*
X149996168Y-90403474D01*
X149985329Y-90388058D01*
X149983222Y-90386586D01*
X149956821Y-90381641D01*
X149897440Y-90377206D01*
X149810436Y-90373469D01*
X149701165Y-90370618D01*
X149574986Y-90368841D01*
X149463223Y-90368318D01*
X149311478Y-90367987D01*
X149193738Y-90367022D01*
X149105670Y-90365160D01*
X149042941Y-90362136D01*
X149001219Y-90357687D01*
X148976172Y-90351550D01*
X148963465Y-90343461D01*
X148960016Y-90337702D01*
X148953503Y-90299821D01*
X148949684Y-90234347D01*
X148948389Y-90151652D01*
X148949449Y-90062106D01*
X148952696Y-89976081D01*
X148957961Y-89903947D01*
X148965075Y-89856076D01*
X148968005Y-89846895D01*
X148990554Y-89801738D01*
X148994039Y-89795461D01*
X149547552Y-89795461D01*
X149550317Y-89844536D01*
X149565648Y-89865775D01*
X149597118Y-89878048D01*
X149655505Y-89885978D01*
X149730202Y-89889663D01*
X149810603Y-89889200D01*
X149886100Y-89884687D01*
X149946088Y-89876222D01*
X149979959Y-89863902D01*
X149981954Y-89861947D01*
X149991469Y-89830479D01*
X149999302Y-89761539D01*
X150005391Y-89655961D01*
X150009676Y-89514577D01*
X150010457Y-89473758D01*
X150011909Y-89317795D01*
X150009807Y-89198550D01*
X150003513Y-89114511D01*
X149992392Y-89064168D01*
X149975805Y-89046010D01*
X149953115Y-89058525D01*
X149923685Y-89100203D01*
X149886877Y-89169533D01*
X149884340Y-89174704D01*
X149846221Y-89249860D01*
X149796987Y-89343043D01*
X149744713Y-89439086D01*
X149720195Y-89483023D01*
X149678897Y-89557334D01*
X149645693Y-89619092D01*
X149624523Y-89660841D01*
X149618897Y-89674721D01*
X149607897Y-89697319D01*
X149581925Y-89734213D01*
X149580984Y-89735421D01*
X149547552Y-89795461D01*
X148994039Y-89795461D01*
X149022019Y-89745065D01*
X149030307Y-89730970D01*
X149056331Y-89686513D01*
X149096492Y-89616940D01*
X149146076Y-89530515D01*
X149200366Y-89435506D01*
X149254647Y-89340178D01*
X149304204Y-89252800D01*
X149344320Y-89181635D01*
X149369766Y-89135893D01*
X149392311Y-89095397D01*
X149428537Y-89031131D01*
X149474944Y-88949232D01*
X149528030Y-88855839D01*
X149584293Y-88757087D01*
X149640231Y-88659116D01*
X149692343Y-88568063D01*
X149737127Y-88490064D01*
X149771081Y-88431258D01*
X149790704Y-88397783D01*
X149793313Y-88393534D01*
X149815856Y-88354418D01*
X149835385Y-88316855D01*
X149856274Y-88278092D01*
X149890607Y-88217998D01*
X149931846Y-88147964D01*
X149942643Y-88129949D01*
X150026259Y-87990968D01*
X150262565Y-87990968D01*
X150359530Y-87992458D01*
G36*
X147637567Y-87993785D02*
G01*
X147770878Y-87998846D01*
X147892670Y-88008325D01*
X147993165Y-88022067D01*
X148046904Y-88034532D01*
X148195518Y-88098487D01*
X148320230Y-88192149D01*
X148419851Y-88314342D01*
X148493193Y-88463885D01*
X148500416Y-88484330D01*
X148516578Y-88550540D01*
X148507292Y-88592654D01*
X148468069Y-88617913D01*
X148409251Y-88631313D01*
X148344828Y-88646026D01*
X148287665Y-88666019D01*
X148280217Y-88669555D01*
X148229454Y-88688277D01*
X148162961Y-88704393D01*
X148139352Y-88708386D01*
X148083876Y-88714695D01*
X148050933Y-88708216D01*
X148025196Y-88682195D01*
X148002978Y-88648292D01*
X147964848Y-88592561D01*
X147928368Y-88555786D01*
X147880613Y-88527996D01*
X147810801Y-88500008D01*
X147747077Y-88481418D01*
X147676725Y-88472736D01*
X147586284Y-88472612D01*
X147552009Y-88474104D01*
X147416472Y-88489515D01*
X147312038Y-88521508D01*
X147234425Y-88571911D01*
X147186689Y-88630031D01*
X147176851Y-88647035D01*
X147168761Y-88665664D01*
X147162247Y-88689613D01*
X147157140Y-88722579D01*
X147153268Y-88768259D01*
X147150461Y-88830348D01*
X147148547Y-88912543D01*
X147147357Y-89018540D01*
X147146719Y-89152036D01*
X147146463Y-89316727D01*
X147146418Y-89501757D01*
X147146478Y-89699013D01*
X147146773Y-89861635D01*
X147147468Y-89993329D01*
X147148733Y-90097799D01*
X147150734Y-90178752D01*
X147153639Y-90239892D01*
X147157617Y-90284926D01*
X147162833Y-90317559D01*
X147169457Y-90341496D01*
X147177657Y-90360443D01*
X147185948Y-90375323D01*
X147225194Y-90431463D01*
X147270855Y-90471591D01*
X147329800Y-90498160D01*
X147408900Y-90513623D01*
X147515027Y-90520431D01*
X147595128Y-90521383D01*
X147694367Y-90521003D01*
X147763733Y-90518866D01*
X147811688Y-90513469D01*
X147846697Y-90503315D01*
X147877225Y-90486903D01*
X147907082Y-90466109D01*
X147958652Y-90420062D01*
X147998648Y-90369216D01*
X148008133Y-90351090D01*
X148028770Y-90314447D01*
X148057581Y-90295781D01*
X148101933Y-90294333D01*
X148169193Y-90309344D01*
X148230582Y-90328181D01*
X148304965Y-90350393D01*
X148376342Y-90368743D01*
X148414491Y-90376613D01*
X148474822Y-90391928D01*
X148506425Y-90417620D01*
X148512589Y-90460992D01*
X148496608Y-90529350D01*
X148491073Y-90546575D01*
X148425596Y-90685433D01*
X148328832Y-90804899D01*
X148204487Y-90901248D01*
X148076153Y-90963595D01*
X148030291Y-90979334D01*
X147983983Y-90991010D01*
X147930107Y-90999370D01*
X147861537Y-91005163D01*
X147771149Y-91009134D01*
X147651819Y-91012033D01*
X147606493Y-91012853D01*
X147480907Y-91014804D01*
X147386368Y-91015270D01*
X147315588Y-91013572D01*
X147261283Y-91009031D01*
X147216166Y-91000967D01*
X147172954Y-90988700D01*
X147124359Y-90971551D01*
X147111145Y-90966656D01*
X146975796Y-90898008D01*
X146853421Y-90800792D01*
X146753068Y-90683331D01*
X146697224Y-90585923D01*
X146648002Y-90478410D01*
X146648002Y-88545737D01*
X146697607Y-88426503D01*
X146775540Y-88286172D01*
X146881466Y-88171868D01*
X147014738Y-88084131D01*
X147174712Y-88023497D01*
X147184757Y-88020834D01*
X147266334Y-88006667D01*
X147375515Y-87997540D01*
X147502519Y-87993298D01*
X147637567Y-87993785D01*
X147637567Y-87993785D01*
G37*
X147637567Y-87993785D02*
X147770878Y-87998846D01*
X147892670Y-88008325D01*
X147993165Y-88022067D01*
X148046904Y-88034532D01*
X148195518Y-88098487D01*
X148320230Y-88192149D01*
X148419851Y-88314342D01*
X148493193Y-88463885D01*
X148500416Y-88484330D01*
X148516578Y-88550540D01*
X148507292Y-88592654D01*
X148468069Y-88617913D01*
X148409251Y-88631313D01*
X148344828Y-88646026D01*
X148287665Y-88666019D01*
X148280217Y-88669555D01*
X148229454Y-88688277D01*
X148162961Y-88704393D01*
X148139352Y-88708386D01*
X148083876Y-88714695D01*
X148050933Y-88708216D01*
X148025196Y-88682195D01*
X148002978Y-88648292D01*
X147964848Y-88592561D01*
X147928368Y-88555786D01*
X147880613Y-88527996D01*
X147810801Y-88500008D01*
X147747077Y-88481418D01*
X147676725Y-88472736D01*
X147586284Y-88472612D01*
X147552009Y-88474104D01*
X147416472Y-88489515D01*
X147312038Y-88521508D01*
X147234425Y-88571911D01*
X147186689Y-88630031D01*
X147176851Y-88647035D01*
X147168761Y-88665664D01*
X147162247Y-88689613D01*
X147157140Y-88722579D01*
X147153268Y-88768259D01*
X147150461Y-88830348D01*
X147148547Y-88912543D01*
X147147357Y-89018540D01*
X147146719Y-89152036D01*
X147146463Y-89316727D01*
X147146418Y-89501757D01*
X147146478Y-89699013D01*
X147146773Y-89861635D01*
X147147468Y-89993329D01*
X147148733Y-90097799D01*
X147150734Y-90178752D01*
X147153639Y-90239892D01*
X147157617Y-90284926D01*
X147162833Y-90317559D01*
X147169457Y-90341496D01*
X147177657Y-90360443D01*
X147185948Y-90375323D01*
X147225194Y-90431463D01*
X147270855Y-90471591D01*
X147329800Y-90498160D01*
X147408900Y-90513623D01*
X147515027Y-90520431D01*
X147595128Y-90521383D01*
X147694367Y-90521003D01*
X147763733Y-90518866D01*
X147811688Y-90513469D01*
X147846697Y-90503315D01*
X147877225Y-90486903D01*
X147907082Y-90466109D01*
X147958652Y-90420062D01*
X147998648Y-90369216D01*
X148008133Y-90351090D01*
X148028770Y-90314447D01*
X148057581Y-90295781D01*
X148101933Y-90294333D01*
X148169193Y-90309344D01*
X148230582Y-90328181D01*
X148304965Y-90350393D01*
X148376342Y-90368743D01*
X148414491Y-90376613D01*
X148474822Y-90391928D01*
X148506425Y-90417620D01*
X148512589Y-90460992D01*
X148496608Y-90529350D01*
X148491073Y-90546575D01*
X148425596Y-90685433D01*
X148328832Y-90804899D01*
X148204487Y-90901248D01*
X148076153Y-90963595D01*
X148030291Y-90979334D01*
X147983983Y-90991010D01*
X147930107Y-90999370D01*
X147861537Y-91005163D01*
X147771149Y-91009134D01*
X147651819Y-91012033D01*
X147606493Y-91012853D01*
X147480907Y-91014804D01*
X147386368Y-91015270D01*
X147315588Y-91013572D01*
X147261283Y-91009031D01*
X147216166Y-91000967D01*
X147172954Y-90988700D01*
X147124359Y-90971551D01*
X147111145Y-90966656D01*
X146975796Y-90898008D01*
X146853421Y-90800792D01*
X146753068Y-90683331D01*
X146697224Y-90585923D01*
X146648002Y-90478410D01*
X146648002Y-88545737D01*
X146697607Y-88426503D01*
X146775540Y-88286172D01*
X146881466Y-88171868D01*
X147014738Y-88084131D01*
X147174712Y-88023497D01*
X147184757Y-88020834D01*
X147266334Y-88006667D01*
X147375515Y-87997540D01*
X147502519Y-87993298D01*
X147637567Y-87993785D01*
G36*
X145054850Y-87991044D02*
G01*
X145190730Y-87991481D01*
X145298099Y-87992595D01*
X145381869Y-87994699D01*
X145446955Y-87998110D01*
X145498271Y-88003140D01*
X145540729Y-88010106D01*
X145579245Y-88019321D01*
X145618731Y-88031100D01*
X145645196Y-88039615D01*
X145797592Y-88102757D01*
X145918056Y-88184295D01*
X146009909Y-88287557D01*
X146076474Y-88415872D01*
X146103685Y-88498968D01*
X146110528Y-88543986D01*
X146116437Y-88622484D01*
X146121415Y-88729611D01*
X146125461Y-88860518D01*
X146128577Y-89010356D01*
X146130763Y-89174276D01*
X146132021Y-89347428D01*
X146132351Y-89524963D01*
X146131754Y-89702031D01*
X146130232Y-89873784D01*
X146127785Y-90035372D01*
X146124414Y-90181946D01*
X146120120Y-90308655D01*
X146114904Y-90410652D01*
X146108767Y-90483087D01*
X146103298Y-90516106D01*
X146049365Y-90655177D01*
X145966852Y-90771657D01*
X145854208Y-90866991D01*
X145709881Y-90942626D01*
X145606021Y-90979585D01*
X145566148Y-90991042D01*
X145526551Y-91000093D01*
X145482245Y-91007012D01*
X145428243Y-91012075D01*
X145359560Y-91015556D01*
X145271208Y-91017730D01*
X145158202Y-91018872D01*
X145015555Y-91019257D01*
X144887153Y-91019215D01*
X144711517Y-91018395D01*
X144560989Y-91016367D01*
X144438313Y-91013220D01*
X144346235Y-91009042D01*
X144287498Y-91003922D01*
X144266153Y-90999093D01*
X144250757Y-90984852D01*
X144240835Y-90958814D01*
X144235266Y-90913666D01*
X144232927Y-90842095D01*
X144232606Y-90780592D01*
X144235272Y-90672352D01*
X144244361Y-90597242D01*
X144261514Y-90550351D01*
X144288370Y-90526770D01*
X144319153Y-90521383D01*
X144348869Y-90507014D01*
X144375293Y-90478778D01*
X144382186Y-90465114D01*
X144387946Y-90443372D01*
X144392671Y-90410341D01*
X144396456Y-90362812D01*
X144399399Y-90297573D01*
X144401595Y-90211414D01*
X144403142Y-90101126D01*
X144404136Y-89963497D01*
X144404673Y-89795318D01*
X144404851Y-89593377D01*
X144404849Y-89566403D01*
X144901235Y-89566403D01*
X144901852Y-89735565D01*
X144903104Y-89898430D01*
X144904989Y-90050533D01*
X144907506Y-90187411D01*
X144910654Y-90304601D01*
X144914433Y-90397640D01*
X144918842Y-90462065D01*
X144923878Y-90493412D01*
X144924838Y-90495181D01*
X144945628Y-90507015D01*
X144988261Y-90514977D01*
X145057843Y-90519578D01*
X145159481Y-90521329D01*
X145186389Y-90521383D01*
X145290048Y-90520639D01*
X145363567Y-90517691D01*
X145415130Y-90511468D01*
X145452918Y-90500895D01*
X145485117Y-90484899D01*
X145490773Y-90481471D01*
X145519029Y-90464261D01*
X145542558Y-90448348D01*
X145561791Y-90430266D01*
X145577160Y-90406550D01*
X145589097Y-90373734D01*
X145598034Y-90328353D01*
X145604403Y-90266940D01*
X145608636Y-90186030D01*
X145611165Y-90082158D01*
X145612422Y-89951858D01*
X145612838Y-89791664D01*
X145612847Y-89598112D01*
X145612833Y-89502186D01*
X145612833Y-88644879D01*
X145568715Y-88593589D01*
X145499746Y-88537066D01*
X145403859Y-88498233D01*
X145278198Y-88476264D01*
X145140727Y-88470229D01*
X145042012Y-88471918D01*
X144976081Y-88477451D01*
X144937513Y-88487498D01*
X144924391Y-88496954D01*
X144919254Y-88521955D01*
X144914760Y-88580826D01*
X144910909Y-88669106D01*
X144907699Y-88782330D01*
X144905130Y-88916035D01*
X144903200Y-89065758D01*
X144901908Y-89227036D01*
X144901253Y-89395405D01*
X144901235Y-89566403D01*
X144404849Y-89566403D01*
X144404841Y-89496325D01*
X144404431Y-89301579D01*
X144403370Y-89120947D01*
X144401722Y-88957913D01*
X144399550Y-88815960D01*
X144396919Y-88698573D01*
X144393892Y-88609235D01*
X144390534Y-88551429D01*
X144387080Y-88528870D01*
X144358687Y-88502461D01*
X144312331Y-88474352D01*
X144305902Y-88471225D01*
X144242191Y-88441187D01*
X144236706Y-88242838D01*
X144236146Y-88133372D01*
X144241357Y-88058318D01*
X144252213Y-88019367D01*
X144253431Y-88017729D01*
X144265945Y-88010078D01*
X144291883Y-88003971D01*
X144334940Y-87999251D01*
X144398809Y-87995761D01*
X144487184Y-87993346D01*
X144603760Y-87991849D01*
X144752231Y-87991114D01*
X144885543Y-87990968D01*
X145054850Y-87991044D01*
X145054850Y-87991044D01*
G37*
X145054850Y-87991044D02*
X145190730Y-87991481D01*
X145298099Y-87992595D01*
X145381869Y-87994699D01*
X145446955Y-87998110D01*
X145498271Y-88003140D01*
X145540729Y-88010106D01*
X145579245Y-88019321D01*
X145618731Y-88031100D01*
X145645196Y-88039615D01*
X145797592Y-88102757D01*
X145918056Y-88184295D01*
X146009909Y-88287557D01*
X146076474Y-88415872D01*
X146103685Y-88498968D01*
X146110528Y-88543986D01*
X146116437Y-88622484D01*
X146121415Y-88729611D01*
X146125461Y-88860518D01*
X146128577Y-89010356D01*
X146130763Y-89174276D01*
X146132021Y-89347428D01*
X146132351Y-89524963D01*
X146131754Y-89702031D01*
X146130232Y-89873784D01*
X146127785Y-90035372D01*
X146124414Y-90181946D01*
X146120120Y-90308655D01*
X146114904Y-90410652D01*
X146108767Y-90483087D01*
X146103298Y-90516106D01*
X146049365Y-90655177D01*
X145966852Y-90771657D01*
X145854208Y-90866991D01*
X145709881Y-90942626D01*
X145606021Y-90979585D01*
X145566148Y-90991042D01*
X145526551Y-91000093D01*
X145482245Y-91007012D01*
X145428243Y-91012075D01*
X145359560Y-91015556D01*
X145271208Y-91017730D01*
X145158202Y-91018872D01*
X145015555Y-91019257D01*
X144887153Y-91019215D01*
X144711517Y-91018395D01*
X144560989Y-91016367D01*
X144438313Y-91013220D01*
X144346235Y-91009042D01*
X144287498Y-91003922D01*
X144266153Y-90999093D01*
X144250757Y-90984852D01*
X144240835Y-90958814D01*
X144235266Y-90913666D01*
X144232927Y-90842095D01*
X144232606Y-90780592D01*
X144235272Y-90672352D01*
X144244361Y-90597242D01*
X144261514Y-90550351D01*
X144288370Y-90526770D01*
X144319153Y-90521383D01*
X144348869Y-90507014D01*
X144375293Y-90478778D01*
X144382186Y-90465114D01*
X144387946Y-90443372D01*
X144392671Y-90410341D01*
X144396456Y-90362812D01*
X144399399Y-90297573D01*
X144401595Y-90211414D01*
X144403142Y-90101126D01*
X144404136Y-89963497D01*
X144404673Y-89795318D01*
X144404851Y-89593377D01*
X144404849Y-89566403D01*
X144901235Y-89566403D01*
X144901852Y-89735565D01*
X144903104Y-89898430D01*
X144904989Y-90050533D01*
X144907506Y-90187411D01*
X144910654Y-90304601D01*
X144914433Y-90397640D01*
X144918842Y-90462065D01*
X144923878Y-90493412D01*
X144924838Y-90495181D01*
X144945628Y-90507015D01*
X144988261Y-90514977D01*
X145057843Y-90519578D01*
X145159481Y-90521329D01*
X145186389Y-90521383D01*
X145290048Y-90520639D01*
X145363567Y-90517691D01*
X145415130Y-90511468D01*
X145452918Y-90500895D01*
X145485117Y-90484899D01*
X145490773Y-90481471D01*
X145519029Y-90464261D01*
X145542558Y-90448348D01*
X145561791Y-90430266D01*
X145577160Y-90406550D01*
X145589097Y-90373734D01*
X145598034Y-90328353D01*
X145604403Y-90266940D01*
X145608636Y-90186030D01*
X145611165Y-90082158D01*
X145612422Y-89951858D01*
X145612838Y-89791664D01*
X145612847Y-89598112D01*
X145612833Y-89502186D01*
X145612833Y-88644879D01*
X145568715Y-88593589D01*
X145499746Y-88537066D01*
X145403859Y-88498233D01*
X145278198Y-88476264D01*
X145140727Y-88470229D01*
X145042012Y-88471918D01*
X144976081Y-88477451D01*
X144937513Y-88487498D01*
X144924391Y-88496954D01*
X144919254Y-88521955D01*
X144914760Y-88580826D01*
X144910909Y-88669106D01*
X144907699Y-88782330D01*
X144905130Y-88916035D01*
X144903200Y-89065758D01*
X144901908Y-89227036D01*
X144901253Y-89395405D01*
X144901235Y-89566403D01*
X144404849Y-89566403D01*
X144404841Y-89496325D01*
X144404431Y-89301579D01*
X144403370Y-89120947D01*
X144401722Y-88957913D01*
X144399550Y-88815960D01*
X144396919Y-88698573D01*
X144393892Y-88609235D01*
X144390534Y-88551429D01*
X144387080Y-88528870D01*
X144358687Y-88502461D01*
X144312331Y-88474352D01*
X144305902Y-88471225D01*
X144242191Y-88441187D01*
X144236706Y-88242838D01*
X144236146Y-88133372D01*
X144241357Y-88058318D01*
X144252213Y-88019367D01*
X144253431Y-88017729D01*
X144265945Y-88010078D01*
X144291883Y-88003971D01*
X144334940Y-87999251D01*
X144398809Y-87995761D01*
X144487184Y-87993346D01*
X144603760Y-87991849D01*
X144752231Y-87991114D01*
X144885543Y-87990968D01*
X145054850Y-87991044D01*
D11*
G36*
X159100387Y-95793923D02*
G01*
X159271455Y-95864782D01*
X159271457Y-95864783D01*
X159348958Y-95916568D01*
X159425414Y-95967654D01*
X159556346Y-96098586D01*
X159659218Y-96252545D01*
X159730077Y-96423613D01*
X159766200Y-96605217D01*
X159766200Y-96790383D01*
X159730077Y-96971987D01*
X159659218Y-97143055D01*
X159659217Y-97143057D01*
X159556345Y-97297015D01*
X159425415Y-97427945D01*
X159271457Y-97530817D01*
X159271456Y-97530818D01*
X159271455Y-97530818D01*
X159100387Y-97601677D01*
X158918783Y-97637800D01*
X158733617Y-97637800D01*
X158552013Y-97601677D01*
X158380945Y-97530818D01*
X158380944Y-97530818D01*
X158380943Y-97530817D01*
X158226985Y-97427945D01*
X158096055Y-97297015D01*
X157993183Y-97143057D01*
X157993182Y-97143055D01*
X157922323Y-96971987D01*
X157886200Y-96790383D01*
X157886200Y-96605217D01*
X157922323Y-96423613D01*
X157993182Y-96252545D01*
X158096054Y-96098586D01*
X158226986Y-95967654D01*
X158303442Y-95916568D01*
X158380943Y-95864783D01*
X158380945Y-95864782D01*
X158552013Y-95793923D01*
X158733617Y-95757800D01*
X158918783Y-95757800D01*
X159100387Y-95793923D01*
X159100387Y-95793923D01*
G37*
G36*
X156560387Y-95793923D02*
G01*
X156731455Y-95864782D01*
X156731457Y-95864783D01*
X156808958Y-95916568D01*
X156885414Y-95967654D01*
X157016346Y-96098586D01*
X157119218Y-96252545D01*
X157190077Y-96423613D01*
X157226200Y-96605217D01*
X157226200Y-96790383D01*
X157190077Y-96971987D01*
X157119218Y-97143055D01*
X157119217Y-97143057D01*
X157016345Y-97297015D01*
X156885415Y-97427945D01*
X156731457Y-97530817D01*
X156731456Y-97530818D01*
X156731455Y-97530818D01*
X156560387Y-97601677D01*
X156378783Y-97637800D01*
X156193617Y-97637800D01*
X156012013Y-97601677D01*
X155840945Y-97530818D01*
X155840944Y-97530818D01*
X155840943Y-97530817D01*
X155686985Y-97427945D01*
X155556055Y-97297015D01*
X155453183Y-97143057D01*
X155453182Y-97143055D01*
X155382323Y-96971987D01*
X155346200Y-96790383D01*
X155346200Y-96605217D01*
X155382323Y-96423613D01*
X155453182Y-96252545D01*
X155556054Y-96098586D01*
X155686986Y-95967654D01*
X155763442Y-95916568D01*
X155840943Y-95864783D01*
X155840945Y-95864782D01*
X156012013Y-95793923D01*
X156193617Y-95757800D01*
X156378783Y-95757800D01*
X156560387Y-95793923D01*
X156560387Y-95793923D01*
G37*
G36*
X154020387Y-95793923D02*
G01*
X154191455Y-95864782D01*
X154191457Y-95864783D01*
X154268958Y-95916568D01*
X154345414Y-95967654D01*
X154476346Y-96098586D01*
X154579218Y-96252545D01*
X154650077Y-96423613D01*
X154686200Y-96605217D01*
X154686200Y-96790383D01*
X154650077Y-96971987D01*
X154579218Y-97143055D01*
X154579217Y-97143057D01*
X154476345Y-97297015D01*
X154345415Y-97427945D01*
X154191457Y-97530817D01*
X154191456Y-97530818D01*
X154191455Y-97530818D01*
X154020387Y-97601677D01*
X153838783Y-97637800D01*
X153653617Y-97637800D01*
X153472013Y-97601677D01*
X153300945Y-97530818D01*
X153300944Y-97530818D01*
X153300943Y-97530817D01*
X153146985Y-97427945D01*
X153016055Y-97297015D01*
X152913183Y-97143057D01*
X152913182Y-97143055D01*
X152842323Y-96971987D01*
X152806200Y-96790383D01*
X152806200Y-96605217D01*
X152842323Y-96423613D01*
X152913182Y-96252545D01*
X153016054Y-96098586D01*
X153146986Y-95967654D01*
X153223442Y-95916568D01*
X153300943Y-95864783D01*
X153300945Y-95864782D01*
X153472013Y-95793923D01*
X153653617Y-95757800D01*
X153838783Y-95757800D01*
X154020387Y-95793923D01*
X154020387Y-95793923D01*
G37*
G36*
X151480387Y-95793923D02*
G01*
X151651455Y-95864782D01*
X151651457Y-95864783D01*
X151728958Y-95916568D01*
X151805414Y-95967654D01*
X151936346Y-96098586D01*
X152039218Y-96252545D01*
X152110077Y-96423613D01*
X152146200Y-96605217D01*
X152146200Y-96790383D01*
X152110077Y-96971987D01*
X152039218Y-97143055D01*
X152039217Y-97143057D01*
X151936345Y-97297015D01*
X151805415Y-97427945D01*
X151651457Y-97530817D01*
X151651456Y-97530818D01*
X151651455Y-97530818D01*
X151480387Y-97601677D01*
X151298783Y-97637800D01*
X151113617Y-97637800D01*
X150932013Y-97601677D01*
X150760945Y-97530818D01*
X150760944Y-97530818D01*
X150760943Y-97530817D01*
X150606985Y-97427945D01*
X150476055Y-97297015D01*
X150373183Y-97143057D01*
X150373182Y-97143055D01*
X150302323Y-96971987D01*
X150266200Y-96790383D01*
X150266200Y-96605217D01*
X150302323Y-96423613D01*
X150373182Y-96252545D01*
X150476054Y-96098586D01*
X150606986Y-95967654D01*
X150683442Y-95916568D01*
X150760943Y-95864783D01*
X150760945Y-95864782D01*
X150932013Y-95793923D01*
X151113617Y-95757800D01*
X151298783Y-95757800D01*
X151480387Y-95793923D01*
X151480387Y-95793923D01*
G37*
G36*
X148940387Y-95793923D02*
G01*
X149111455Y-95864782D01*
X149111457Y-95864783D01*
X149188958Y-95916568D01*
X149265414Y-95967654D01*
X149396346Y-96098586D01*
X149499218Y-96252545D01*
X149570077Y-96423613D01*
X149606200Y-96605217D01*
X149606200Y-96790383D01*
X149570077Y-96971987D01*
X149499218Y-97143055D01*
X149499217Y-97143057D01*
X149396345Y-97297015D01*
X149265415Y-97427945D01*
X149111457Y-97530817D01*
X149111456Y-97530818D01*
X149111455Y-97530818D01*
X148940387Y-97601677D01*
X148758783Y-97637800D01*
X148573617Y-97637800D01*
X148392013Y-97601677D01*
X148220945Y-97530818D01*
X148220944Y-97530818D01*
X148220943Y-97530817D01*
X148066985Y-97427945D01*
X147936055Y-97297015D01*
X147833183Y-97143057D01*
X147833182Y-97143055D01*
X147762323Y-96971987D01*
X147726200Y-96790383D01*
X147726200Y-96605217D01*
X147762323Y-96423613D01*
X147833182Y-96252545D01*
X147936054Y-96098586D01*
X148066986Y-95967654D01*
X148143442Y-95916568D01*
X148220943Y-95864783D01*
X148220945Y-95864782D01*
X148392013Y-95793923D01*
X148573617Y-95757800D01*
X148758783Y-95757800D01*
X148940387Y-95793923D01*
X148940387Y-95793923D01*
G37*
G36*
X146400387Y-95793923D02*
G01*
X146571455Y-95864782D01*
X146571457Y-95864783D01*
X146648958Y-95916568D01*
X146725414Y-95967654D01*
X146856346Y-96098586D01*
X146959218Y-96252545D01*
X147030077Y-96423613D01*
X147066200Y-96605217D01*
X147066200Y-96790383D01*
X147030077Y-96971987D01*
X146959218Y-97143055D01*
X146959217Y-97143057D01*
X146856345Y-97297015D01*
X146725415Y-97427945D01*
X146571457Y-97530817D01*
X146571456Y-97530818D01*
X146571455Y-97530818D01*
X146400387Y-97601677D01*
X146218783Y-97637800D01*
X146033617Y-97637800D01*
X145852013Y-97601677D01*
X145680945Y-97530818D01*
X145680944Y-97530818D01*
X145680943Y-97530817D01*
X145526985Y-97427945D01*
X145396055Y-97297015D01*
X145293183Y-97143057D01*
X145293182Y-97143055D01*
X145222323Y-96971987D01*
X145186200Y-96790383D01*
X145186200Y-96605217D01*
X145222323Y-96423613D01*
X145293182Y-96252545D01*
X145396054Y-96098586D01*
X145526986Y-95967654D01*
X145603442Y-95916568D01*
X145680943Y-95864783D01*
X145680945Y-95864782D01*
X145852013Y-95793923D01*
X146033617Y-95757800D01*
X146218783Y-95757800D01*
X146400387Y-95793923D01*
X146400387Y-95793923D01*
G37*
G36*
X143860387Y-95793923D02*
G01*
X144031455Y-95864782D01*
X144031457Y-95864783D01*
X144108958Y-95916568D01*
X144185414Y-95967654D01*
X144316346Y-96098586D01*
X144419218Y-96252545D01*
X144490077Y-96423613D01*
X144526200Y-96605217D01*
X144526200Y-96790383D01*
X144490077Y-96971987D01*
X144419218Y-97143055D01*
X144419217Y-97143057D01*
X144316345Y-97297015D01*
X144185415Y-97427945D01*
X144031457Y-97530817D01*
X144031456Y-97530818D01*
X144031455Y-97530818D01*
X143860387Y-97601677D01*
X143678783Y-97637800D01*
X143493617Y-97637800D01*
X143312013Y-97601677D01*
X143140945Y-97530818D01*
X143140944Y-97530818D01*
X143140943Y-97530817D01*
X142986985Y-97427945D01*
X142856055Y-97297015D01*
X142753183Y-97143057D01*
X142753182Y-97143055D01*
X142682323Y-96971987D01*
X142646200Y-96790383D01*
X142646200Y-96605217D01*
X142682323Y-96423613D01*
X142753182Y-96252545D01*
X142856054Y-96098586D01*
X142986986Y-95967654D01*
X143063442Y-95916568D01*
X143140943Y-95864783D01*
X143140945Y-95864782D01*
X143312013Y-95793923D01*
X143493617Y-95757800D01*
X143678783Y-95757800D01*
X143860387Y-95793923D01*
X143860387Y-95793923D01*
G37*
G36*
X141320387Y-95793923D02*
G01*
X141491455Y-95864782D01*
X141491457Y-95864783D01*
X141568958Y-95916568D01*
X141645414Y-95967654D01*
X141776346Y-96098586D01*
X141879218Y-96252545D01*
X141950077Y-96423613D01*
X141986200Y-96605217D01*
X141986200Y-96790383D01*
X141950077Y-96971987D01*
X141879218Y-97143055D01*
X141879217Y-97143057D01*
X141776345Y-97297015D01*
X141645415Y-97427945D01*
X141491457Y-97530817D01*
X141491456Y-97530818D01*
X141491455Y-97530818D01*
X141320387Y-97601677D01*
X141138783Y-97637800D01*
X140953617Y-97637800D01*
X140772013Y-97601677D01*
X140600945Y-97530818D01*
X140600944Y-97530818D01*
X140600943Y-97530817D01*
X140446985Y-97427945D01*
X140316055Y-97297015D01*
X140213183Y-97143057D01*
X140213182Y-97143055D01*
X140142323Y-96971987D01*
X140106200Y-96790383D01*
X140106200Y-96605217D01*
X140142323Y-96423613D01*
X140213182Y-96252545D01*
X140316054Y-96098586D01*
X140446986Y-95967654D01*
X140523442Y-95916568D01*
X140600943Y-95864783D01*
X140600945Y-95864782D01*
X140772013Y-95793923D01*
X140953617Y-95757800D01*
X141138783Y-95757800D01*
X141320387Y-95793923D01*
X141320387Y-95793923D01*
G37*
G36*
X152526760Y-94442000D02*
G01*
X150924760Y-94442000D01*
X150924760Y-93240000D01*
X152526760Y-93240000D01*
X152526760Y-94442000D01*
X152526760Y-94442000D01*
G37*
G36*
X149526760Y-94442000D02*
G01*
X147924760Y-94442000D01*
X147924760Y-93240000D01*
X149526760Y-93240000D01*
X149526760Y-94442000D01*
X149526760Y-94442000D01*
G37*
G36*
X145381962Y-92286021D02*
G01*
X145416881Y-92296614D01*
X145449063Y-92313816D01*
X145477273Y-92336967D01*
X145500424Y-92365177D01*
X145517626Y-92397359D01*
X145528219Y-92432278D01*
X145532400Y-92474735D01*
X145532400Y-93940945D01*
X145528219Y-93983402D01*
X145517626Y-94018321D01*
X145500424Y-94050503D01*
X145477273Y-94078713D01*
X145449063Y-94101864D01*
X145416881Y-94119066D01*
X145381962Y-94129659D01*
X145339505Y-94133840D01*
X144198295Y-94133840D01*
X144155838Y-94129659D01*
X144120919Y-94119066D01*
X144088737Y-94101864D01*
X144060527Y-94078713D01*
X144037376Y-94050503D01*
X144020174Y-94018321D01*
X144009581Y-93983402D01*
X144005400Y-93940945D01*
X144005400Y-92474735D01*
X144009581Y-92432278D01*
X144020174Y-92397359D01*
X144037376Y-92365177D01*
X144060527Y-92336967D01*
X144088737Y-92313816D01*
X144120919Y-92296614D01*
X144155838Y-92286021D01*
X144198295Y-92281840D01*
X145339505Y-92281840D01*
X145381962Y-92286021D01*
X145381962Y-92286021D01*
G37*
G36*
X142406962Y-92286021D02*
G01*
X142441881Y-92296614D01*
X142474063Y-92313816D01*
X142502273Y-92336967D01*
X142525424Y-92365177D01*
X142542626Y-92397359D01*
X142553219Y-92432278D01*
X142557400Y-92474735D01*
X142557400Y-93940945D01*
X142553219Y-93983402D01*
X142542626Y-94018321D01*
X142525424Y-94050503D01*
X142502273Y-94078713D01*
X142474063Y-94101864D01*
X142441881Y-94119066D01*
X142406962Y-94129659D01*
X142364505Y-94133840D01*
X141223295Y-94133840D01*
X141180838Y-94129659D01*
X141145919Y-94119066D01*
X141113737Y-94101864D01*
X141085527Y-94078713D01*
X141062376Y-94050503D01*
X141045174Y-94018321D01*
X141034581Y-93983402D01*
X141030400Y-93940945D01*
X141030400Y-92474735D01*
X141034581Y-92432278D01*
X141045174Y-92397359D01*
X141062376Y-92365177D01*
X141085527Y-92336967D01*
X141113737Y-92313816D01*
X141145919Y-92296614D01*
X141180838Y-92286021D01*
X141223295Y-92281840D01*
X142364505Y-92281840D01*
X142406962Y-92286021D01*
X142406962Y-92286021D01*
G37*
G36*
X149526760Y-92942000D02*
G01*
X147924760Y-92942000D01*
X147924760Y-91740000D01*
X149526760Y-91740000D01*
X149526760Y-92942000D01*
X149526760Y-92942000D01*
G37*
G36*
X152526760Y-92942000D02*
G01*
X150924760Y-92942000D01*
X150924760Y-91740000D01*
X152526760Y-91740000D01*
X152526760Y-92942000D01*
X152526760Y-92942000D01*
G37*
G36*
X155939082Y-86326181D02*
G01*
X155974001Y-86336774D01*
X156006183Y-86353976D01*
X156034393Y-86377127D01*
X156057544Y-86405337D01*
X156074746Y-86437519D01*
X156085339Y-86472438D01*
X156089520Y-86514895D01*
X156089520Y-87656105D01*
X156085339Y-87698562D01*
X156074746Y-87733481D01*
X156057544Y-87765663D01*
X156034393Y-87793873D01*
X156006183Y-87817024D01*
X155974001Y-87834226D01*
X155939082Y-87844819D01*
X155896625Y-87849000D01*
X154430415Y-87849000D01*
X154387958Y-87844819D01*
X154353039Y-87834226D01*
X154320857Y-87817024D01*
X154292647Y-87793873D01*
X154269496Y-87765663D01*
X154252294Y-87733481D01*
X154241701Y-87698562D01*
X154237520Y-87656105D01*
X154237520Y-86514895D01*
X154241701Y-86472438D01*
X154252294Y-86437519D01*
X154269496Y-86405337D01*
X154292647Y-86377127D01*
X154320857Y-86353976D01*
X154353039Y-86336774D01*
X154387958Y-86326181D01*
X154430415Y-86322000D01*
X155896625Y-86322000D01*
X155939082Y-86326181D01*
X155939082Y-86326181D01*
G37*
G36*
X158921042Y-86326181D02*
G01*
X158955961Y-86336774D01*
X158988143Y-86353976D01*
X159016353Y-86377127D01*
X159039504Y-86405337D01*
X159056706Y-86437519D01*
X159067299Y-86472438D01*
X159071480Y-86514895D01*
X159071480Y-87656105D01*
X159067299Y-87698562D01*
X159056706Y-87733481D01*
X159039504Y-87765663D01*
X159016353Y-87793873D01*
X158988143Y-87817024D01*
X158955961Y-87834226D01*
X158921042Y-87844819D01*
X158878585Y-87849000D01*
X157412375Y-87849000D01*
X157369918Y-87844819D01*
X157334999Y-87834226D01*
X157302817Y-87817024D01*
X157274607Y-87793873D01*
X157251456Y-87765663D01*
X157234254Y-87733481D01*
X157223661Y-87698562D01*
X157219480Y-87656105D01*
X157219480Y-86514895D01*
X157223661Y-86472438D01*
X157234254Y-86437519D01*
X157251456Y-86405337D01*
X157274607Y-86377127D01*
X157302817Y-86353976D01*
X157334999Y-86336774D01*
X157369918Y-86326181D01*
X157412375Y-86322000D01*
X158878585Y-86322000D01*
X158921042Y-86326181D01*
X158921042Y-86326181D01*
G37*
G36*
X147323840Y-87644920D02*
G01*
X145621840Y-87644920D01*
X145621840Y-86842920D01*
X147323840Y-86842920D01*
X147323840Y-87644920D01*
X147323840Y-87644920D01*
G37*
G36*
X142393840Y-87644920D02*
G01*
X140691840Y-87644920D01*
X140691840Y-86842920D01*
X142393840Y-86842920D01*
X142393840Y-87644920D01*
X142393840Y-87644920D01*
G37*
G36*
X147323840Y-86374920D02*
G01*
X145621840Y-86374920D01*
X145621840Y-85572920D01*
X147323840Y-85572920D01*
X147323840Y-86374920D01*
X147323840Y-86374920D01*
G37*
G36*
X142393840Y-86374920D02*
G01*
X140691840Y-86374920D01*
X140691840Y-85572920D01*
X142393840Y-85572920D01*
X142393840Y-86374920D01*
X142393840Y-86374920D01*
G37*
G36*
X147323840Y-85104920D02*
G01*
X145621840Y-85104920D01*
X145621840Y-84302920D01*
X147323840Y-84302920D01*
X147323840Y-85104920D01*
X147323840Y-85104920D01*
G37*
G36*
X142393840Y-85104920D02*
G01*
X140691840Y-85104920D01*
X140691840Y-84302920D01*
X142393840Y-84302920D01*
X142393840Y-85104920D01*
X142393840Y-85104920D01*
G37*
G36*
X158921042Y-83351181D02*
G01*
X158955961Y-83361774D01*
X158988143Y-83378976D01*
X159016353Y-83402127D01*
X159039504Y-83430337D01*
X159056706Y-83462519D01*
X159067299Y-83497438D01*
X159071480Y-83539895D01*
X159071480Y-84681105D01*
X159067299Y-84723562D01*
X159056706Y-84758481D01*
X159039504Y-84790663D01*
X159016353Y-84818873D01*
X158988143Y-84842024D01*
X158955961Y-84859226D01*
X158921042Y-84869819D01*
X158878585Y-84874000D01*
X157412375Y-84874000D01*
X157369918Y-84869819D01*
X157334999Y-84859226D01*
X157302817Y-84842024D01*
X157274607Y-84818873D01*
X157251456Y-84790663D01*
X157234254Y-84758481D01*
X157223661Y-84723562D01*
X157219480Y-84681105D01*
X157219480Y-83539895D01*
X157223661Y-83497438D01*
X157234254Y-83462519D01*
X157251456Y-83430337D01*
X157274607Y-83402127D01*
X157302817Y-83378976D01*
X157334999Y-83361774D01*
X157369918Y-83351181D01*
X157412375Y-83347000D01*
X158878585Y-83347000D01*
X158921042Y-83351181D01*
X158921042Y-83351181D01*
G37*
G36*
X155939082Y-83351181D02*
G01*
X155974001Y-83361774D01*
X156006183Y-83378976D01*
X156034393Y-83402127D01*
X156057544Y-83430337D01*
X156074746Y-83462519D01*
X156085339Y-83497438D01*
X156089520Y-83539895D01*
X156089520Y-84681105D01*
X156085339Y-84723562D01*
X156074746Y-84758481D01*
X156057544Y-84790663D01*
X156034393Y-84818873D01*
X156006183Y-84842024D01*
X155974001Y-84859226D01*
X155939082Y-84869819D01*
X155896625Y-84874000D01*
X154430415Y-84874000D01*
X154387958Y-84869819D01*
X154353039Y-84859226D01*
X154320857Y-84842024D01*
X154292647Y-84818873D01*
X154269496Y-84790663D01*
X154252294Y-84758481D01*
X154241701Y-84723562D01*
X154237520Y-84681105D01*
X154237520Y-83539895D01*
X154241701Y-83497438D01*
X154252294Y-83462519D01*
X154269496Y-83430337D01*
X154292647Y-83402127D01*
X154320857Y-83378976D01*
X154353039Y-83361774D01*
X154387958Y-83351181D01*
X154430415Y-83347000D01*
X155896625Y-83347000D01*
X155939082Y-83351181D01*
X155939082Y-83351181D01*
G37*
G36*
X147323840Y-83834920D02*
G01*
X145621840Y-83834920D01*
X145621840Y-83032920D01*
X147323840Y-83032920D01*
X147323840Y-83834920D01*
X147323840Y-83834920D01*
G37*
G36*
X142393840Y-83834920D02*
G01*
X140691840Y-83834920D01*
X140691840Y-83032920D01*
X142393840Y-83032920D01*
X142393840Y-83834920D01*
X142393840Y-83834920D01*
G37*
G36*
X147643803Y-80558239D02*
G01*
X147709987Y-80564757D01*
X147879826Y-80616277D01*
X148036351Y-80699942D01*
X148072089Y-80729272D01*
X148173546Y-80812534D01*
X148256808Y-80913991D01*
X148286138Y-80949729D01*
X148369803Y-81106254D01*
X148421323Y-81276093D01*
X148438719Y-81452720D01*
X148421323Y-81629347D01*
X148369803Y-81799186D01*
X148286138Y-81955711D01*
X148256808Y-81991449D01*
X148173546Y-82092906D01*
X148072089Y-82176168D01*
X148036351Y-82205498D01*
X147879826Y-82289163D01*
X147709987Y-82340683D01*
X147643803Y-82347201D01*
X147577620Y-82353720D01*
X147489100Y-82353720D01*
X147422917Y-82347201D01*
X147356733Y-82340683D01*
X147186894Y-82289163D01*
X147030369Y-82205498D01*
X146994631Y-82176168D01*
X146893174Y-82092906D01*
X146809912Y-81991449D01*
X146780582Y-81955711D01*
X146696917Y-81799186D01*
X146645397Y-81629347D01*
X146628001Y-81452720D01*
X146645397Y-81276093D01*
X146696917Y-81106254D01*
X146780582Y-80949729D01*
X146809912Y-80913991D01*
X146893174Y-80812534D01*
X146994631Y-80729272D01*
X147030369Y-80699942D01*
X147186894Y-80616277D01*
X147356733Y-80564757D01*
X147422917Y-80558239D01*
X147489100Y-80551720D01*
X147577620Y-80551720D01*
X147643803Y-80558239D01*
X147643803Y-80558239D01*
G37*
G36*
X150183803Y-80558239D02*
G01*
X150249987Y-80564757D01*
X150419826Y-80616277D01*
X150576351Y-80699942D01*
X150612089Y-80729272D01*
X150713546Y-80812534D01*
X150796808Y-80913991D01*
X150826138Y-80949729D01*
X150909803Y-81106254D01*
X150961323Y-81276093D01*
X150978719Y-81452720D01*
X150961323Y-81629347D01*
X150909803Y-81799186D01*
X150826138Y-81955711D01*
X150796808Y-81991449D01*
X150713546Y-82092906D01*
X150612089Y-82176168D01*
X150576351Y-82205498D01*
X150419826Y-82289163D01*
X150249987Y-82340683D01*
X150183803Y-82347201D01*
X150117620Y-82353720D01*
X150029100Y-82353720D01*
X149962917Y-82347201D01*
X149896733Y-82340683D01*
X149726894Y-82289163D01*
X149570369Y-82205498D01*
X149534631Y-82176168D01*
X149433174Y-82092906D01*
X149349912Y-81991449D01*
X149320582Y-81955711D01*
X149236917Y-81799186D01*
X149185397Y-81629347D01*
X149168001Y-81452720D01*
X149185397Y-81276093D01*
X149236917Y-81106254D01*
X149320582Y-80949729D01*
X149349912Y-80913991D01*
X149433174Y-80812534D01*
X149534631Y-80729272D01*
X149570369Y-80699942D01*
X149726894Y-80616277D01*
X149896733Y-80564757D01*
X149962917Y-80558239D01*
X150029100Y-80551720D01*
X150117620Y-80551720D01*
X150183803Y-80558239D01*
X150183803Y-80558239D01*
G37*
G36*
X152723803Y-80558239D02*
G01*
X152789987Y-80564757D01*
X152959826Y-80616277D01*
X153116351Y-80699942D01*
X153152089Y-80729272D01*
X153253546Y-80812534D01*
X153336808Y-80913991D01*
X153366138Y-80949729D01*
X153449803Y-81106254D01*
X153501323Y-81276093D01*
X153518719Y-81452720D01*
X153501323Y-81629347D01*
X153449803Y-81799186D01*
X153366138Y-81955711D01*
X153336808Y-81991449D01*
X153253546Y-82092906D01*
X153152089Y-82176168D01*
X153116351Y-82205498D01*
X152959826Y-82289163D01*
X152789987Y-82340683D01*
X152723803Y-82347201D01*
X152657620Y-82353720D01*
X152569100Y-82353720D01*
X152502917Y-82347201D01*
X152436733Y-82340683D01*
X152266894Y-82289163D01*
X152110369Y-82205498D01*
X152074631Y-82176168D01*
X151973174Y-82092906D01*
X151889912Y-81991449D01*
X151860582Y-81955711D01*
X151776917Y-81799186D01*
X151725397Y-81629347D01*
X151708001Y-81452720D01*
X151725397Y-81276093D01*
X151776917Y-81106254D01*
X151860582Y-80949729D01*
X151889912Y-80913991D01*
X151973174Y-80812534D01*
X152074631Y-80729272D01*
X152110369Y-80699942D01*
X152266894Y-80616277D01*
X152436733Y-80564757D01*
X152502917Y-80558239D01*
X152569100Y-80551720D01*
X152657620Y-80551720D01*
X152723803Y-80558239D01*
X152723803Y-80558239D01*
G37*
G36*
X141320387Y-78013923D02*
G01*
X141491455Y-78084782D01*
X141491457Y-78084783D01*
X141568958Y-78136568D01*
X141645414Y-78187654D01*
X141776346Y-78318586D01*
X141879218Y-78472545D01*
X141950077Y-78643613D01*
X141986200Y-78825217D01*
X141986200Y-79010383D01*
X141950077Y-79191987D01*
X141922242Y-79259186D01*
X141879217Y-79363057D01*
X141827432Y-79440558D01*
X141776346Y-79517014D01*
X141645414Y-79647946D01*
X141619144Y-79665499D01*
X141491457Y-79750817D01*
X141491456Y-79750818D01*
X141491455Y-79750818D01*
X141320387Y-79821677D01*
X141138783Y-79857800D01*
X140953617Y-79857800D01*
X140772013Y-79821677D01*
X140600945Y-79750818D01*
X140600944Y-79750818D01*
X140600943Y-79750817D01*
X140473256Y-79665499D01*
X140446986Y-79647946D01*
X140316054Y-79517014D01*
X140264968Y-79440558D01*
X140213183Y-79363057D01*
X140170158Y-79259186D01*
X140142323Y-79191987D01*
X140106200Y-79010383D01*
X140106200Y-78825217D01*
X140142323Y-78643613D01*
X140213182Y-78472545D01*
X140316054Y-78318586D01*
X140446986Y-78187654D01*
X140523442Y-78136568D01*
X140600943Y-78084783D01*
X140600945Y-78084782D01*
X140772013Y-78013923D01*
X140953617Y-77977800D01*
X141138783Y-77977800D01*
X141320387Y-78013923D01*
X141320387Y-78013923D01*
G37*
G36*
X159100387Y-78013923D02*
G01*
X159271455Y-78084782D01*
X159271457Y-78084783D01*
X159348958Y-78136568D01*
X159425414Y-78187654D01*
X159556346Y-78318586D01*
X159659218Y-78472545D01*
X159730077Y-78643613D01*
X159766200Y-78825217D01*
X159766200Y-79010383D01*
X159730077Y-79191987D01*
X159702242Y-79259186D01*
X159659217Y-79363057D01*
X159607432Y-79440558D01*
X159556346Y-79517014D01*
X159425414Y-79647946D01*
X159399144Y-79665499D01*
X159271457Y-79750817D01*
X159271456Y-79750818D01*
X159271455Y-79750818D01*
X159100387Y-79821677D01*
X158918783Y-79857800D01*
X158733617Y-79857800D01*
X158552013Y-79821677D01*
X158380945Y-79750818D01*
X158380944Y-79750818D01*
X158380943Y-79750817D01*
X158253256Y-79665499D01*
X158226986Y-79647946D01*
X158096054Y-79517014D01*
X158044968Y-79440558D01*
X157993183Y-79363057D01*
X157950158Y-79259186D01*
X157922323Y-79191987D01*
X157886200Y-79010383D01*
X157886200Y-78825217D01*
X157922323Y-78643613D01*
X157993182Y-78472545D01*
X158096054Y-78318586D01*
X158226986Y-78187654D01*
X158303442Y-78136568D01*
X158380943Y-78084783D01*
X158380945Y-78084782D01*
X158552013Y-78013923D01*
X158733617Y-77977800D01*
X158918783Y-77977800D01*
X159100387Y-78013923D01*
X159100387Y-78013923D01*
G37*
G36*
X156560387Y-78013923D02*
G01*
X156731455Y-78084782D01*
X156731457Y-78084783D01*
X156808958Y-78136568D01*
X156885414Y-78187654D01*
X157016346Y-78318586D01*
X157119218Y-78472545D01*
X157190077Y-78643613D01*
X157226200Y-78825217D01*
X157226200Y-79010383D01*
X157190077Y-79191987D01*
X157162242Y-79259186D01*
X157119217Y-79363057D01*
X157067432Y-79440558D01*
X157016346Y-79517014D01*
X156885414Y-79647946D01*
X156859144Y-79665499D01*
X156731457Y-79750817D01*
X156731456Y-79750818D01*
X156731455Y-79750818D01*
X156560387Y-79821677D01*
X156378783Y-79857800D01*
X156193617Y-79857800D01*
X156012013Y-79821677D01*
X155840945Y-79750818D01*
X155840944Y-79750818D01*
X155840943Y-79750817D01*
X155713256Y-79665499D01*
X155686986Y-79647946D01*
X155556054Y-79517014D01*
X155504968Y-79440558D01*
X155453183Y-79363057D01*
X155410158Y-79259186D01*
X155382323Y-79191987D01*
X155346200Y-79010383D01*
X155346200Y-78825217D01*
X155382323Y-78643613D01*
X155453182Y-78472545D01*
X155556054Y-78318586D01*
X155686986Y-78187654D01*
X155763442Y-78136568D01*
X155840943Y-78084783D01*
X155840945Y-78084782D01*
X156012013Y-78013923D01*
X156193617Y-77977800D01*
X156378783Y-77977800D01*
X156560387Y-78013923D01*
X156560387Y-78013923D01*
G37*
G36*
X143860387Y-78013923D02*
G01*
X144031455Y-78084782D01*
X144031457Y-78084783D01*
X144108958Y-78136568D01*
X144185414Y-78187654D01*
X144316346Y-78318586D01*
X144419218Y-78472545D01*
X144490077Y-78643613D01*
X144526200Y-78825217D01*
X144526200Y-79010383D01*
X144490077Y-79191987D01*
X144462242Y-79259186D01*
X144419217Y-79363057D01*
X144367432Y-79440558D01*
X144316346Y-79517014D01*
X144185414Y-79647946D01*
X144159144Y-79665499D01*
X144031457Y-79750817D01*
X144031456Y-79750818D01*
X144031455Y-79750818D01*
X143860387Y-79821677D01*
X143678783Y-79857800D01*
X143493617Y-79857800D01*
X143312013Y-79821677D01*
X143140945Y-79750818D01*
X143140944Y-79750818D01*
X143140943Y-79750817D01*
X143013256Y-79665499D01*
X142986986Y-79647946D01*
X142856054Y-79517014D01*
X142804968Y-79440558D01*
X142753183Y-79363057D01*
X142710158Y-79259186D01*
X142682323Y-79191987D01*
X142646200Y-79010383D01*
X142646200Y-78825217D01*
X142682323Y-78643613D01*
X142753182Y-78472545D01*
X142856054Y-78318586D01*
X142986986Y-78187654D01*
X143063442Y-78136568D01*
X143140943Y-78084783D01*
X143140945Y-78084782D01*
X143312013Y-78013923D01*
X143493617Y-77977800D01*
X143678783Y-77977800D01*
X143860387Y-78013923D01*
X143860387Y-78013923D01*
G37*
G36*
X152723802Y-78018238D02*
G01*
X152789987Y-78024757D01*
X152959826Y-78076277D01*
X152959828Y-78076278D01*
X153038089Y-78118110D01*
X153116351Y-78159942D01*
X153150118Y-78187654D01*
X153253546Y-78272534D01*
X153336808Y-78373991D01*
X153366138Y-78409729D01*
X153449803Y-78566254D01*
X153501323Y-78736093D01*
X153518719Y-78912720D01*
X153501323Y-79089347D01*
X153449803Y-79259186D01*
X153366138Y-79415711D01*
X153336808Y-79451449D01*
X153253546Y-79552906D01*
X153152089Y-79636168D01*
X153116351Y-79665498D01*
X152959826Y-79749163D01*
X152789987Y-79800683D01*
X152723802Y-79807202D01*
X152657620Y-79813720D01*
X152569100Y-79813720D01*
X152502918Y-79807202D01*
X152436733Y-79800683D01*
X152266894Y-79749163D01*
X152110369Y-79665498D01*
X152074631Y-79636168D01*
X151973174Y-79552906D01*
X151889912Y-79451449D01*
X151860582Y-79415711D01*
X151776917Y-79259186D01*
X151725397Y-79089347D01*
X151708001Y-78912720D01*
X151725397Y-78736093D01*
X151776917Y-78566254D01*
X151860582Y-78409729D01*
X151889912Y-78373991D01*
X151973174Y-78272534D01*
X152076602Y-78187654D01*
X152110369Y-78159942D01*
X152188632Y-78118109D01*
X152266892Y-78076278D01*
X152266894Y-78076277D01*
X152436733Y-78024757D01*
X152502918Y-78018238D01*
X152569100Y-78011720D01*
X152657620Y-78011720D01*
X152723802Y-78018238D01*
X152723802Y-78018238D01*
G37*
G36*
X148434360Y-79813720D02*
G01*
X146632360Y-79813720D01*
X146632360Y-78011720D01*
X148434360Y-78011720D01*
X148434360Y-79813720D01*
X148434360Y-79813720D01*
G37*
G36*
X150183802Y-78018238D02*
G01*
X150249987Y-78024757D01*
X150419826Y-78076277D01*
X150419828Y-78076278D01*
X150498089Y-78118110D01*
X150576351Y-78159942D01*
X150610118Y-78187654D01*
X150713546Y-78272534D01*
X150796808Y-78373991D01*
X150826138Y-78409729D01*
X150909803Y-78566254D01*
X150961323Y-78736093D01*
X150978719Y-78912720D01*
X150961323Y-79089347D01*
X150909803Y-79259186D01*
X150826138Y-79415711D01*
X150796808Y-79451449D01*
X150713546Y-79552906D01*
X150612089Y-79636168D01*
X150576351Y-79665498D01*
X150419826Y-79749163D01*
X150249987Y-79800683D01*
X150183802Y-79807202D01*
X150117620Y-79813720D01*
X150029100Y-79813720D01*
X149962918Y-79807202D01*
X149896733Y-79800683D01*
X149726894Y-79749163D01*
X149570369Y-79665498D01*
X149534631Y-79636168D01*
X149433174Y-79552906D01*
X149349912Y-79451449D01*
X149320582Y-79415711D01*
X149236917Y-79259186D01*
X149185397Y-79089347D01*
X149168001Y-78912720D01*
X149185397Y-78736093D01*
X149236917Y-78566254D01*
X149320582Y-78409729D01*
X149349912Y-78373991D01*
X149433174Y-78272534D01*
X149536602Y-78187654D01*
X149570369Y-78159942D01*
X149648632Y-78118109D01*
X149726892Y-78076278D01*
X149726894Y-78076277D01*
X149896733Y-78024757D01*
X149962918Y-78018238D01*
X150029100Y-78011720D01*
X150117620Y-78011720D01*
X150183802Y-78018238D01*
X150183802Y-78018238D01*
G37*
M02*
