G04 #@! TF.GenerationSoftware,KiCad,Pcbnew,(5.1.2-1)-1*
G04 #@! TF.CreationDate,2019-09-06T23:38:15-06:00*
G04 #@! TF.ProjectId,DC435,44433433-352e-46b6-9963-61645f706362,rev?*
G04 #@! TF.SameCoordinates,Original*
G04 #@! TF.FileFunction,Legend,Top*
G04 #@! TF.FilePolarity,Positive*
%FSLAX46Y46*%
G04 Gerber Fmt 4.6, Leading zero omitted, Abs format (unit mm)*
G04 Created by KiCad (PCBNEW (5.1.2-1)-1) date 2019-09-06 23:38:15*
%MOMM*%
%LPD*%
G04 APERTURE LIST*
%ADD10C,0.150000*%
%ADD11C,0.010000*%
G04 APERTURE END LIST*
D10*
X139776200Y-77647800D02*
X139776200Y-97967800D01*
X139776200Y-97967800D02*
X160096200Y-97967800D01*
X160096200Y-97967800D02*
X160096200Y-77647800D01*
X160096200Y-77647800D02*
X139776200Y-77647800D01*
D11*
G36*
X149951682Y-89059873D02*
G01*
X149963081Y-89088266D01*
X149972078Y-89147733D01*
X149978677Y-89231084D01*
X149982882Y-89331130D01*
X149984699Y-89440681D01*
X149984133Y-89552547D01*
X149981188Y-89659539D01*
X149975869Y-89754466D01*
X149968181Y-89830139D01*
X149958129Y-89879368D01*
X149951125Y-89893065D01*
X149926785Y-89907923D01*
X149884908Y-89917238D01*
X149818341Y-89921994D01*
X149732042Y-89923189D01*
X149637331Y-89921677D01*
X149573710Y-89916486D01*
X149534024Y-89906632D01*
X149512958Y-89893065D01*
X149493277Y-89870171D01*
X149486250Y-89846833D01*
X149493712Y-89814877D01*
X149517498Y-89766126D01*
X149557067Y-89696496D01*
X149594116Y-89630686D01*
X149642714Y-89541582D01*
X149697008Y-89440048D01*
X149751141Y-89336951D01*
X149760275Y-89319340D01*
X149807143Y-89229721D01*
X149848735Y-89151940D01*
X149881479Y-89092547D01*
X149901802Y-89058095D01*
X149905682Y-89052733D01*
X149932369Y-89048622D01*
X149951682Y-89059873D01*
X149951682Y-89059873D01*
G37*
X149951682Y-89059873D02*
X149963081Y-89088266D01*
X149972078Y-89147733D01*
X149978677Y-89231084D01*
X149982882Y-89331130D01*
X149984699Y-89440681D01*
X149984133Y-89552547D01*
X149981188Y-89659539D01*
X149975869Y-89754466D01*
X149968181Y-89830139D01*
X149958129Y-89879368D01*
X149951125Y-89893065D01*
X149926785Y-89907923D01*
X149884908Y-89917238D01*
X149818341Y-89921994D01*
X149732042Y-89923189D01*
X149637331Y-89921677D01*
X149573710Y-89916486D01*
X149534024Y-89906632D01*
X149512958Y-89893065D01*
X149493277Y-89870171D01*
X149486250Y-89846833D01*
X149493712Y-89814877D01*
X149517498Y-89766126D01*
X149557067Y-89696496D01*
X149594116Y-89630686D01*
X149642714Y-89541582D01*
X149697008Y-89440048D01*
X149751141Y-89336951D01*
X149760275Y-89319340D01*
X149807143Y-89229721D01*
X149848735Y-89151940D01*
X149881479Y-89092547D01*
X149901802Y-89058095D01*
X149905682Y-89052733D01*
X149932369Y-89048622D01*
X149951682Y-89059873D01*
G36*
X145232652Y-88474245D02*
G01*
X145364090Y-88499643D01*
X145470705Y-88544081D01*
X145533541Y-88591452D01*
X145581778Y-88639693D01*
X145581778Y-89519056D01*
X145581727Y-89725628D01*
X145581478Y-89897289D01*
X145580890Y-90037468D01*
X145579820Y-90149592D01*
X145578124Y-90237090D01*
X145575661Y-90303392D01*
X145572288Y-90351925D01*
X145567862Y-90386117D01*
X145562241Y-90409398D01*
X145555281Y-90425196D01*
X145546841Y-90436939D01*
X145543438Y-90440806D01*
X145493388Y-90487411D01*
X145436381Y-90520088D01*
X145364856Y-90540959D01*
X145271247Y-90552144D01*
X145147994Y-90555765D01*
X145133420Y-90555793D01*
X145030040Y-90554770D01*
X144958337Y-90551191D01*
X144911689Y-90544286D01*
X144883475Y-90533288D01*
X144873864Y-90525669D01*
X144867072Y-90515437D01*
X144861368Y-90497402D01*
X144856659Y-90468461D01*
X144852853Y-90425507D01*
X144849858Y-90365436D01*
X144847581Y-90285142D01*
X144845930Y-90181520D01*
X144844813Y-90051465D01*
X144844138Y-89891872D01*
X144843811Y-89699636D01*
X144843740Y-89512016D01*
X144843828Y-89291170D01*
X144844158Y-89105535D01*
X144844827Y-88951984D01*
X144845935Y-88827388D01*
X144847578Y-88728621D01*
X144849855Y-88652554D01*
X144852864Y-88596059D01*
X144856702Y-88556009D01*
X144861469Y-88529276D01*
X144867262Y-88512732D01*
X144874179Y-88503248D01*
X144875396Y-88502178D01*
X144914419Y-88486833D01*
X144987313Y-88475577D01*
X145081901Y-88469374D01*
X145232652Y-88474245D01*
X145232652Y-88474245D01*
G37*
X145232652Y-88474245D02*
X145364090Y-88499643D01*
X145470705Y-88544081D01*
X145533541Y-88591452D01*
X145581778Y-88639693D01*
X145581778Y-89519056D01*
X145581727Y-89725628D01*
X145581478Y-89897289D01*
X145580890Y-90037468D01*
X145579820Y-90149592D01*
X145578124Y-90237090D01*
X145575661Y-90303392D01*
X145572288Y-90351925D01*
X145567862Y-90386117D01*
X145562241Y-90409398D01*
X145555281Y-90425196D01*
X145546841Y-90436939D01*
X145543438Y-90440806D01*
X145493388Y-90487411D01*
X145436381Y-90520088D01*
X145364856Y-90540959D01*
X145271247Y-90552144D01*
X145147994Y-90555765D01*
X145133420Y-90555793D01*
X145030040Y-90554770D01*
X144958337Y-90551191D01*
X144911689Y-90544286D01*
X144883475Y-90533288D01*
X144873864Y-90525669D01*
X144867072Y-90515437D01*
X144861368Y-90497402D01*
X144856659Y-90468461D01*
X144852853Y-90425507D01*
X144849858Y-90365436D01*
X144847581Y-90285142D01*
X144845930Y-90181520D01*
X144844813Y-90051465D01*
X144844138Y-89891872D01*
X144843811Y-89699636D01*
X144843740Y-89512016D01*
X144843828Y-89291170D01*
X144844158Y-89105535D01*
X144844827Y-88951984D01*
X144845935Y-88827388D01*
X144847578Y-88728621D01*
X144849855Y-88652554D01*
X144852864Y-88596059D01*
X144856702Y-88556009D01*
X144861469Y-88529276D01*
X144867262Y-88512732D01*
X144874179Y-88503248D01*
X144875396Y-88502178D01*
X144914419Y-88486833D01*
X144987313Y-88475577D01*
X145081901Y-88469374D01*
X145232652Y-88474245D01*
G36*
X150056307Y-79584340D02*
G01*
X150151908Y-79588830D01*
X150229956Y-79595305D01*
X150281112Y-79603136D01*
X150287966Y-79605022D01*
X150408053Y-79646300D01*
X150507322Y-79687350D01*
X150602519Y-79735626D01*
X150675109Y-79777360D01*
X150817102Y-79873325D01*
X150947858Y-79987181D01*
X151072272Y-80124179D01*
X151195243Y-80289573D01*
X151291211Y-80438250D01*
X151318928Y-80509613D01*
X151312282Y-80579370D01*
X151270345Y-80649080D01*
X151192185Y-80720301D01*
X151079563Y-80793059D01*
X150904173Y-80884448D01*
X150733057Y-80953769D01*
X150556937Y-81003418D01*
X150366534Y-81035787D01*
X150152571Y-81053271D01*
X150057929Y-81056642D01*
X149942329Y-81058359D01*
X149831577Y-81057939D01*
X149735116Y-81055564D01*
X149662392Y-81051416D01*
X149636193Y-81048486D01*
X149554967Y-81033714D01*
X149463753Y-81013620D01*
X149416505Y-81001690D01*
X149352094Y-80985325D01*
X149301029Y-80974154D01*
X149278131Y-80970887D01*
X149251354Y-80963724D01*
X149197940Y-80944367D01*
X149126370Y-80916016D01*
X149066499Y-80891038D01*
X148909681Y-80818779D01*
X148780914Y-80747928D01*
X148682346Y-80680043D01*
X148616130Y-80616681D01*
X148584413Y-80559400D01*
X148581853Y-80540003D01*
X148593051Y-80486587D01*
X148623407Y-80412311D01*
X148668065Y-80326204D01*
X148722168Y-80237293D01*
X148780858Y-80154605D01*
X148805732Y-80123874D01*
X148964190Y-79965238D01*
X149153802Y-79824988D01*
X149370841Y-79705605D01*
X149542517Y-79633770D01*
X149603093Y-79612570D01*
X149656023Y-79598050D01*
X149710970Y-79589001D01*
X149777591Y-79584215D01*
X149865548Y-79582481D01*
X149952495Y-79582462D01*
X150056307Y-79584340D01*
X150056307Y-79584340D01*
G37*
X150056307Y-79584340D02*
X150151908Y-79588830D01*
X150229956Y-79595305D01*
X150281112Y-79603136D01*
X150287966Y-79605022D01*
X150408053Y-79646300D01*
X150507322Y-79687350D01*
X150602519Y-79735626D01*
X150675109Y-79777360D01*
X150817102Y-79873325D01*
X150947858Y-79987181D01*
X151072272Y-80124179D01*
X151195243Y-80289573D01*
X151291211Y-80438250D01*
X151318928Y-80509613D01*
X151312282Y-80579370D01*
X151270345Y-80649080D01*
X151192185Y-80720301D01*
X151079563Y-80793059D01*
X150904173Y-80884448D01*
X150733057Y-80953769D01*
X150556937Y-81003418D01*
X150366534Y-81035787D01*
X150152571Y-81053271D01*
X150057929Y-81056642D01*
X149942329Y-81058359D01*
X149831577Y-81057939D01*
X149735116Y-81055564D01*
X149662392Y-81051416D01*
X149636193Y-81048486D01*
X149554967Y-81033714D01*
X149463753Y-81013620D01*
X149416505Y-81001690D01*
X149352094Y-80985325D01*
X149301029Y-80974154D01*
X149278131Y-80970887D01*
X149251354Y-80963724D01*
X149197940Y-80944367D01*
X149126370Y-80916016D01*
X149066499Y-80891038D01*
X148909681Y-80818779D01*
X148780914Y-80747928D01*
X148682346Y-80680043D01*
X148616130Y-80616681D01*
X148584413Y-80559400D01*
X148581853Y-80540003D01*
X148593051Y-80486587D01*
X148623407Y-80412311D01*
X148668065Y-80326204D01*
X148722168Y-80237293D01*
X148780858Y-80154605D01*
X148805732Y-80123874D01*
X148964190Y-79965238D01*
X149153802Y-79824988D01*
X149370841Y-79705605D01*
X149542517Y-79633770D01*
X149603093Y-79612570D01*
X149656023Y-79598050D01*
X149710970Y-79589001D01*
X149777591Y-79584215D01*
X149865548Y-79582481D01*
X149952495Y-79582462D01*
X150056307Y-79584340D01*
G36*
X148016344Y-80789251D02*
G01*
X148118176Y-80790969D01*
X148209149Y-80796864D01*
X148295041Y-80808672D01*
X148381634Y-80828131D01*
X148474710Y-80856979D01*
X148580049Y-80896953D01*
X148703432Y-80949789D01*
X148850640Y-81017227D01*
X148982877Y-81079726D01*
X149161739Y-81160318D01*
X149318680Y-81220047D01*
X149462300Y-81261247D01*
X149601203Y-81286255D01*
X149743991Y-81297406D01*
X149788279Y-81298391D01*
X149880331Y-81301423D01*
X149976572Y-81307724D01*
X150048344Y-81315016D01*
X150163154Y-81317744D01*
X150303752Y-81300977D01*
X150463947Y-81266368D01*
X150637547Y-81215573D01*
X150818363Y-81150247D01*
X151000205Y-81072044D01*
X151054703Y-81045991D01*
X151293059Y-80939765D01*
X151510960Y-80864599D01*
X151708022Y-80820576D01*
X151883864Y-80807782D01*
X152038102Y-80826300D01*
X152042451Y-80827355D01*
X152248712Y-80895805D01*
X152441161Y-80994390D01*
X152613901Y-81119143D01*
X152761031Y-81266095D01*
X152830788Y-81357700D01*
X152922628Y-81506844D01*
X152984147Y-81642245D01*
X153017858Y-81769953D01*
X153024425Y-81823937D01*
X153027725Y-81876074D01*
X153024990Y-81916094D01*
X153011531Y-81948436D01*
X152982658Y-81977537D01*
X152933680Y-82007837D01*
X152859906Y-82043775D01*
X152756647Y-82089788D01*
X152732117Y-82100558D01*
X152639860Y-82141079D01*
X152555069Y-82178370D01*
X152486717Y-82208480D01*
X152443774Y-82227463D01*
X152441673Y-82228396D01*
X152396354Y-82246637D01*
X152366646Y-82255177D01*
X152365148Y-82255264D01*
X152341701Y-82260875D01*
X152289346Y-82276190D01*
X152215595Y-82298938D01*
X152127958Y-82326846D01*
X152118838Y-82329795D01*
X152000200Y-82366044D01*
X151865208Y-82403924D01*
X151733629Y-82438025D01*
X151658608Y-82455755D01*
X151557397Y-82478611D01*
X151458594Y-82501319D01*
X151374445Y-82521042D01*
X151323136Y-82533454D01*
X151259107Y-82546366D01*
X151170305Y-82560291D01*
X151070178Y-82573254D01*
X151001622Y-82580598D01*
X150903754Y-82590787D01*
X150810072Y-82601822D01*
X150733071Y-82612164D01*
X150694905Y-82618332D01*
X150636619Y-82625451D01*
X150546772Y-82631757D01*
X150432141Y-82637134D01*
X150299498Y-82641467D01*
X150155618Y-82644640D01*
X150007274Y-82646539D01*
X149861241Y-82647048D01*
X149724293Y-82646051D01*
X149603203Y-82643433D01*
X149504745Y-82639078D01*
X149498888Y-82638706D01*
X149394969Y-82630885D01*
X149294490Y-82621471D01*
X149209307Y-82611684D01*
X149153832Y-82603243D01*
X149078282Y-82590787D01*
X148986992Y-82578591D01*
X148917325Y-82571039D01*
X148840087Y-82561277D01*
X148740831Y-82545154D01*
X148634818Y-82525274D01*
X148572268Y-82512177D01*
X148463658Y-82488286D01*
X148372650Y-82467906D01*
X148293745Y-82449394D01*
X148221442Y-82431107D01*
X148150242Y-82411402D01*
X148074646Y-82388638D01*
X147989152Y-82361172D01*
X147888262Y-82327360D01*
X147766475Y-82285561D01*
X147618293Y-82234131D01*
X147479589Y-82185836D01*
X147423609Y-82164789D01*
X147379658Y-82145624D01*
X147372224Y-82141729D01*
X147344241Y-82126888D01*
X147289447Y-82098629D01*
X147215282Y-82060763D01*
X147129183Y-82017101D01*
X147112511Y-82008677D01*
X147002175Y-81951729D01*
X146922470Y-81906618D01*
X146869074Y-81869421D01*
X146837669Y-81836216D01*
X146823933Y-81803078D01*
X146823548Y-81766085D01*
X146826273Y-81748741D01*
X146870149Y-81605821D01*
X146946469Y-81458724D01*
X147050537Y-81312781D01*
X147177655Y-81173323D01*
X147323125Y-81045678D01*
X147482249Y-80935176D01*
X147600530Y-80870251D01*
X147767136Y-80788774D01*
X148016344Y-80789251D01*
X148016344Y-80789251D01*
G37*
X148016344Y-80789251D02*
X148118176Y-80790969D01*
X148209149Y-80796864D01*
X148295041Y-80808672D01*
X148381634Y-80828131D01*
X148474710Y-80856979D01*
X148580049Y-80896953D01*
X148703432Y-80949789D01*
X148850640Y-81017227D01*
X148982877Y-81079726D01*
X149161739Y-81160318D01*
X149318680Y-81220047D01*
X149462300Y-81261247D01*
X149601203Y-81286255D01*
X149743991Y-81297406D01*
X149788279Y-81298391D01*
X149880331Y-81301423D01*
X149976572Y-81307724D01*
X150048344Y-81315016D01*
X150163154Y-81317744D01*
X150303752Y-81300977D01*
X150463947Y-81266368D01*
X150637547Y-81215573D01*
X150818363Y-81150247D01*
X151000205Y-81072044D01*
X151054703Y-81045991D01*
X151293059Y-80939765D01*
X151510960Y-80864599D01*
X151708022Y-80820576D01*
X151883864Y-80807782D01*
X152038102Y-80826300D01*
X152042451Y-80827355D01*
X152248712Y-80895805D01*
X152441161Y-80994390D01*
X152613901Y-81119143D01*
X152761031Y-81266095D01*
X152830788Y-81357700D01*
X152922628Y-81506844D01*
X152984147Y-81642245D01*
X153017858Y-81769953D01*
X153024425Y-81823937D01*
X153027725Y-81876074D01*
X153024990Y-81916094D01*
X153011531Y-81948436D01*
X152982658Y-81977537D01*
X152933680Y-82007837D01*
X152859906Y-82043775D01*
X152756647Y-82089788D01*
X152732117Y-82100558D01*
X152639860Y-82141079D01*
X152555069Y-82178370D01*
X152486717Y-82208480D01*
X152443774Y-82227463D01*
X152441673Y-82228396D01*
X152396354Y-82246637D01*
X152366646Y-82255177D01*
X152365148Y-82255264D01*
X152341701Y-82260875D01*
X152289346Y-82276190D01*
X152215595Y-82298938D01*
X152127958Y-82326846D01*
X152118838Y-82329795D01*
X152000200Y-82366044D01*
X151865208Y-82403924D01*
X151733629Y-82438025D01*
X151658608Y-82455755D01*
X151557397Y-82478611D01*
X151458594Y-82501319D01*
X151374445Y-82521042D01*
X151323136Y-82533454D01*
X151259107Y-82546366D01*
X151170305Y-82560291D01*
X151070178Y-82573254D01*
X151001622Y-82580598D01*
X150903754Y-82590787D01*
X150810072Y-82601822D01*
X150733071Y-82612164D01*
X150694905Y-82618332D01*
X150636619Y-82625451D01*
X150546772Y-82631757D01*
X150432141Y-82637134D01*
X150299498Y-82641467D01*
X150155618Y-82644640D01*
X150007274Y-82646539D01*
X149861241Y-82647048D01*
X149724293Y-82646051D01*
X149603203Y-82643433D01*
X149504745Y-82639078D01*
X149498888Y-82638706D01*
X149394969Y-82630885D01*
X149294490Y-82621471D01*
X149209307Y-82611684D01*
X149153832Y-82603243D01*
X149078282Y-82590787D01*
X148986992Y-82578591D01*
X148917325Y-82571039D01*
X148840087Y-82561277D01*
X148740831Y-82545154D01*
X148634818Y-82525274D01*
X148572268Y-82512177D01*
X148463658Y-82488286D01*
X148372650Y-82467906D01*
X148293745Y-82449394D01*
X148221442Y-82431107D01*
X148150242Y-82411402D01*
X148074646Y-82388638D01*
X147989152Y-82361172D01*
X147888262Y-82327360D01*
X147766475Y-82285561D01*
X147618293Y-82234131D01*
X147479589Y-82185836D01*
X147423609Y-82164789D01*
X147379658Y-82145624D01*
X147372224Y-82141729D01*
X147344241Y-82126888D01*
X147289447Y-82098629D01*
X147215282Y-82060763D01*
X147129183Y-82017101D01*
X147112511Y-82008677D01*
X147002175Y-81951729D01*
X146922470Y-81906618D01*
X146869074Y-81869421D01*
X146837669Y-81836216D01*
X146823933Y-81803078D01*
X146823548Y-81766085D01*
X146826273Y-81748741D01*
X146870149Y-81605821D01*
X146946469Y-81458724D01*
X147050537Y-81312781D01*
X147177655Y-81173323D01*
X147323125Y-81045678D01*
X147482249Y-80935176D01*
X147600530Y-80870251D01*
X147767136Y-80788774D01*
X148016344Y-80789251D01*
G36*
X146511513Y-82151393D02*
G01*
X146561902Y-82154533D01*
X146610117Y-82164469D01*
X146664971Y-82184396D01*
X146735275Y-82217509D01*
X146828737Y-82266412D01*
X146922695Y-82316026D01*
X147003443Y-82356484D01*
X147080849Y-82392110D01*
X147164780Y-82427229D01*
X147265104Y-82466166D01*
X147391686Y-82513244D01*
X147393325Y-82513846D01*
X147475970Y-82544423D01*
X147557394Y-82574857D01*
X147620678Y-82598823D01*
X147623362Y-82599853D01*
X147682368Y-82619818D01*
X147764014Y-82643986D01*
X147853558Y-82668064D01*
X147882155Y-82675216D01*
X147972673Y-82697756D01*
X148061819Y-82720605D01*
X148134043Y-82739759D01*
X148150532Y-82744312D01*
X148214378Y-82759624D01*
X148313175Y-82779758D01*
X148443914Y-82804168D01*
X148603584Y-82832311D01*
X148789175Y-82863642D01*
X148997677Y-82897618D01*
X149003589Y-82898565D01*
X149096913Y-82910037D01*
X149220353Y-82919984D01*
X149367690Y-82928331D01*
X149532704Y-82935005D01*
X149709173Y-82939931D01*
X149890878Y-82943036D01*
X150071598Y-82944244D01*
X150245113Y-82943482D01*
X150405202Y-82940676D01*
X150545646Y-82935750D01*
X150660223Y-82928632D01*
X150742310Y-82919313D01*
X150852382Y-82902821D01*
X150977794Y-82886223D01*
X151095673Y-82872499D01*
X151123268Y-82869670D01*
X151226347Y-82857653D01*
X151334678Y-82842018D01*
X151429966Y-82825497D01*
X151458739Y-82819600D01*
X151545680Y-82800757D01*
X151651015Y-82778089D01*
X151755632Y-82755707D01*
X151783212Y-82749834D01*
X151872206Y-82728873D01*
X151983984Y-82699544D01*
X152104942Y-82665561D01*
X152221479Y-82630639D01*
X152233702Y-82626819D01*
X152329824Y-82597005D01*
X152413218Y-82571843D01*
X152476927Y-82553378D01*
X152513995Y-82543656D01*
X152519951Y-82542672D01*
X152542209Y-82535274D01*
X152593876Y-82514559D01*
X152669367Y-82482876D01*
X152763098Y-82442574D01*
X152869486Y-82396005D01*
X152889570Y-82387129D01*
X153010982Y-82333749D01*
X153103433Y-82294364D01*
X153172841Y-82267054D01*
X153225122Y-82249895D01*
X153266195Y-82240965D01*
X153301977Y-82238342D01*
X153338385Y-82240103D01*
X153341358Y-82240362D01*
X153483658Y-82271415D01*
X153625144Y-82336711D01*
X153761988Y-82432273D01*
X153890362Y-82554126D01*
X154006437Y-82698291D01*
X154106385Y-82860791D01*
X154186377Y-83037651D01*
X154226166Y-83159535D01*
X154250062Y-83229791D01*
X154279016Y-83275049D01*
X154320780Y-83308102D01*
X154370390Y-83334026D01*
X154411017Y-83347434D01*
X154416884Y-83347944D01*
X154450481Y-83356327D01*
X154504163Y-83377970D01*
X154548810Y-83399392D01*
X154760562Y-83528581D01*
X154945373Y-83683994D01*
X155101940Y-83863348D01*
X155228960Y-84064359D01*
X155325128Y-84284745D01*
X155389141Y-84522221D01*
X155419696Y-84774506D01*
X155421538Y-84928047D01*
X155415891Y-85137509D01*
X155530842Y-85215594D01*
X155712196Y-85360109D01*
X155879163Y-85535159D01*
X156027389Y-85734275D01*
X156152516Y-85950989D01*
X156250189Y-86178831D01*
X156306163Y-86366995D01*
X156333724Y-86517846D01*
X156344147Y-86660657D01*
X156337243Y-86786388D01*
X156316872Y-86875189D01*
X156293773Y-86953130D01*
X156291892Y-87009370D01*
X156314144Y-87055892D01*
X156363443Y-87104684D01*
X156375005Y-87114297D01*
X156498391Y-87233479D01*
X156616488Y-87381504D01*
X156723162Y-87548885D01*
X156812283Y-87726135D01*
X156870960Y-87881604D01*
X156908939Y-88036168D01*
X156933793Y-88210111D01*
X156945432Y-88393398D01*
X156943765Y-88575997D01*
X156928704Y-88747873D01*
X156900157Y-88898994D01*
X156880660Y-88964034D01*
X156860428Y-89028028D01*
X156847129Y-89081806D01*
X156844042Y-89105245D01*
X156856497Y-89135568D01*
X156889613Y-89184053D01*
X156937012Y-89241683D01*
X156952936Y-89259268D01*
X157107841Y-89452329D01*
X157230159Y-89660453D01*
X157318447Y-89880068D01*
X157371263Y-90107601D01*
X157387212Y-90335340D01*
X157378996Y-90480018D01*
X157355602Y-90616866D01*
X157314303Y-90755321D01*
X157252377Y-90904819D01*
X157181668Y-91047278D01*
X157165713Y-91083753D01*
X157161948Y-91117773D01*
X157172685Y-91157834D01*
X157200236Y-91212430D01*
X157246912Y-91290055D01*
X157248410Y-91292471D01*
X157287576Y-91362753D01*
X157329026Y-91448099D01*
X157356809Y-91512923D01*
X157378440Y-91572052D01*
X157392899Y-91626337D01*
X157401660Y-91686281D01*
X157406196Y-91762388D01*
X157407978Y-91865162D01*
X157408069Y-91878510D01*
X157408152Y-91980350D01*
X157405981Y-92053281D01*
X157400144Y-92106725D01*
X157389230Y-92150103D01*
X157371826Y-92192836D01*
X157356100Y-92225261D01*
X157307269Y-92311770D01*
X157251624Y-92384115D01*
X157182543Y-92447934D01*
X157093398Y-92508863D01*
X156977565Y-92572542D01*
X156906859Y-92607516D01*
X156685628Y-92712759D01*
X156488567Y-92803169D01*
X156306476Y-92882782D01*
X156130151Y-92955633D01*
X155971815Y-93017596D01*
X155894975Y-93047085D01*
X155822625Y-93075064D01*
X155770532Y-93095433D01*
X155620319Y-93153777D01*
X155485210Y-93203436D01*
X155347256Y-93250810D01*
X155205023Y-93297039D01*
X155107876Y-93328491D01*
X155019231Y-93358044D01*
X154947928Y-93382691D01*
X154902812Y-93399427D01*
X154898229Y-93401335D01*
X154836688Y-93423309D01*
X154773625Y-93440047D01*
X154720521Y-93452398D01*
X154646916Y-93471160D01*
X154572419Y-93491263D01*
X154423499Y-93532441D01*
X154302418Y-93565315D01*
X154200190Y-93592243D01*
X154107826Y-93615585D01*
X154016339Y-93637699D01*
X153997325Y-93642190D01*
X153897447Y-93665914D01*
X153790059Y-93691760D01*
X153695660Y-93714790D01*
X153681023Y-93718405D01*
X153593019Y-93738436D01*
X153502533Y-93756229D01*
X153431815Y-93767549D01*
X153363590Y-93778328D01*
X153304750Y-93791046D01*
X153281448Y-93798083D01*
X153235543Y-93810678D01*
X153153782Y-93827586D01*
X153038359Y-93848411D01*
X152891468Y-93872761D01*
X152715303Y-93900239D01*
X152703362Y-93902053D01*
X152593842Y-93918769D01*
X152470284Y-93937790D01*
X152356525Y-93955445D01*
X152339136Y-93958162D01*
X152234396Y-93973248D01*
X152112464Y-93988856D01*
X151994359Y-94002348D01*
X151955740Y-94006285D01*
X151857072Y-94016637D01*
X151758946Y-94028161D01*
X151676221Y-94039063D01*
X151643508Y-94044006D01*
X151578875Y-94052397D01*
X151488694Y-94061285D01*
X151385719Y-94069518D01*
X151298125Y-94075119D01*
X151198556Y-94080128D01*
X151130141Y-94081716D01*
X151085804Y-94079309D01*
X151058464Y-94072330D01*
X151041045Y-94060207D01*
X151035262Y-94053780D01*
X151026148Y-94037122D01*
X151019323Y-94009073D01*
X151014572Y-93965055D01*
X151011675Y-93900489D01*
X151010417Y-93810796D01*
X151010581Y-93691399D01*
X151011734Y-93557605D01*
X151012001Y-93299927D01*
X151006431Y-93076483D01*
X150994251Y-92883506D01*
X150974688Y-92717226D01*
X150946971Y-92573874D01*
X150910326Y-92449682D01*
X150863982Y-92340881D01*
X150807166Y-92243702D01*
X150739105Y-92154376D01*
X150719576Y-92132087D01*
X150583134Y-92007123D01*
X150423395Y-91905995D01*
X150247091Y-91830448D01*
X150060956Y-91782222D01*
X149871723Y-91763059D01*
X149686126Y-91774702D01*
X149510898Y-91818893D01*
X149510093Y-91819186D01*
X149336507Y-91892481D01*
X149190731Y-91977448D01*
X149069706Y-92078106D01*
X148970370Y-92198473D01*
X148889665Y-92342565D01*
X148824530Y-92514402D01*
X148771906Y-92718001D01*
X148752895Y-92813427D01*
X148739199Y-92892360D01*
X148728872Y-92966333D01*
X148721493Y-93042642D01*
X148716644Y-93128580D01*
X148713902Y-93231443D01*
X148712849Y-93358525D01*
X148713018Y-93505603D01*
X148712747Y-93671838D01*
X148710629Y-93807542D01*
X148706736Y-93910751D01*
X148701143Y-93979506D01*
X148694211Y-94011330D01*
X148678718Y-94032239D01*
X148654394Y-94041890D01*
X148610828Y-94042229D01*
X148555868Y-94037183D01*
X148489842Y-94030673D01*
X148397916Y-94022311D01*
X148292417Y-94013188D01*
X148188872Y-94004654D01*
X148086532Y-93995551D01*
X147990284Y-93985382D01*
X147910717Y-93975368D01*
X147858419Y-93966726D01*
X147857145Y-93966449D01*
X147801764Y-93956578D01*
X147721365Y-93945163D01*
X147629125Y-93933992D01*
X147579183Y-93928706D01*
X147475597Y-93916862D01*
X147366703Y-93901978D01*
X147270643Y-93886611D01*
X147239966Y-93880919D01*
X147147212Y-93863253D01*
X147039158Y-93843516D01*
X146938343Y-93825819D01*
X146933249Y-93824951D01*
X146585201Y-93761615D01*
X146235971Y-93690094D01*
X145895637Y-93612671D01*
X145574277Y-93531630D01*
X145303815Y-93455771D01*
X145211679Y-93428443D01*
X145116665Y-93400286D01*
X145036978Y-93376694D01*
X145025853Y-93373404D01*
X144912506Y-93338548D01*
X144780560Y-93295803D01*
X144638160Y-93248012D01*
X144493449Y-93198020D01*
X144354571Y-93148669D01*
X144229668Y-93102805D01*
X144126886Y-93063271D01*
X144067362Y-93038681D01*
X144017611Y-93017561D01*
X143943453Y-92986737D01*
X143856046Y-92950824D01*
X143789400Y-92923687D01*
X143658256Y-92869366D01*
X143517327Y-92809016D01*
X143375013Y-92746401D01*
X143239714Y-92685284D01*
X143119828Y-92629430D01*
X143023755Y-92582601D01*
X142993853Y-92567229D01*
X142914686Y-92525881D01*
X142822756Y-92478256D01*
X142747489Y-92439548D01*
X142615791Y-92362752D01*
X142514717Y-92279559D01*
X142436658Y-92181165D01*
X142374007Y-92058767D01*
X142339884Y-91967905D01*
X142300494Y-91793687D01*
X142298141Y-91615647D01*
X142332901Y-91440141D01*
X142333691Y-91437604D01*
X142357307Y-91366381D01*
X142380728Y-91310426D01*
X142409958Y-91260099D01*
X142450999Y-91205760D01*
X142509856Y-91137768D01*
X142544054Y-91099818D01*
X142608133Y-91024435D01*
X142644578Y-90965429D01*
X142654771Y-90914119D01*
X142640098Y-90861824D01*
X142601941Y-90799864D01*
X142593694Y-90788399D01*
X142492419Y-90626228D01*
X142422940Y-90458500D01*
X142382786Y-90277272D01*
X142369487Y-90074600D01*
X142369477Y-90067349D01*
X142376268Y-89908364D01*
X142398725Y-89769922D01*
X142440269Y-89644311D01*
X142504316Y-89523818D01*
X142594286Y-89400732D01*
X142713596Y-89267341D01*
X142732970Y-89247267D01*
X142796685Y-89181723D01*
X142850184Y-89126643D01*
X142888074Y-89087583D01*
X142904960Y-89070098D01*
X142905196Y-89069848D01*
X142903256Y-89049027D01*
X142889723Y-89006215D01*
X142883010Y-88988715D01*
X142869229Y-88941328D01*
X142853224Y-88866050D01*
X142836950Y-88773101D01*
X142822362Y-88672703D01*
X142821924Y-88669321D01*
X142808981Y-88563085D01*
X142801653Y-88479973D01*
X142799914Y-88406636D01*
X142803739Y-88329724D01*
X142813046Y-88236460D01*
X144211136Y-88236460D01*
X144211136Y-88446812D01*
X144283023Y-88480658D01*
X144354910Y-88514503D01*
X144360219Y-89482431D01*
X144361070Y-89672638D01*
X144361500Y-89852041D01*
X144361527Y-90016825D01*
X144361168Y-90163175D01*
X144360439Y-90287277D01*
X144359357Y-90385316D01*
X144357940Y-90453478D01*
X144356203Y-90487948D01*
X144355783Y-90490615D01*
X144328447Y-90527597D01*
X144283379Y-90548803D01*
X144220721Y-90566734D01*
X144215219Y-90766043D01*
X144213813Y-90851609D01*
X144214390Y-90924061D01*
X144216778Y-90974049D01*
X144219410Y-90990610D01*
X144229218Y-90997821D01*
X144254801Y-91003592D01*
X144299583Y-91008060D01*
X144366987Y-91011362D01*
X144460437Y-91013633D01*
X144583356Y-91015012D01*
X144739167Y-91015633D01*
X144847931Y-91015701D01*
X145019310Y-91015545D01*
X145157110Y-91014995D01*
X145266088Y-91013773D01*
X145351006Y-91011600D01*
X145416622Y-91008199D01*
X145467696Y-91003292D01*
X145508988Y-90996600D01*
X145545255Y-90987847D01*
X145581259Y-90976752D01*
X145595338Y-90972042D01*
X145742016Y-90907018D01*
X145865879Y-90820662D01*
X145962786Y-90717035D01*
X146028593Y-90600200D01*
X146051571Y-90524761D01*
X146052790Y-90514303D01*
X146626532Y-90514303D01*
X146677638Y-90616520D01*
X146713246Y-90674462D01*
X146763828Y-90740241D01*
X146822444Y-90806632D01*
X146882155Y-90866412D01*
X146936020Y-90912360D01*
X146977100Y-90937251D01*
X146988149Y-90939692D01*
X147024262Y-90947884D01*
X147076963Y-90967796D01*
X147096193Y-90976479D01*
X147129333Y-90989895D01*
X147167892Y-90999680D01*
X147218375Y-91006423D01*
X147287289Y-91010712D01*
X147381140Y-91013133D01*
X147506435Y-91014276D01*
X147514953Y-91014316D01*
X147644294Y-91014341D01*
X147743087Y-91012652D01*
X147819112Y-91008612D01*
X147880144Y-91001579D01*
X147933962Y-90990916D01*
X147988342Y-90975982D01*
X147990997Y-90975178D01*
X148134068Y-90916193D01*
X148254107Y-90830928D01*
X148354970Y-90719510D01*
X148404120Y-90642873D01*
X148438886Y-90565526D01*
X148456472Y-90496378D01*
X148454081Y-90444340D01*
X148446075Y-90429274D01*
X148411652Y-90409534D01*
X148368159Y-90402434D01*
X148319328Y-90396047D01*
X148252298Y-90379590D01*
X148203435Y-90364095D01*
X148107282Y-90335056D01*
X148039849Y-90326546D01*
X147997424Y-90338644D01*
X147977028Y-90368887D01*
X147938243Y-90439531D01*
X147866643Y-90499066D01*
X147830202Y-90519493D01*
X147788871Y-90536522D01*
X147739005Y-90547466D01*
X147671554Y-90553474D01*
X147577474Y-90555693D01*
X147544339Y-90555793D01*
X147447203Y-90554968D01*
X147378899Y-90551502D01*
X147329934Y-90543903D01*
X147290818Y-90530683D01*
X147252058Y-90510350D01*
X147251029Y-90509748D01*
X147189610Y-90461596D01*
X147137792Y-90400750D01*
X147129534Y-90387326D01*
X147119027Y-90367891D01*
X147110392Y-90348019D01*
X147103444Y-90323955D01*
X147098002Y-90291947D01*
X147093880Y-90248240D01*
X147090895Y-90189081D01*
X147088864Y-90110716D01*
X147087604Y-90009391D01*
X147086934Y-89882082D01*
X148926910Y-89882082D01*
X148926910Y-90121037D01*
X148927625Y-90223068D01*
X148930268Y-90292961D01*
X148935589Y-90336898D01*
X148944335Y-90361062D01*
X148957232Y-90371628D01*
X148984098Y-90374812D01*
X149043769Y-90377662D01*
X149130708Y-90380056D01*
X149239382Y-90381868D01*
X149364256Y-90382973D01*
X149472766Y-90383264D01*
X149623420Y-90383508D01*
X149740098Y-90384418D01*
X149827164Y-90386258D01*
X149888978Y-90389297D01*
X149929905Y-90393800D01*
X149954306Y-90400032D01*
X149966543Y-90408262D01*
X149969613Y-90413587D01*
X149973809Y-90442999D01*
X149977333Y-90502907D01*
X149979883Y-90585473D01*
X149981159Y-90682854D01*
X149981249Y-90717109D01*
X149982102Y-90815811D01*
X149984443Y-90900489D01*
X149987951Y-90963913D01*
X149992301Y-90998856D01*
X149994029Y-91003088D01*
X150020280Y-91010618D01*
X150074498Y-91015169D01*
X150147157Y-91016959D01*
X150228732Y-91016206D01*
X150309698Y-91013131D01*
X150380530Y-91007950D01*
X150431701Y-91000883D01*
X150453476Y-90992545D01*
X150458400Y-90965627D01*
X150461807Y-90908186D01*
X150463447Y-90828019D01*
X150463068Y-90732924D01*
X150462632Y-90707928D01*
X150461160Y-90589476D01*
X150464001Y-90503973D01*
X150473791Y-90446064D01*
X150493168Y-90410396D01*
X150524766Y-90391613D01*
X150571221Y-90384361D01*
X150622460Y-90383264D01*
X150695018Y-90377753D01*
X150739877Y-90362327D01*
X150746387Y-90356503D01*
X150757731Y-90320800D01*
X150763443Y-90248837D01*
X150763397Y-90142293D01*
X150763112Y-90131258D01*
X150757627Y-89932774D01*
X150647897Y-89923001D01*
X150607918Y-89920142D01*
X150574409Y-89917204D01*
X150546789Y-89911040D01*
X150524476Y-89898506D01*
X150506886Y-89876458D01*
X150493437Y-89841751D01*
X150483548Y-89791241D01*
X150476635Y-89721783D01*
X150472117Y-89630233D01*
X150469412Y-89513446D01*
X150467936Y-89368277D01*
X150467108Y-89191582D01*
X150466346Y-88980217D01*
X150466186Y-88941734D01*
X150465045Y-88723528D01*
X150463947Y-88584079D01*
X151250577Y-88584079D01*
X151272718Y-88600660D01*
X151322278Y-88618408D01*
X151382182Y-88632285D01*
X151466057Y-88650427D01*
X151551518Y-88673178D01*
X151599583Y-88688537D01*
X151693918Y-88722194D01*
X151772112Y-88634319D01*
X151836503Y-88568285D01*
X151897644Y-88523480D01*
X151965569Y-88496007D01*
X152050312Y-88481969D01*
X152161905Y-88477471D01*
X152176193Y-88477392D01*
X152274455Y-88478718D01*
X152345854Y-88484550D01*
X152401762Y-88496539D01*
X152453548Y-88516333D01*
X152457712Y-88518238D01*
X152520837Y-88551727D01*
X152564976Y-88589032D01*
X152593391Y-88637510D01*
X152609343Y-88704515D01*
X152616096Y-88797402D01*
X152617098Y-88877591D01*
X152615831Y-88991024D01*
X152610774Y-89073535D01*
X152600046Y-89132496D01*
X152581764Y-89175278D01*
X152554045Y-89209250D01*
X152526322Y-89233076D01*
X152494187Y-89255198D01*
X152458829Y-89270097D01*
X152411028Y-89279788D01*
X152341565Y-89286286D01*
X152263260Y-89290585D01*
X152061174Y-89300170D01*
X152055689Y-89498654D01*
X152055128Y-89608176D01*
X152060335Y-89683267D01*
X152071186Y-89722246D01*
X152072413Y-89723900D01*
X152098080Y-89738177D01*
X152149743Y-89746783D01*
X152232592Y-89750427D01*
X152268566Y-89750661D01*
X152354508Y-89751756D01*
X152413195Y-89756557D01*
X152455681Y-89767334D01*
X152493024Y-89786357D01*
X152515776Y-89801435D01*
X152555163Y-89832125D01*
X152582867Y-89865378D01*
X152600900Y-89908385D01*
X152611275Y-89968341D01*
X152616003Y-90052440D01*
X152617098Y-90163675D01*
X152614759Y-90277137D01*
X152605731Y-90359883D01*
X152586993Y-90419360D01*
X152555529Y-90463015D01*
X152508320Y-90498295D01*
X152473808Y-90517206D01*
X152433236Y-90534653D01*
X152387246Y-90546054D01*
X152326763Y-90552578D01*
X152242711Y-90555395D01*
X152174427Y-90555793D01*
X152059391Y-90553761D01*
X151973856Y-90545490D01*
X151909098Y-90527712D01*
X151856391Y-90497162D01*
X151807013Y-90450574D01*
X151767016Y-90403267D01*
X151714325Y-90349104D01*
X151664676Y-90328295D01*
X151607825Y-90338231D01*
X151573404Y-90353961D01*
X151518458Y-90374831D01*
X151450901Y-90391075D01*
X151435375Y-90393508D01*
X151343350Y-90408156D01*
X151285842Y-90426153D01*
X151259128Y-90453620D01*
X151259485Y-90496676D01*
X151283190Y-90561442D01*
X151304721Y-90608302D01*
X151376176Y-90729280D01*
X151464804Y-90831328D01*
X151563731Y-90907764D01*
X151654853Y-90948829D01*
X151716662Y-90968809D01*
X151765895Y-90987917D01*
X151783212Y-90996694D01*
X151810936Y-91002648D01*
X151870481Y-91007832D01*
X151955334Y-91011928D01*
X152058978Y-91014616D01*
X152168586Y-91015575D01*
X152296588Y-91015338D01*
X152393500Y-91013928D01*
X152466568Y-91010651D01*
X152523040Y-91004813D01*
X152570162Y-90995723D01*
X152615181Y-90982687D01*
X152653940Y-90969174D01*
X152799061Y-90899261D01*
X152919517Y-90805430D01*
X153011779Y-90691487D01*
X153072319Y-90561240D01*
X153087759Y-90500972D01*
X153096630Y-90430639D01*
X153102310Y-90330657D01*
X153104473Y-90209610D01*
X153103221Y-90092953D01*
X153100211Y-89979447D01*
X153096569Y-89896777D01*
X153091144Y-89837443D01*
X153082782Y-89793946D01*
X153070331Y-89758784D01*
X153052638Y-89724459D01*
X153044403Y-89710248D01*
X153004912Y-89652692D01*
X152976490Y-89620863D01*
X153575442Y-89620863D01*
X153590960Y-89657349D01*
X153626312Y-89672737D01*
X153646291Y-89673981D01*
X153692819Y-89683061D01*
X153725415Y-89696658D01*
X153765591Y-89713449D01*
X153828422Y-89734542D01*
X153890835Y-89752727D01*
X153982615Y-89770968D01*
X154051126Y-89766949D01*
X154105513Y-89738880D01*
X154140049Y-89704000D01*
X154155778Y-89692249D01*
X154184152Y-89683919D01*
X154230912Y-89678475D01*
X154301800Y-89675382D01*
X154402556Y-89674106D01*
X154462277Y-89673981D01*
X154577598Y-89674434D01*
X154661563Y-89676309D01*
X154721152Y-89680375D01*
X154763345Y-89687407D01*
X154795119Y-89698175D01*
X154823454Y-89713452D01*
X154824399Y-89714034D01*
X154871547Y-89749006D01*
X154904672Y-89783855D01*
X154908133Y-89789453D01*
X154915675Y-89823086D01*
X154921244Y-89886294D01*
X154924848Y-89970360D01*
X154926495Y-90066572D01*
X154926193Y-90166214D01*
X154923950Y-90260571D01*
X154919775Y-90340931D01*
X154913676Y-90398578D01*
X154907538Y-90422263D01*
X154879887Y-90453263D01*
X154832020Y-90490302D01*
X154805212Y-90507267D01*
X154766210Y-90528298D01*
X154728638Y-90542213D01*
X154683296Y-90550460D01*
X154620984Y-90554486D01*
X154532501Y-90555740D01*
X154496953Y-90555793D01*
X154375054Y-90553365D01*
X154283441Y-90544674D01*
X154214286Y-90527611D01*
X154159759Y-90500065D01*
X154112033Y-90459928D01*
X154101744Y-90449279D01*
X154044215Y-90414173D01*
X153965987Y-90402471D01*
X153876945Y-90414454D01*
X153805627Y-90440774D01*
X153742801Y-90464563D01*
X153681991Y-90477642D01*
X153668993Y-90478463D01*
X153612364Y-90486091D01*
X153584953Y-90510080D01*
X153585479Y-90554418D01*
X153612662Y-90623096D01*
X153618681Y-90635196D01*
X153654293Y-90700914D01*
X153690059Y-90759739D01*
X153709882Y-90787960D01*
X153773262Y-90848874D01*
X153858262Y-90905503D01*
X153948629Y-90947610D01*
X153978155Y-90956925D01*
X154034165Y-90974590D01*
X154077076Y-90992620D01*
X154083589Y-90996400D01*
X154111736Y-91002626D01*
X154172070Y-91007963D01*
X154258444Y-91012104D01*
X154364709Y-91014741D01*
X154468055Y-91015575D01*
X154598277Y-91015220D01*
X154697435Y-91013496D01*
X154772799Y-91009777D01*
X154831635Y-91003436D01*
X154881215Y-90993848D01*
X154928805Y-90980387D01*
X154947301Y-90974321D01*
X155103914Y-90905804D01*
X155228920Y-90815935D01*
X155322991Y-90704051D01*
X155386796Y-90569489D01*
X155399301Y-90527763D01*
X155410272Y-90463213D01*
X155418177Y-90369550D01*
X155423023Y-90255880D01*
X155424817Y-90131305D01*
X155423567Y-90004931D01*
X155419281Y-89885861D01*
X155411964Y-89783200D01*
X155401625Y-89706051D01*
X155398635Y-89692091D01*
X155374326Y-89614872D01*
X155341269Y-89538696D01*
X155323819Y-89507436D01*
X155289282Y-89461935D01*
X155241255Y-89409758D01*
X155188339Y-89358943D01*
X155139136Y-89317527D01*
X155102245Y-89293547D01*
X155091770Y-89290585D01*
X155068092Y-89282981D01*
X155022176Y-89263521D01*
X154988311Y-89247908D01*
X154953478Y-89232794D01*
X154917557Y-89221571D01*
X154874058Y-89213563D01*
X154816487Y-89208095D01*
X154738355Y-89204491D01*
X154633168Y-89202075D01*
X154534315Y-89200658D01*
X154405201Y-89198647D01*
X154309180Y-89195990D01*
X154241009Y-89192191D01*
X154195441Y-89186755D01*
X154167232Y-89179187D01*
X154151136Y-89168993D01*
X154146937Y-89164100D01*
X154133553Y-89131874D01*
X154141641Y-89089844D01*
X154148493Y-89072369D01*
X154163878Y-89021007D01*
X154178250Y-88948968D01*
X154186601Y-88888019D01*
X154203811Y-88752468D01*
X154223849Y-88650091D01*
X154248083Y-88575746D01*
X154277884Y-88524296D01*
X154286175Y-88514613D01*
X154333398Y-88463659D01*
X154842036Y-88467866D01*
X155003469Y-88468483D01*
X155139091Y-88467518D01*
X155246087Y-88465048D01*
X155321645Y-88461153D01*
X155362951Y-88455911D01*
X155369585Y-88453162D01*
X155377207Y-88426484D01*
X155382122Y-88369227D01*
X155383877Y-88289083D01*
X155383024Y-88225022D01*
X155377551Y-88015793D01*
X154668268Y-88010452D01*
X154505519Y-88009502D01*
X154353670Y-88009146D01*
X154217278Y-88009352D01*
X154100899Y-88010092D01*
X154009091Y-88011336D01*
X153946409Y-88013056D01*
X153917412Y-88015222D01*
X153917194Y-88015273D01*
X153860740Y-88041215D01*
X153827934Y-88089157D01*
X153815249Y-88164940D01*
X153814812Y-88184898D01*
X153809954Y-88259395D01*
X153797832Y-88347921D01*
X153785969Y-88408774D01*
X153771311Y-88481375D01*
X153754526Y-88577521D01*
X153738057Y-88682691D01*
X153728387Y-88751181D01*
X153714994Y-88841832D01*
X153700961Y-88921095D01*
X153688086Y-88979622D01*
X153679353Y-89006158D01*
X153668113Y-89043379D01*
X153657596Y-89105606D01*
X153650036Y-89179534D01*
X153649910Y-89181335D01*
X153639267Y-89273020D01*
X153620795Y-89377597D01*
X153599925Y-89466808D01*
X153578762Y-89558832D01*
X153575442Y-89620863D01*
X152976490Y-89620863D01*
X152962785Y-89605516D01*
X152943771Y-89589995D01*
X152907272Y-89556707D01*
X152899186Y-89519104D01*
X152920560Y-89471596D01*
X152972442Y-89408594D01*
X152979119Y-89401469D01*
X153029436Y-89342881D01*
X153059498Y-89289353D01*
X153078365Y-89222694D01*
X153084553Y-89189738D01*
X153096219Y-89093233D01*
X153103102Y-88973614D01*
X153105182Y-88843691D01*
X153102436Y-88716272D01*
X153094845Y-88604167D01*
X153085640Y-88536101D01*
X153046218Y-88411281D01*
X152979278Y-88296122D01*
X152891171Y-88197468D01*
X152788249Y-88122165D01*
X152676861Y-88077055D01*
X152655438Y-88072494D01*
X152590991Y-88056496D01*
X152533390Y-88035475D01*
X152526994Y-88032400D01*
X152487335Y-88020380D01*
X152421367Y-88012290D01*
X152325058Y-88007811D01*
X152201107Y-88006610D01*
X151995022Y-88014481D01*
X151820537Y-88038716D01*
X151673737Y-88081234D01*
X151550708Y-88143953D01*
X151447535Y-88228790D01*
X151360305Y-88337663D01*
X151296000Y-88450074D01*
X151269010Y-88510670D01*
X151252790Y-88559853D01*
X151250577Y-88584079D01*
X150463947Y-88584079D01*
X150463606Y-88540867D01*
X150461782Y-88390958D01*
X150459486Y-88271008D01*
X150456629Y-88178223D01*
X150453125Y-88109810D01*
X150448887Y-88062975D01*
X150443826Y-88034924D01*
X150437856Y-88022865D01*
X150437431Y-88022565D01*
X150408866Y-88016051D01*
X150351109Y-88010788D01*
X150273301Y-88007412D01*
X150206735Y-88006501D01*
X150000900Y-88006208D01*
X149949323Y-88087679D01*
X149910335Y-88152392D01*
X149866512Y-88229623D01*
X149842206Y-88274585D01*
X149808080Y-88335969D01*
X149776780Y-88386583D01*
X149759353Y-88410283D01*
X149736720Y-88447878D01*
X149732042Y-88468861D01*
X149721275Y-88501284D01*
X149694421Y-88547502D01*
X149684117Y-88562132D01*
X149654205Y-88606798D01*
X149637474Y-88639784D01*
X149636193Y-88645819D01*
X149624624Y-88674181D01*
X149609264Y-88694812D01*
X149586616Y-88726941D01*
X149553977Y-88781055D01*
X149521302Y-88840095D01*
X149482317Y-88912325D01*
X149443499Y-88982269D01*
X149418834Y-89025223D01*
X149378353Y-89094533D01*
X149326680Y-89184127D01*
X149271355Y-89280834D01*
X149219915Y-89371485D01*
X149184645Y-89434359D01*
X149157050Y-89483268D01*
X149116366Y-89554487D01*
X149068794Y-89637193D01*
X149034462Y-89696560D01*
X148926910Y-89882082D01*
X147086934Y-89882082D01*
X147086930Y-89881351D01*
X147086659Y-89722844D01*
X147086608Y-89530116D01*
X147086608Y-88707967D01*
X147138148Y-88633595D01*
X147193415Y-88568280D01*
X147258447Y-88522986D01*
X147340716Y-88494799D01*
X147447690Y-88480804D01*
X147537098Y-88477914D01*
X147673181Y-88483081D01*
X147778878Y-88502181D01*
X147860359Y-88537581D01*
X147923791Y-88591648D01*
X147959575Y-88639986D01*
X148010080Y-88719990D01*
X148107266Y-88707097D01*
X148176192Y-88693827D01*
X148238034Y-88675193D01*
X148258012Y-88666508D01*
X148309822Y-88646346D01*
X148352124Y-88638812D01*
X148403302Y-88629604D01*
X148430429Y-88618606D01*
X148454921Y-88597714D01*
X148460509Y-88563493D01*
X148455845Y-88527550D01*
X148436682Y-88462343D01*
X148406136Y-88396570D01*
X148401977Y-88389604D01*
X148369864Y-88336424D01*
X148343625Y-88290824D01*
X148340010Y-88284170D01*
X148303924Y-88239758D01*
X148244488Y-88188793D01*
X148173641Y-88139703D01*
X148103324Y-88100916D01*
X148054683Y-88082772D01*
X147988586Y-88064160D01*
X147927293Y-88043274D01*
X147920495Y-88040588D01*
X147879261Y-88031238D01*
X147807969Y-88022728D01*
X147714902Y-88015806D01*
X147608342Y-88011220D01*
X147589972Y-88010738D01*
X147471991Y-88008862D01*
X147381726Y-88010251D01*
X147308632Y-88015771D01*
X147242160Y-88026285D01*
X147171764Y-88042658D01*
X147158651Y-88046086D01*
X147077491Y-88069833D01*
X147003874Y-88095381D01*
X146951069Y-88118025D01*
X146942834Y-88122585D01*
X146851844Y-88192923D01*
X146765807Y-88286657D01*
X146696860Y-88389523D01*
X146672361Y-88440480D01*
X146626710Y-88552547D01*
X146626532Y-90514303D01*
X146052790Y-90514303D01*
X146056726Y-90480559D01*
X146060947Y-90404304D01*
X146064268Y-90300452D01*
X146066721Y-90173464D01*
X146068340Y-90027796D01*
X146069158Y-89867906D01*
X146069209Y-89698254D01*
X146068526Y-89523298D01*
X146067141Y-89347494D01*
X146065089Y-89175302D01*
X146062402Y-89011181D01*
X146059114Y-88859587D01*
X146055258Y-88724979D01*
X146050867Y-88611816D01*
X146045974Y-88524556D01*
X146040614Y-88467657D01*
X146036074Y-88447113D01*
X145983105Y-88350437D01*
X145936919Y-88279815D01*
X145890258Y-88225624D01*
X145835866Y-88178243D01*
X145829769Y-88173544D01*
X145771107Y-88132883D01*
X145717030Y-88102309D01*
X145687212Y-88090738D01*
X145639654Y-88077674D01*
X145576991Y-88057323D01*
X145553023Y-88048841D01*
X145521572Y-88039534D01*
X145480786Y-88032004D01*
X145426237Y-88026002D01*
X145353497Y-88021280D01*
X145258139Y-88017587D01*
X145135734Y-88014677D01*
X144981856Y-88012298D01*
X144882079Y-88011125D01*
X144734242Y-88009878D01*
X144597305Y-88009401D01*
X144476382Y-88009657D01*
X144376589Y-88010612D01*
X144303038Y-88012231D01*
X144260845Y-88014479D01*
X144254268Y-88015447D01*
X144235384Y-88022036D01*
X144223007Y-88035315D01*
X144215766Y-88062310D01*
X144212290Y-88110045D01*
X144211208Y-88185547D01*
X144211136Y-88236460D01*
X142813046Y-88236460D01*
X142813104Y-88235888D01*
X142820980Y-88169136D01*
X142852752Y-87967568D01*
X142898296Y-87789106D01*
X142962028Y-87619677D01*
X143047966Y-87445943D01*
X143138411Y-87300145D01*
X143245957Y-87159083D01*
X143359794Y-87036424D01*
X143403070Y-86996950D01*
X143473098Y-86936598D01*
X143475329Y-86611519D01*
X143476680Y-86487718D01*
X143479426Y-86393561D01*
X143484519Y-86320358D01*
X143492910Y-86259415D01*
X143505551Y-86202042D01*
X143523392Y-86139545D01*
X143528980Y-86121451D01*
X143625305Y-85874820D01*
X143754960Y-85646523D01*
X143871907Y-85495847D01*
X147910680Y-85495847D01*
X147931144Y-85739768D01*
X147980481Y-85974211D01*
X148036052Y-86138025D01*
X148082036Y-86241881D01*
X148138592Y-86354664D01*
X148199242Y-86464510D01*
X148257509Y-86559560D01*
X148296540Y-86615028D01*
X148350818Y-86685620D01*
X148408322Y-86761017D01*
X148438761Y-86801236D01*
X148543759Y-86915330D01*
X148682270Y-87025792D01*
X148849481Y-87129891D01*
X149040578Y-87224899D01*
X149250744Y-87308087D01*
X149434910Y-87365839D01*
X149563785Y-87391950D01*
X149717191Y-87407664D01*
X149882725Y-87412864D01*
X150047981Y-87407432D01*
X150200556Y-87391251D01*
X150291245Y-87373927D01*
X150564716Y-87290702D01*
X150815757Y-87176958D01*
X151043344Y-87033487D01*
X151246454Y-86861079D01*
X151424061Y-86660525D01*
X151575142Y-86432615D01*
X151621296Y-86347055D01*
X151684164Y-86218739D01*
X151731557Y-86107133D01*
X151766146Y-86001904D01*
X151790599Y-85892721D01*
X151807588Y-85769250D01*
X151819782Y-85621159D01*
X151823168Y-85565848D01*
X151830480Y-85414690D01*
X151832892Y-85294740D01*
X151830355Y-85199178D01*
X151822819Y-85121180D01*
X151819877Y-85101981D01*
X151788123Y-84963872D01*
X151738501Y-84811898D01*
X151676789Y-84662377D01*
X151633242Y-84574812D01*
X151594071Y-84501609D01*
X151554858Y-84427395D01*
X151534662Y-84388650D01*
X151500275Y-84333923D01*
X151449308Y-84266397D01*
X151392470Y-84200206D01*
X151389448Y-84196952D01*
X151340750Y-84143222D01*
X151304205Y-84100002D01*
X151286212Y-84074946D01*
X151285364Y-84072454D01*
X151269695Y-84050085D01*
X151228037Y-84011842D01*
X151166791Y-83962367D01*
X151092356Y-83906301D01*
X151011135Y-83848284D01*
X150929528Y-83792958D01*
X150853935Y-83744964D01*
X150790757Y-83708942D01*
X150769852Y-83698676D01*
X150504032Y-83591270D01*
X150250533Y-83518651D01*
X150005502Y-83480844D01*
X149765082Y-83477877D01*
X149525418Y-83509776D01*
X149282653Y-83576569D01*
X149032933Y-83678283D01*
X148964754Y-83711268D01*
X148903212Y-83745563D01*
X148828786Y-83792453D01*
X148747823Y-83847263D01*
X148666669Y-83905318D01*
X148591669Y-83961942D01*
X148529170Y-84012460D01*
X148485517Y-84052196D01*
X148467055Y-84076477D01*
X148466834Y-84078099D01*
X148454741Y-84098917D01*
X148422421Y-84140327D01*
X148375818Y-84194899D01*
X148353124Y-84220277D01*
X148267131Y-84330921D01*
X148181500Y-84469645D01*
X148101161Y-84626461D01*
X148031045Y-84791381D01*
X147976083Y-84954418D01*
X147959053Y-85018487D01*
X147919761Y-85252178D01*
X147910680Y-85495847D01*
X143871907Y-85495847D01*
X143918265Y-85436120D01*
X144115543Y-85243171D01*
X144249476Y-85136246D01*
X144374079Y-85043779D01*
X144386380Y-84852427D01*
X144409764Y-84626711D01*
X144451238Y-84423621D01*
X144514320Y-84230323D01*
X144602529Y-84033982D01*
X144620099Y-83999717D01*
X144744385Y-83798983D01*
X144901150Y-83607891D01*
X145084772Y-83431831D01*
X145289626Y-83276193D01*
X145510090Y-83146366D01*
X145510774Y-83146018D01*
X145646594Y-83077019D01*
X145688273Y-82948896D01*
X145769486Y-82760576D01*
X145886183Y-82583802D01*
X146036711Y-82420588D01*
X146219417Y-82272950D01*
X146271891Y-82237427D01*
X146342623Y-82193107D01*
X146394934Y-82166966D01*
X146441322Y-82154517D01*
X146494287Y-82151271D01*
X146511513Y-82151393D01*
X146511513Y-82151393D01*
G37*
X146511513Y-82151393D02*
X146561902Y-82154533D01*
X146610117Y-82164469D01*
X146664971Y-82184396D01*
X146735275Y-82217509D01*
X146828737Y-82266412D01*
X146922695Y-82316026D01*
X147003443Y-82356484D01*
X147080849Y-82392110D01*
X147164780Y-82427229D01*
X147265104Y-82466166D01*
X147391686Y-82513244D01*
X147393325Y-82513846D01*
X147475970Y-82544423D01*
X147557394Y-82574857D01*
X147620678Y-82598823D01*
X147623362Y-82599853D01*
X147682368Y-82619818D01*
X147764014Y-82643986D01*
X147853558Y-82668064D01*
X147882155Y-82675216D01*
X147972673Y-82697756D01*
X148061819Y-82720605D01*
X148134043Y-82739759D01*
X148150532Y-82744312D01*
X148214378Y-82759624D01*
X148313175Y-82779758D01*
X148443914Y-82804168D01*
X148603584Y-82832311D01*
X148789175Y-82863642D01*
X148997677Y-82897618D01*
X149003589Y-82898565D01*
X149096913Y-82910037D01*
X149220353Y-82919984D01*
X149367690Y-82928331D01*
X149532704Y-82935005D01*
X149709173Y-82939931D01*
X149890878Y-82943036D01*
X150071598Y-82944244D01*
X150245113Y-82943482D01*
X150405202Y-82940676D01*
X150545646Y-82935750D01*
X150660223Y-82928632D01*
X150742310Y-82919313D01*
X150852382Y-82902821D01*
X150977794Y-82886223D01*
X151095673Y-82872499D01*
X151123268Y-82869670D01*
X151226347Y-82857653D01*
X151334678Y-82842018D01*
X151429966Y-82825497D01*
X151458739Y-82819600D01*
X151545680Y-82800757D01*
X151651015Y-82778089D01*
X151755632Y-82755707D01*
X151783212Y-82749834D01*
X151872206Y-82728873D01*
X151983984Y-82699544D01*
X152104942Y-82665561D01*
X152221479Y-82630639D01*
X152233702Y-82626819D01*
X152329824Y-82597005D01*
X152413218Y-82571843D01*
X152476927Y-82553378D01*
X152513995Y-82543656D01*
X152519951Y-82542672D01*
X152542209Y-82535274D01*
X152593876Y-82514559D01*
X152669367Y-82482876D01*
X152763098Y-82442574D01*
X152869486Y-82396005D01*
X152889570Y-82387129D01*
X153010982Y-82333749D01*
X153103433Y-82294364D01*
X153172841Y-82267054D01*
X153225122Y-82249895D01*
X153266195Y-82240965D01*
X153301977Y-82238342D01*
X153338385Y-82240103D01*
X153341358Y-82240362D01*
X153483658Y-82271415D01*
X153625144Y-82336711D01*
X153761988Y-82432273D01*
X153890362Y-82554126D01*
X154006437Y-82698291D01*
X154106385Y-82860791D01*
X154186377Y-83037651D01*
X154226166Y-83159535D01*
X154250062Y-83229791D01*
X154279016Y-83275049D01*
X154320780Y-83308102D01*
X154370390Y-83334026D01*
X154411017Y-83347434D01*
X154416884Y-83347944D01*
X154450481Y-83356327D01*
X154504163Y-83377970D01*
X154548810Y-83399392D01*
X154760562Y-83528581D01*
X154945373Y-83683994D01*
X155101940Y-83863348D01*
X155228960Y-84064359D01*
X155325128Y-84284745D01*
X155389141Y-84522221D01*
X155419696Y-84774506D01*
X155421538Y-84928047D01*
X155415891Y-85137509D01*
X155530842Y-85215594D01*
X155712196Y-85360109D01*
X155879163Y-85535159D01*
X156027389Y-85734275D01*
X156152516Y-85950989D01*
X156250189Y-86178831D01*
X156306163Y-86366995D01*
X156333724Y-86517846D01*
X156344147Y-86660657D01*
X156337243Y-86786388D01*
X156316872Y-86875189D01*
X156293773Y-86953130D01*
X156291892Y-87009370D01*
X156314144Y-87055892D01*
X156363443Y-87104684D01*
X156375005Y-87114297D01*
X156498391Y-87233479D01*
X156616488Y-87381504D01*
X156723162Y-87548885D01*
X156812283Y-87726135D01*
X156870960Y-87881604D01*
X156908939Y-88036168D01*
X156933793Y-88210111D01*
X156945432Y-88393398D01*
X156943765Y-88575997D01*
X156928704Y-88747873D01*
X156900157Y-88898994D01*
X156880660Y-88964034D01*
X156860428Y-89028028D01*
X156847129Y-89081806D01*
X156844042Y-89105245D01*
X156856497Y-89135568D01*
X156889613Y-89184053D01*
X156937012Y-89241683D01*
X156952936Y-89259268D01*
X157107841Y-89452329D01*
X157230159Y-89660453D01*
X157318447Y-89880068D01*
X157371263Y-90107601D01*
X157387212Y-90335340D01*
X157378996Y-90480018D01*
X157355602Y-90616866D01*
X157314303Y-90755321D01*
X157252377Y-90904819D01*
X157181668Y-91047278D01*
X157165713Y-91083753D01*
X157161948Y-91117773D01*
X157172685Y-91157834D01*
X157200236Y-91212430D01*
X157246912Y-91290055D01*
X157248410Y-91292471D01*
X157287576Y-91362753D01*
X157329026Y-91448099D01*
X157356809Y-91512923D01*
X157378440Y-91572052D01*
X157392899Y-91626337D01*
X157401660Y-91686281D01*
X157406196Y-91762388D01*
X157407978Y-91865162D01*
X157408069Y-91878510D01*
X157408152Y-91980350D01*
X157405981Y-92053281D01*
X157400144Y-92106725D01*
X157389230Y-92150103D01*
X157371826Y-92192836D01*
X157356100Y-92225261D01*
X157307269Y-92311770D01*
X157251624Y-92384115D01*
X157182543Y-92447934D01*
X157093398Y-92508863D01*
X156977565Y-92572542D01*
X156906859Y-92607516D01*
X156685628Y-92712759D01*
X156488567Y-92803169D01*
X156306476Y-92882782D01*
X156130151Y-92955633D01*
X155971815Y-93017596D01*
X155894975Y-93047085D01*
X155822625Y-93075064D01*
X155770532Y-93095433D01*
X155620319Y-93153777D01*
X155485210Y-93203436D01*
X155347256Y-93250810D01*
X155205023Y-93297039D01*
X155107876Y-93328491D01*
X155019231Y-93358044D01*
X154947928Y-93382691D01*
X154902812Y-93399427D01*
X154898229Y-93401335D01*
X154836688Y-93423309D01*
X154773625Y-93440047D01*
X154720521Y-93452398D01*
X154646916Y-93471160D01*
X154572419Y-93491263D01*
X154423499Y-93532441D01*
X154302418Y-93565315D01*
X154200190Y-93592243D01*
X154107826Y-93615585D01*
X154016339Y-93637699D01*
X153997325Y-93642190D01*
X153897447Y-93665914D01*
X153790059Y-93691760D01*
X153695660Y-93714790D01*
X153681023Y-93718405D01*
X153593019Y-93738436D01*
X153502533Y-93756229D01*
X153431815Y-93767549D01*
X153363590Y-93778328D01*
X153304750Y-93791046D01*
X153281448Y-93798083D01*
X153235543Y-93810678D01*
X153153782Y-93827586D01*
X153038359Y-93848411D01*
X152891468Y-93872761D01*
X152715303Y-93900239D01*
X152703362Y-93902053D01*
X152593842Y-93918769D01*
X152470284Y-93937790D01*
X152356525Y-93955445D01*
X152339136Y-93958162D01*
X152234396Y-93973248D01*
X152112464Y-93988856D01*
X151994359Y-94002348D01*
X151955740Y-94006285D01*
X151857072Y-94016637D01*
X151758946Y-94028161D01*
X151676221Y-94039063D01*
X151643508Y-94044006D01*
X151578875Y-94052397D01*
X151488694Y-94061285D01*
X151385719Y-94069518D01*
X151298125Y-94075119D01*
X151198556Y-94080128D01*
X151130141Y-94081716D01*
X151085804Y-94079309D01*
X151058464Y-94072330D01*
X151041045Y-94060207D01*
X151035262Y-94053780D01*
X151026148Y-94037122D01*
X151019323Y-94009073D01*
X151014572Y-93965055D01*
X151011675Y-93900489D01*
X151010417Y-93810796D01*
X151010581Y-93691399D01*
X151011734Y-93557605D01*
X151012001Y-93299927D01*
X151006431Y-93076483D01*
X150994251Y-92883506D01*
X150974688Y-92717226D01*
X150946971Y-92573874D01*
X150910326Y-92449682D01*
X150863982Y-92340881D01*
X150807166Y-92243702D01*
X150739105Y-92154376D01*
X150719576Y-92132087D01*
X150583134Y-92007123D01*
X150423395Y-91905995D01*
X150247091Y-91830448D01*
X150060956Y-91782222D01*
X149871723Y-91763059D01*
X149686126Y-91774702D01*
X149510898Y-91818893D01*
X149510093Y-91819186D01*
X149336507Y-91892481D01*
X149190731Y-91977448D01*
X149069706Y-92078106D01*
X148970370Y-92198473D01*
X148889665Y-92342565D01*
X148824530Y-92514402D01*
X148771906Y-92718001D01*
X148752895Y-92813427D01*
X148739199Y-92892360D01*
X148728872Y-92966333D01*
X148721493Y-93042642D01*
X148716644Y-93128580D01*
X148713902Y-93231443D01*
X148712849Y-93358525D01*
X148713018Y-93505603D01*
X148712747Y-93671838D01*
X148710629Y-93807542D01*
X148706736Y-93910751D01*
X148701143Y-93979506D01*
X148694211Y-94011330D01*
X148678718Y-94032239D01*
X148654394Y-94041890D01*
X148610828Y-94042229D01*
X148555868Y-94037183D01*
X148489842Y-94030673D01*
X148397916Y-94022311D01*
X148292417Y-94013188D01*
X148188872Y-94004654D01*
X148086532Y-93995551D01*
X147990284Y-93985382D01*
X147910717Y-93975368D01*
X147858419Y-93966726D01*
X147857145Y-93966449D01*
X147801764Y-93956578D01*
X147721365Y-93945163D01*
X147629125Y-93933992D01*
X147579183Y-93928706D01*
X147475597Y-93916862D01*
X147366703Y-93901978D01*
X147270643Y-93886611D01*
X147239966Y-93880919D01*
X147147212Y-93863253D01*
X147039158Y-93843516D01*
X146938343Y-93825819D01*
X146933249Y-93824951D01*
X146585201Y-93761615D01*
X146235971Y-93690094D01*
X145895637Y-93612671D01*
X145574277Y-93531630D01*
X145303815Y-93455771D01*
X145211679Y-93428443D01*
X145116665Y-93400286D01*
X145036978Y-93376694D01*
X145025853Y-93373404D01*
X144912506Y-93338548D01*
X144780560Y-93295803D01*
X144638160Y-93248012D01*
X144493449Y-93198020D01*
X144354571Y-93148669D01*
X144229668Y-93102805D01*
X144126886Y-93063271D01*
X144067362Y-93038681D01*
X144017611Y-93017561D01*
X143943453Y-92986737D01*
X143856046Y-92950824D01*
X143789400Y-92923687D01*
X143658256Y-92869366D01*
X143517327Y-92809016D01*
X143375013Y-92746401D01*
X143239714Y-92685284D01*
X143119828Y-92629430D01*
X143023755Y-92582601D01*
X142993853Y-92567229D01*
X142914686Y-92525881D01*
X142822756Y-92478256D01*
X142747489Y-92439548D01*
X142615791Y-92362752D01*
X142514717Y-92279559D01*
X142436658Y-92181165D01*
X142374007Y-92058767D01*
X142339884Y-91967905D01*
X142300494Y-91793687D01*
X142298141Y-91615647D01*
X142332901Y-91440141D01*
X142333691Y-91437604D01*
X142357307Y-91366381D01*
X142380728Y-91310426D01*
X142409958Y-91260099D01*
X142450999Y-91205760D01*
X142509856Y-91137768D01*
X142544054Y-91099818D01*
X142608133Y-91024435D01*
X142644578Y-90965429D01*
X142654771Y-90914119D01*
X142640098Y-90861824D01*
X142601941Y-90799864D01*
X142593694Y-90788399D01*
X142492419Y-90626228D01*
X142422940Y-90458500D01*
X142382786Y-90277272D01*
X142369487Y-90074600D01*
X142369477Y-90067349D01*
X142376268Y-89908364D01*
X142398725Y-89769922D01*
X142440269Y-89644311D01*
X142504316Y-89523818D01*
X142594286Y-89400732D01*
X142713596Y-89267341D01*
X142732970Y-89247267D01*
X142796685Y-89181723D01*
X142850184Y-89126643D01*
X142888074Y-89087583D01*
X142904960Y-89070098D01*
X142905196Y-89069848D01*
X142903256Y-89049027D01*
X142889723Y-89006215D01*
X142883010Y-88988715D01*
X142869229Y-88941328D01*
X142853224Y-88866050D01*
X142836950Y-88773101D01*
X142822362Y-88672703D01*
X142821924Y-88669321D01*
X142808981Y-88563085D01*
X142801653Y-88479973D01*
X142799914Y-88406636D01*
X142803739Y-88329724D01*
X142813046Y-88236460D01*
X144211136Y-88236460D01*
X144211136Y-88446812D01*
X144283023Y-88480658D01*
X144354910Y-88514503D01*
X144360219Y-89482431D01*
X144361070Y-89672638D01*
X144361500Y-89852041D01*
X144361527Y-90016825D01*
X144361168Y-90163175D01*
X144360439Y-90287277D01*
X144359357Y-90385316D01*
X144357940Y-90453478D01*
X144356203Y-90487948D01*
X144355783Y-90490615D01*
X144328447Y-90527597D01*
X144283379Y-90548803D01*
X144220721Y-90566734D01*
X144215219Y-90766043D01*
X144213813Y-90851609D01*
X144214390Y-90924061D01*
X144216778Y-90974049D01*
X144219410Y-90990610D01*
X144229218Y-90997821D01*
X144254801Y-91003592D01*
X144299583Y-91008060D01*
X144366987Y-91011362D01*
X144460437Y-91013633D01*
X144583356Y-91015012D01*
X144739167Y-91015633D01*
X144847931Y-91015701D01*
X145019310Y-91015545D01*
X145157110Y-91014995D01*
X145266088Y-91013773D01*
X145351006Y-91011600D01*
X145416622Y-91008199D01*
X145467696Y-91003292D01*
X145508988Y-90996600D01*
X145545255Y-90987847D01*
X145581259Y-90976752D01*
X145595338Y-90972042D01*
X145742016Y-90907018D01*
X145865879Y-90820662D01*
X145962786Y-90717035D01*
X146028593Y-90600200D01*
X146051571Y-90524761D01*
X146052790Y-90514303D01*
X146626532Y-90514303D01*
X146677638Y-90616520D01*
X146713246Y-90674462D01*
X146763828Y-90740241D01*
X146822444Y-90806632D01*
X146882155Y-90866412D01*
X146936020Y-90912360D01*
X146977100Y-90937251D01*
X146988149Y-90939692D01*
X147024262Y-90947884D01*
X147076963Y-90967796D01*
X147096193Y-90976479D01*
X147129333Y-90989895D01*
X147167892Y-90999680D01*
X147218375Y-91006423D01*
X147287289Y-91010712D01*
X147381140Y-91013133D01*
X147506435Y-91014276D01*
X147514953Y-91014316D01*
X147644294Y-91014341D01*
X147743087Y-91012652D01*
X147819112Y-91008612D01*
X147880144Y-91001579D01*
X147933962Y-90990916D01*
X147988342Y-90975982D01*
X147990997Y-90975178D01*
X148134068Y-90916193D01*
X148254107Y-90830928D01*
X148354970Y-90719510D01*
X148404120Y-90642873D01*
X148438886Y-90565526D01*
X148456472Y-90496378D01*
X148454081Y-90444340D01*
X148446075Y-90429274D01*
X148411652Y-90409534D01*
X148368159Y-90402434D01*
X148319328Y-90396047D01*
X148252298Y-90379590D01*
X148203435Y-90364095D01*
X148107282Y-90335056D01*
X148039849Y-90326546D01*
X147997424Y-90338644D01*
X147977028Y-90368887D01*
X147938243Y-90439531D01*
X147866643Y-90499066D01*
X147830202Y-90519493D01*
X147788871Y-90536522D01*
X147739005Y-90547466D01*
X147671554Y-90553474D01*
X147577474Y-90555693D01*
X147544339Y-90555793D01*
X147447203Y-90554968D01*
X147378899Y-90551502D01*
X147329934Y-90543903D01*
X147290818Y-90530683D01*
X147252058Y-90510350D01*
X147251029Y-90509748D01*
X147189610Y-90461596D01*
X147137792Y-90400750D01*
X147129534Y-90387326D01*
X147119027Y-90367891D01*
X147110392Y-90348019D01*
X147103444Y-90323955D01*
X147098002Y-90291947D01*
X147093880Y-90248240D01*
X147090895Y-90189081D01*
X147088864Y-90110716D01*
X147087604Y-90009391D01*
X147086934Y-89882082D01*
X148926910Y-89882082D01*
X148926910Y-90121037D01*
X148927625Y-90223068D01*
X148930268Y-90292961D01*
X148935589Y-90336898D01*
X148944335Y-90361062D01*
X148957232Y-90371628D01*
X148984098Y-90374812D01*
X149043769Y-90377662D01*
X149130708Y-90380056D01*
X149239382Y-90381868D01*
X149364256Y-90382973D01*
X149472766Y-90383264D01*
X149623420Y-90383508D01*
X149740098Y-90384418D01*
X149827164Y-90386258D01*
X149888978Y-90389297D01*
X149929905Y-90393800D01*
X149954306Y-90400032D01*
X149966543Y-90408262D01*
X149969613Y-90413587D01*
X149973809Y-90442999D01*
X149977333Y-90502907D01*
X149979883Y-90585473D01*
X149981159Y-90682854D01*
X149981249Y-90717109D01*
X149982102Y-90815811D01*
X149984443Y-90900489D01*
X149987951Y-90963913D01*
X149992301Y-90998856D01*
X149994029Y-91003088D01*
X150020280Y-91010618D01*
X150074498Y-91015169D01*
X150147157Y-91016959D01*
X150228732Y-91016206D01*
X150309698Y-91013131D01*
X150380530Y-91007950D01*
X150431701Y-91000883D01*
X150453476Y-90992545D01*
X150458400Y-90965627D01*
X150461807Y-90908186D01*
X150463447Y-90828019D01*
X150463068Y-90732924D01*
X150462632Y-90707928D01*
X150461160Y-90589476D01*
X150464001Y-90503973D01*
X150473791Y-90446064D01*
X150493168Y-90410396D01*
X150524766Y-90391613D01*
X150571221Y-90384361D01*
X150622460Y-90383264D01*
X150695018Y-90377753D01*
X150739877Y-90362327D01*
X150746387Y-90356503D01*
X150757731Y-90320800D01*
X150763443Y-90248837D01*
X150763397Y-90142293D01*
X150763112Y-90131258D01*
X150757627Y-89932774D01*
X150647897Y-89923001D01*
X150607918Y-89920142D01*
X150574409Y-89917204D01*
X150546789Y-89911040D01*
X150524476Y-89898506D01*
X150506886Y-89876458D01*
X150493437Y-89841751D01*
X150483548Y-89791241D01*
X150476635Y-89721783D01*
X150472117Y-89630233D01*
X150469412Y-89513446D01*
X150467936Y-89368277D01*
X150467108Y-89191582D01*
X150466346Y-88980217D01*
X150466186Y-88941734D01*
X150465045Y-88723528D01*
X150463947Y-88584079D01*
X151250577Y-88584079D01*
X151272718Y-88600660D01*
X151322278Y-88618408D01*
X151382182Y-88632285D01*
X151466057Y-88650427D01*
X151551518Y-88673178D01*
X151599583Y-88688537D01*
X151693918Y-88722194D01*
X151772112Y-88634319D01*
X151836503Y-88568285D01*
X151897644Y-88523480D01*
X151965569Y-88496007D01*
X152050312Y-88481969D01*
X152161905Y-88477471D01*
X152176193Y-88477392D01*
X152274455Y-88478718D01*
X152345854Y-88484550D01*
X152401762Y-88496539D01*
X152453548Y-88516333D01*
X152457712Y-88518238D01*
X152520837Y-88551727D01*
X152564976Y-88589032D01*
X152593391Y-88637510D01*
X152609343Y-88704515D01*
X152616096Y-88797402D01*
X152617098Y-88877591D01*
X152615831Y-88991024D01*
X152610774Y-89073535D01*
X152600046Y-89132496D01*
X152581764Y-89175278D01*
X152554045Y-89209250D01*
X152526322Y-89233076D01*
X152494187Y-89255198D01*
X152458829Y-89270097D01*
X152411028Y-89279788D01*
X152341565Y-89286286D01*
X152263260Y-89290585D01*
X152061174Y-89300170D01*
X152055689Y-89498654D01*
X152055128Y-89608176D01*
X152060335Y-89683267D01*
X152071186Y-89722246D01*
X152072413Y-89723900D01*
X152098080Y-89738177D01*
X152149743Y-89746783D01*
X152232592Y-89750427D01*
X152268566Y-89750661D01*
X152354508Y-89751756D01*
X152413195Y-89756557D01*
X152455681Y-89767334D01*
X152493024Y-89786357D01*
X152515776Y-89801435D01*
X152555163Y-89832125D01*
X152582867Y-89865378D01*
X152600900Y-89908385D01*
X152611275Y-89968341D01*
X152616003Y-90052440D01*
X152617098Y-90163675D01*
X152614759Y-90277137D01*
X152605731Y-90359883D01*
X152586993Y-90419360D01*
X152555529Y-90463015D01*
X152508320Y-90498295D01*
X152473808Y-90517206D01*
X152433236Y-90534653D01*
X152387246Y-90546054D01*
X152326763Y-90552578D01*
X152242711Y-90555395D01*
X152174427Y-90555793D01*
X152059391Y-90553761D01*
X151973856Y-90545490D01*
X151909098Y-90527712D01*
X151856391Y-90497162D01*
X151807013Y-90450574D01*
X151767016Y-90403267D01*
X151714325Y-90349104D01*
X151664676Y-90328295D01*
X151607825Y-90338231D01*
X151573404Y-90353961D01*
X151518458Y-90374831D01*
X151450901Y-90391075D01*
X151435375Y-90393508D01*
X151343350Y-90408156D01*
X151285842Y-90426153D01*
X151259128Y-90453620D01*
X151259485Y-90496676D01*
X151283190Y-90561442D01*
X151304721Y-90608302D01*
X151376176Y-90729280D01*
X151464804Y-90831328D01*
X151563731Y-90907764D01*
X151654853Y-90948829D01*
X151716662Y-90968809D01*
X151765895Y-90987917D01*
X151783212Y-90996694D01*
X151810936Y-91002648D01*
X151870481Y-91007832D01*
X151955334Y-91011928D01*
X152058978Y-91014616D01*
X152168586Y-91015575D01*
X152296588Y-91015338D01*
X152393500Y-91013928D01*
X152466568Y-91010651D01*
X152523040Y-91004813D01*
X152570162Y-90995723D01*
X152615181Y-90982687D01*
X152653940Y-90969174D01*
X152799061Y-90899261D01*
X152919517Y-90805430D01*
X153011779Y-90691487D01*
X153072319Y-90561240D01*
X153087759Y-90500972D01*
X153096630Y-90430639D01*
X153102310Y-90330657D01*
X153104473Y-90209610D01*
X153103221Y-90092953D01*
X153100211Y-89979447D01*
X153096569Y-89896777D01*
X153091144Y-89837443D01*
X153082782Y-89793946D01*
X153070331Y-89758784D01*
X153052638Y-89724459D01*
X153044403Y-89710248D01*
X153004912Y-89652692D01*
X152976490Y-89620863D01*
X153575442Y-89620863D01*
X153590960Y-89657349D01*
X153626312Y-89672737D01*
X153646291Y-89673981D01*
X153692819Y-89683061D01*
X153725415Y-89696658D01*
X153765591Y-89713449D01*
X153828422Y-89734542D01*
X153890835Y-89752727D01*
X153982615Y-89770968D01*
X154051126Y-89766949D01*
X154105513Y-89738880D01*
X154140049Y-89704000D01*
X154155778Y-89692249D01*
X154184152Y-89683919D01*
X154230912Y-89678475D01*
X154301800Y-89675382D01*
X154402556Y-89674106D01*
X154462277Y-89673981D01*
X154577598Y-89674434D01*
X154661563Y-89676309D01*
X154721152Y-89680375D01*
X154763345Y-89687407D01*
X154795119Y-89698175D01*
X154823454Y-89713452D01*
X154824399Y-89714034D01*
X154871547Y-89749006D01*
X154904672Y-89783855D01*
X154908133Y-89789453D01*
X154915675Y-89823086D01*
X154921244Y-89886294D01*
X154924848Y-89970360D01*
X154926495Y-90066572D01*
X154926193Y-90166214D01*
X154923950Y-90260571D01*
X154919775Y-90340931D01*
X154913676Y-90398578D01*
X154907538Y-90422263D01*
X154879887Y-90453263D01*
X154832020Y-90490302D01*
X154805212Y-90507267D01*
X154766210Y-90528298D01*
X154728638Y-90542213D01*
X154683296Y-90550460D01*
X154620984Y-90554486D01*
X154532501Y-90555740D01*
X154496953Y-90555793D01*
X154375054Y-90553365D01*
X154283441Y-90544674D01*
X154214286Y-90527611D01*
X154159759Y-90500065D01*
X154112033Y-90459928D01*
X154101744Y-90449279D01*
X154044215Y-90414173D01*
X153965987Y-90402471D01*
X153876945Y-90414454D01*
X153805627Y-90440774D01*
X153742801Y-90464563D01*
X153681991Y-90477642D01*
X153668993Y-90478463D01*
X153612364Y-90486091D01*
X153584953Y-90510080D01*
X153585479Y-90554418D01*
X153612662Y-90623096D01*
X153618681Y-90635196D01*
X153654293Y-90700914D01*
X153690059Y-90759739D01*
X153709882Y-90787960D01*
X153773262Y-90848874D01*
X153858262Y-90905503D01*
X153948629Y-90947610D01*
X153978155Y-90956925D01*
X154034165Y-90974590D01*
X154077076Y-90992620D01*
X154083589Y-90996400D01*
X154111736Y-91002626D01*
X154172070Y-91007963D01*
X154258444Y-91012104D01*
X154364709Y-91014741D01*
X154468055Y-91015575D01*
X154598277Y-91015220D01*
X154697435Y-91013496D01*
X154772799Y-91009777D01*
X154831635Y-91003436D01*
X154881215Y-90993848D01*
X154928805Y-90980387D01*
X154947301Y-90974321D01*
X155103914Y-90905804D01*
X155228920Y-90815935D01*
X155322991Y-90704051D01*
X155386796Y-90569489D01*
X155399301Y-90527763D01*
X155410272Y-90463213D01*
X155418177Y-90369550D01*
X155423023Y-90255880D01*
X155424817Y-90131305D01*
X155423567Y-90004931D01*
X155419281Y-89885861D01*
X155411964Y-89783200D01*
X155401625Y-89706051D01*
X155398635Y-89692091D01*
X155374326Y-89614872D01*
X155341269Y-89538696D01*
X155323819Y-89507436D01*
X155289282Y-89461935D01*
X155241255Y-89409758D01*
X155188339Y-89358943D01*
X155139136Y-89317527D01*
X155102245Y-89293547D01*
X155091770Y-89290585D01*
X155068092Y-89282981D01*
X155022176Y-89263521D01*
X154988311Y-89247908D01*
X154953478Y-89232794D01*
X154917557Y-89221571D01*
X154874058Y-89213563D01*
X154816487Y-89208095D01*
X154738355Y-89204491D01*
X154633168Y-89202075D01*
X154534315Y-89200658D01*
X154405201Y-89198647D01*
X154309180Y-89195990D01*
X154241009Y-89192191D01*
X154195441Y-89186755D01*
X154167232Y-89179187D01*
X154151136Y-89168993D01*
X154146937Y-89164100D01*
X154133553Y-89131874D01*
X154141641Y-89089844D01*
X154148493Y-89072369D01*
X154163878Y-89021007D01*
X154178250Y-88948968D01*
X154186601Y-88888019D01*
X154203811Y-88752468D01*
X154223849Y-88650091D01*
X154248083Y-88575746D01*
X154277884Y-88524296D01*
X154286175Y-88514613D01*
X154333398Y-88463659D01*
X154842036Y-88467866D01*
X155003469Y-88468483D01*
X155139091Y-88467518D01*
X155246087Y-88465048D01*
X155321645Y-88461153D01*
X155362951Y-88455911D01*
X155369585Y-88453162D01*
X155377207Y-88426484D01*
X155382122Y-88369227D01*
X155383877Y-88289083D01*
X155383024Y-88225022D01*
X155377551Y-88015793D01*
X154668268Y-88010452D01*
X154505519Y-88009502D01*
X154353670Y-88009146D01*
X154217278Y-88009352D01*
X154100899Y-88010092D01*
X154009091Y-88011336D01*
X153946409Y-88013056D01*
X153917412Y-88015222D01*
X153917194Y-88015273D01*
X153860740Y-88041215D01*
X153827934Y-88089157D01*
X153815249Y-88164940D01*
X153814812Y-88184898D01*
X153809954Y-88259395D01*
X153797832Y-88347921D01*
X153785969Y-88408774D01*
X153771311Y-88481375D01*
X153754526Y-88577521D01*
X153738057Y-88682691D01*
X153728387Y-88751181D01*
X153714994Y-88841832D01*
X153700961Y-88921095D01*
X153688086Y-88979622D01*
X153679353Y-89006158D01*
X153668113Y-89043379D01*
X153657596Y-89105606D01*
X153650036Y-89179534D01*
X153649910Y-89181335D01*
X153639267Y-89273020D01*
X153620795Y-89377597D01*
X153599925Y-89466808D01*
X153578762Y-89558832D01*
X153575442Y-89620863D01*
X152976490Y-89620863D01*
X152962785Y-89605516D01*
X152943771Y-89589995D01*
X152907272Y-89556707D01*
X152899186Y-89519104D01*
X152920560Y-89471596D01*
X152972442Y-89408594D01*
X152979119Y-89401469D01*
X153029436Y-89342881D01*
X153059498Y-89289353D01*
X153078365Y-89222694D01*
X153084553Y-89189738D01*
X153096219Y-89093233D01*
X153103102Y-88973614D01*
X153105182Y-88843691D01*
X153102436Y-88716272D01*
X153094845Y-88604167D01*
X153085640Y-88536101D01*
X153046218Y-88411281D01*
X152979278Y-88296122D01*
X152891171Y-88197468D01*
X152788249Y-88122165D01*
X152676861Y-88077055D01*
X152655438Y-88072494D01*
X152590991Y-88056496D01*
X152533390Y-88035475D01*
X152526994Y-88032400D01*
X152487335Y-88020380D01*
X152421367Y-88012290D01*
X152325058Y-88007811D01*
X152201107Y-88006610D01*
X151995022Y-88014481D01*
X151820537Y-88038716D01*
X151673737Y-88081234D01*
X151550708Y-88143953D01*
X151447535Y-88228790D01*
X151360305Y-88337663D01*
X151296000Y-88450074D01*
X151269010Y-88510670D01*
X151252790Y-88559853D01*
X151250577Y-88584079D01*
X150463947Y-88584079D01*
X150463606Y-88540867D01*
X150461782Y-88390958D01*
X150459486Y-88271008D01*
X150456629Y-88178223D01*
X150453125Y-88109810D01*
X150448887Y-88062975D01*
X150443826Y-88034924D01*
X150437856Y-88022865D01*
X150437431Y-88022565D01*
X150408866Y-88016051D01*
X150351109Y-88010788D01*
X150273301Y-88007412D01*
X150206735Y-88006501D01*
X150000900Y-88006208D01*
X149949323Y-88087679D01*
X149910335Y-88152392D01*
X149866512Y-88229623D01*
X149842206Y-88274585D01*
X149808080Y-88335969D01*
X149776780Y-88386583D01*
X149759353Y-88410283D01*
X149736720Y-88447878D01*
X149732042Y-88468861D01*
X149721275Y-88501284D01*
X149694421Y-88547502D01*
X149684117Y-88562132D01*
X149654205Y-88606798D01*
X149637474Y-88639784D01*
X149636193Y-88645819D01*
X149624624Y-88674181D01*
X149609264Y-88694812D01*
X149586616Y-88726941D01*
X149553977Y-88781055D01*
X149521302Y-88840095D01*
X149482317Y-88912325D01*
X149443499Y-88982269D01*
X149418834Y-89025223D01*
X149378353Y-89094533D01*
X149326680Y-89184127D01*
X149271355Y-89280834D01*
X149219915Y-89371485D01*
X149184645Y-89434359D01*
X149157050Y-89483268D01*
X149116366Y-89554487D01*
X149068794Y-89637193D01*
X149034462Y-89696560D01*
X148926910Y-89882082D01*
X147086934Y-89882082D01*
X147086930Y-89881351D01*
X147086659Y-89722844D01*
X147086608Y-89530116D01*
X147086608Y-88707967D01*
X147138148Y-88633595D01*
X147193415Y-88568280D01*
X147258447Y-88522986D01*
X147340716Y-88494799D01*
X147447690Y-88480804D01*
X147537098Y-88477914D01*
X147673181Y-88483081D01*
X147778878Y-88502181D01*
X147860359Y-88537581D01*
X147923791Y-88591648D01*
X147959575Y-88639986D01*
X148010080Y-88719990D01*
X148107266Y-88707097D01*
X148176192Y-88693827D01*
X148238034Y-88675193D01*
X148258012Y-88666508D01*
X148309822Y-88646346D01*
X148352124Y-88638812D01*
X148403302Y-88629604D01*
X148430429Y-88618606D01*
X148454921Y-88597714D01*
X148460509Y-88563493D01*
X148455845Y-88527550D01*
X148436682Y-88462343D01*
X148406136Y-88396570D01*
X148401977Y-88389604D01*
X148369864Y-88336424D01*
X148343625Y-88290824D01*
X148340010Y-88284170D01*
X148303924Y-88239758D01*
X148244488Y-88188793D01*
X148173641Y-88139703D01*
X148103324Y-88100916D01*
X148054683Y-88082772D01*
X147988586Y-88064160D01*
X147927293Y-88043274D01*
X147920495Y-88040588D01*
X147879261Y-88031238D01*
X147807969Y-88022728D01*
X147714902Y-88015806D01*
X147608342Y-88011220D01*
X147589972Y-88010738D01*
X147471991Y-88008862D01*
X147381726Y-88010251D01*
X147308632Y-88015771D01*
X147242160Y-88026285D01*
X147171764Y-88042658D01*
X147158651Y-88046086D01*
X147077491Y-88069833D01*
X147003874Y-88095381D01*
X146951069Y-88118025D01*
X146942834Y-88122585D01*
X146851844Y-88192923D01*
X146765807Y-88286657D01*
X146696860Y-88389523D01*
X146672361Y-88440480D01*
X146626710Y-88552547D01*
X146626532Y-90514303D01*
X146052790Y-90514303D01*
X146056726Y-90480559D01*
X146060947Y-90404304D01*
X146064268Y-90300452D01*
X146066721Y-90173464D01*
X146068340Y-90027796D01*
X146069158Y-89867906D01*
X146069209Y-89698254D01*
X146068526Y-89523298D01*
X146067141Y-89347494D01*
X146065089Y-89175302D01*
X146062402Y-89011181D01*
X146059114Y-88859587D01*
X146055258Y-88724979D01*
X146050867Y-88611816D01*
X146045974Y-88524556D01*
X146040614Y-88467657D01*
X146036074Y-88447113D01*
X145983105Y-88350437D01*
X145936919Y-88279815D01*
X145890258Y-88225624D01*
X145835866Y-88178243D01*
X145829769Y-88173544D01*
X145771107Y-88132883D01*
X145717030Y-88102309D01*
X145687212Y-88090738D01*
X145639654Y-88077674D01*
X145576991Y-88057323D01*
X145553023Y-88048841D01*
X145521572Y-88039534D01*
X145480786Y-88032004D01*
X145426237Y-88026002D01*
X145353497Y-88021280D01*
X145258139Y-88017587D01*
X145135734Y-88014677D01*
X144981856Y-88012298D01*
X144882079Y-88011125D01*
X144734242Y-88009878D01*
X144597305Y-88009401D01*
X144476382Y-88009657D01*
X144376589Y-88010612D01*
X144303038Y-88012231D01*
X144260845Y-88014479D01*
X144254268Y-88015447D01*
X144235384Y-88022036D01*
X144223007Y-88035315D01*
X144215766Y-88062310D01*
X144212290Y-88110045D01*
X144211208Y-88185547D01*
X144211136Y-88236460D01*
X142813046Y-88236460D01*
X142813104Y-88235888D01*
X142820980Y-88169136D01*
X142852752Y-87967568D01*
X142898296Y-87789106D01*
X142962028Y-87619677D01*
X143047966Y-87445943D01*
X143138411Y-87300145D01*
X143245957Y-87159083D01*
X143359794Y-87036424D01*
X143403070Y-86996950D01*
X143473098Y-86936598D01*
X143475329Y-86611519D01*
X143476680Y-86487718D01*
X143479426Y-86393561D01*
X143484519Y-86320358D01*
X143492910Y-86259415D01*
X143505551Y-86202042D01*
X143523392Y-86139545D01*
X143528980Y-86121451D01*
X143625305Y-85874820D01*
X143754960Y-85646523D01*
X143871907Y-85495847D01*
X147910680Y-85495847D01*
X147931144Y-85739768D01*
X147980481Y-85974211D01*
X148036052Y-86138025D01*
X148082036Y-86241881D01*
X148138592Y-86354664D01*
X148199242Y-86464510D01*
X148257509Y-86559560D01*
X148296540Y-86615028D01*
X148350818Y-86685620D01*
X148408322Y-86761017D01*
X148438761Y-86801236D01*
X148543759Y-86915330D01*
X148682270Y-87025792D01*
X148849481Y-87129891D01*
X149040578Y-87224899D01*
X149250744Y-87308087D01*
X149434910Y-87365839D01*
X149563785Y-87391950D01*
X149717191Y-87407664D01*
X149882725Y-87412864D01*
X150047981Y-87407432D01*
X150200556Y-87391251D01*
X150291245Y-87373927D01*
X150564716Y-87290702D01*
X150815757Y-87176958D01*
X151043344Y-87033487D01*
X151246454Y-86861079D01*
X151424061Y-86660525D01*
X151575142Y-86432615D01*
X151621296Y-86347055D01*
X151684164Y-86218739D01*
X151731557Y-86107133D01*
X151766146Y-86001904D01*
X151790599Y-85892721D01*
X151807588Y-85769250D01*
X151819782Y-85621159D01*
X151823168Y-85565848D01*
X151830480Y-85414690D01*
X151832892Y-85294740D01*
X151830355Y-85199178D01*
X151822819Y-85121180D01*
X151819877Y-85101981D01*
X151788123Y-84963872D01*
X151738501Y-84811898D01*
X151676789Y-84662377D01*
X151633242Y-84574812D01*
X151594071Y-84501609D01*
X151554858Y-84427395D01*
X151534662Y-84388650D01*
X151500275Y-84333923D01*
X151449308Y-84266397D01*
X151392470Y-84200206D01*
X151389448Y-84196952D01*
X151340750Y-84143222D01*
X151304205Y-84100002D01*
X151286212Y-84074946D01*
X151285364Y-84072454D01*
X151269695Y-84050085D01*
X151228037Y-84011842D01*
X151166791Y-83962367D01*
X151092356Y-83906301D01*
X151011135Y-83848284D01*
X150929528Y-83792958D01*
X150853935Y-83744964D01*
X150790757Y-83708942D01*
X150769852Y-83698676D01*
X150504032Y-83591270D01*
X150250533Y-83518651D01*
X150005502Y-83480844D01*
X149765082Y-83477877D01*
X149525418Y-83509776D01*
X149282653Y-83576569D01*
X149032933Y-83678283D01*
X148964754Y-83711268D01*
X148903212Y-83745563D01*
X148828786Y-83792453D01*
X148747823Y-83847263D01*
X148666669Y-83905318D01*
X148591669Y-83961942D01*
X148529170Y-84012460D01*
X148485517Y-84052196D01*
X148467055Y-84076477D01*
X148466834Y-84078099D01*
X148454741Y-84098917D01*
X148422421Y-84140327D01*
X148375818Y-84194899D01*
X148353124Y-84220277D01*
X148267131Y-84330921D01*
X148181500Y-84469645D01*
X148101161Y-84626461D01*
X148031045Y-84791381D01*
X147976083Y-84954418D01*
X147959053Y-85018487D01*
X147919761Y-85252178D01*
X147910680Y-85495847D01*
X143871907Y-85495847D01*
X143918265Y-85436120D01*
X144115543Y-85243171D01*
X144249476Y-85136246D01*
X144374079Y-85043779D01*
X144386380Y-84852427D01*
X144409764Y-84626711D01*
X144451238Y-84423621D01*
X144514320Y-84230323D01*
X144602529Y-84033982D01*
X144620099Y-83999717D01*
X144744385Y-83798983D01*
X144901150Y-83607891D01*
X145084772Y-83431831D01*
X145289626Y-83276193D01*
X145510090Y-83146366D01*
X145510774Y-83146018D01*
X145646594Y-83077019D01*
X145688273Y-82948896D01*
X145769486Y-82760576D01*
X145886183Y-82583802D01*
X146036711Y-82420588D01*
X146219417Y-82272950D01*
X146271891Y-82237427D01*
X146342623Y-82193107D01*
X146394934Y-82166966D01*
X146441322Y-82154517D01*
X146494287Y-82151271D01*
X146511513Y-82151393D01*
G36*
X142438627Y-92824017D02*
G01*
X142480073Y-92835949D01*
X142545727Y-92860815D01*
X142625418Y-92894581D01*
X142684195Y-92921395D01*
X142760951Y-92957220D01*
X142823829Y-92986037D01*
X142865427Y-93004488D01*
X142878430Y-93009529D01*
X142897554Y-93017062D01*
X142944026Y-93037463D01*
X143010433Y-93067430D01*
X143073768Y-93096463D01*
X143157843Y-93135218D01*
X143234747Y-93170621D01*
X143294210Y-93197945D01*
X143319740Y-93209636D01*
X143373119Y-93234039D01*
X143439258Y-93264337D01*
X143463975Y-93275674D01*
X143537959Y-93306962D01*
X143616187Y-93336220D01*
X143636503Y-93343018D01*
X143699426Y-93364254D01*
X143780087Y-93392855D01*
X143856495Y-93420946D01*
X144018990Y-93481529D01*
X144159515Y-93533045D01*
X144271460Y-93573074D01*
X144278230Y-93575445D01*
X144335888Y-93596145D01*
X144412484Y-93624351D01*
X144489098Y-93653076D01*
X144581267Y-93686011D01*
X144683734Y-93719693D01*
X144757476Y-93741934D01*
X144849040Y-93767939D01*
X144948463Y-93796260D01*
X145016268Y-93815631D01*
X145134516Y-93849360D01*
X145276392Y-93889637D01*
X145428598Y-93932697D01*
X145577835Y-93974774D01*
X145629702Y-93989358D01*
X145713287Y-94012101D01*
X145795432Y-94033241D01*
X145858650Y-94048281D01*
X145859740Y-94048519D01*
X145921170Y-94062282D01*
X146003342Y-94081208D01*
X146089722Y-94101482D01*
X146099983Y-94103919D01*
X146176613Y-94121078D01*
X146242427Y-94133895D01*
X146285718Y-94140141D01*
X146291682Y-94140415D01*
X146326206Y-94144314D01*
X146387723Y-94154890D01*
X146465849Y-94170273D01*
X146511513Y-94179971D01*
X146646710Y-94209261D01*
X146766330Y-94234599D01*
X146875308Y-94256746D01*
X146978580Y-94276466D01*
X147081080Y-94294520D01*
X147187744Y-94311671D01*
X147303507Y-94328681D01*
X147433305Y-94346312D01*
X147582072Y-94365327D01*
X147754743Y-94386487D01*
X147956255Y-94410555D01*
X148160117Y-94434599D01*
X148278422Y-94447397D01*
X148418892Y-94460867D01*
X148565411Y-94473557D01*
X148701866Y-94484012D01*
X148725627Y-94485645D01*
X148864978Y-94495003D01*
X149023937Y-94505660D01*
X149183861Y-94516369D01*
X149326104Y-94525880D01*
X149339061Y-94526745D01*
X149456538Y-94532538D01*
X149603311Y-94536519D01*
X149773187Y-94538779D01*
X149959975Y-94539411D01*
X150157482Y-94538506D01*
X150359516Y-94536155D01*
X150559885Y-94532450D01*
X150752397Y-94527482D01*
X150930859Y-94521343D01*
X151089080Y-94514125D01*
X151220866Y-94505919D01*
X151313551Y-94497562D01*
X151436777Y-94484920D01*
X151574452Y-94472796D01*
X151707496Y-94462779D01*
X151792796Y-94457606D01*
X151863651Y-94453487D01*
X151933298Y-94448224D01*
X152006717Y-94441169D01*
X152088889Y-94431675D01*
X152184794Y-94419092D01*
X152299413Y-94402774D01*
X152437727Y-94382071D01*
X152604715Y-94356337D01*
X152770457Y-94330410D01*
X152918236Y-94306211D01*
X153080417Y-94277961D01*
X153250118Y-94247006D01*
X153420454Y-94214690D01*
X153584544Y-94182359D01*
X153735504Y-94151360D01*
X153866451Y-94123037D01*
X153970501Y-94098736D01*
X154016495Y-94086828D01*
X154065731Y-94074304D01*
X154141721Y-94056137D01*
X154233756Y-94034847D01*
X154323212Y-94014705D01*
X154449230Y-93985776D01*
X154561822Y-93957459D01*
X154674241Y-93926107D01*
X154799741Y-93888071D01*
X154907891Y-93853776D01*
X154981467Y-93830573D01*
X155071889Y-93802636D01*
X155157098Y-93776764D01*
X155242763Y-93750186D01*
X155328939Y-93722061D01*
X155396721Y-93698565D01*
X155456116Y-93677510D01*
X155539140Y-93648930D01*
X155632978Y-93617207D01*
X155693853Y-93596928D01*
X155800214Y-93561110D01*
X155924059Y-93518447D01*
X156046895Y-93475349D01*
X156115589Y-93450803D01*
X156212111Y-93415990D01*
X156305581Y-93382287D01*
X156384463Y-93353855D01*
X156431891Y-93336770D01*
X156501667Y-93310684D01*
X156593365Y-93275031D01*
X156698781Y-93233148D01*
X156809713Y-93188370D01*
X156917959Y-93144032D01*
X157015315Y-93103472D01*
X157093580Y-93070024D01*
X157144550Y-93047024D01*
X157145552Y-93046540D01*
X157231203Y-93009328D01*
X157296248Y-92995009D01*
X157351648Y-93004723D01*
X157408368Y-93039609D01*
X157453565Y-93078548D01*
X157522123Y-93137201D01*
X157605008Y-93202047D01*
X157682875Y-93258069D01*
X157760364Y-93315405D01*
X157803143Y-93360169D01*
X157811777Y-93394809D01*
X157786830Y-93421771D01*
X157728867Y-93443504D01*
X157725853Y-93444303D01*
X157552142Y-93489932D01*
X157388655Y-93533010D01*
X157239673Y-93572401D01*
X157109475Y-93606967D01*
X157002343Y-93635571D01*
X156922557Y-93657076D01*
X156874399Y-93670344D01*
X156867220Y-93672412D01*
X156832657Y-93689288D01*
X156834440Y-93707588D01*
X156870671Y-93726004D01*
X156939453Y-93743228D01*
X156979819Y-93750133D01*
X157164569Y-93778550D01*
X157316502Y-93802331D01*
X157440747Y-93822307D01*
X157542436Y-93839313D01*
X157626698Y-93854180D01*
X157668344Y-93861913D01*
X157757045Y-93877577D01*
X157848113Y-93891864D01*
X157917551Y-93901149D01*
X157990455Y-93911744D01*
X158058169Y-93925286D01*
X158085228Y-93932473D01*
X158111089Y-93940362D01*
X158132938Y-93948719D01*
X158151115Y-93960622D01*
X158165955Y-93979148D01*
X158177797Y-94007376D01*
X158186979Y-94048382D01*
X158193837Y-94105244D01*
X158198709Y-94181040D01*
X158201934Y-94278848D01*
X158203848Y-94401743D01*
X158204789Y-94552806D01*
X158205095Y-94735112D01*
X158205103Y-94951739D01*
X158205098Y-95025255D01*
X158204994Y-95248023D01*
X158204620Y-95435544D01*
X158203886Y-95590912D01*
X158202700Y-95717218D01*
X158200971Y-95817556D01*
X158198607Y-95895017D01*
X158195518Y-95952695D01*
X158191612Y-95993682D01*
X158186799Y-96021071D01*
X158180986Y-96037954D01*
X158174974Y-96046574D01*
X158169792Y-96049332D01*
X158159148Y-96051914D01*
X158141859Y-96054324D01*
X158116739Y-96056567D01*
X158082603Y-96058648D01*
X158038268Y-96060571D01*
X157982547Y-96062342D01*
X157914257Y-96063964D01*
X157832212Y-96065442D01*
X157735228Y-96066780D01*
X157622119Y-96067985D01*
X157491702Y-96069059D01*
X157342790Y-96070008D01*
X157174200Y-96070836D01*
X156984746Y-96071548D01*
X156773244Y-96072148D01*
X156538508Y-96072642D01*
X156279355Y-96073033D01*
X155994599Y-96073326D01*
X155683055Y-96073526D01*
X155343539Y-96073637D01*
X154974866Y-96073665D01*
X154575850Y-96073613D01*
X154145308Y-96073487D01*
X153682054Y-96073290D01*
X153184903Y-96073028D01*
X152652672Y-96072705D01*
X152084174Y-96072326D01*
X151633276Y-96072007D01*
X151115063Y-96071623D01*
X150596808Y-96071217D01*
X150080455Y-96070791D01*
X149567945Y-96070348D01*
X149061222Y-96069890D01*
X148562226Y-96069419D01*
X148072902Y-96068937D01*
X147595190Y-96068447D01*
X147131034Y-96067952D01*
X146682376Y-96067452D01*
X146251158Y-96066951D01*
X145839322Y-96066450D01*
X145448811Y-96065952D01*
X145081568Y-96065460D01*
X144739535Y-96064975D01*
X144424653Y-96064499D01*
X144138866Y-96064036D01*
X143884116Y-96063587D01*
X143662345Y-96063154D01*
X143475496Y-96062739D01*
X143358079Y-96062438D01*
X143057139Y-96061568D01*
X142792222Y-96060693D01*
X142561009Y-96059764D01*
X142361184Y-96058734D01*
X142190430Y-96057555D01*
X142046428Y-96056177D01*
X141926863Y-96054553D01*
X141829416Y-96052634D01*
X141751771Y-96050371D01*
X141691609Y-96047717D01*
X141646614Y-96044623D01*
X141614469Y-96041041D01*
X141592856Y-96036921D01*
X141579458Y-96032217D01*
X141571957Y-96026879D01*
X141570495Y-96025126D01*
X141565091Y-96009290D01*
X141560497Y-95975925D01*
X141556660Y-95922592D01*
X141553527Y-95846851D01*
X141551046Y-95746261D01*
X141549163Y-95618382D01*
X141547827Y-95460775D01*
X141546985Y-95270998D01*
X141546584Y-95046613D01*
X141546532Y-94913261D01*
X141546567Y-94682585D01*
X141546740Y-94487192D01*
X141547156Y-94324027D01*
X141547921Y-94190035D01*
X141549139Y-94082158D01*
X141550915Y-93997342D01*
X141553354Y-93932530D01*
X141556561Y-93884666D01*
X141560640Y-93850695D01*
X141565696Y-93827561D01*
X141571834Y-93812208D01*
X141579159Y-93801579D01*
X141584872Y-93795491D01*
X141617460Y-93767440D01*
X141637589Y-93757006D01*
X141678534Y-93754068D01*
X141747554Y-93746587D01*
X141834827Y-93735845D01*
X141930533Y-93723124D01*
X142024850Y-93709705D01*
X142107960Y-93696871D01*
X142140796Y-93691328D01*
X142221306Y-93677869D01*
X142327272Y-93661123D01*
X142446166Y-93643022D01*
X142565461Y-93625502D01*
X142591287Y-93621807D01*
X142719710Y-93602815D01*
X142813436Y-93587035D01*
X142875890Y-93573571D01*
X142910493Y-93561523D01*
X142920668Y-93549995D01*
X142910013Y-93538197D01*
X142884173Y-93529586D01*
X142828223Y-93515203D01*
X142749636Y-93496840D01*
X142655889Y-93476293D01*
X142624797Y-93469735D01*
X142514672Y-93446525D01*
X142404520Y-93422966D01*
X142306464Y-93401672D01*
X142232626Y-93385255D01*
X142227061Y-93383987D01*
X142144473Y-93365107D01*
X142063035Y-93346493D01*
X142007358Y-93333770D01*
X141927038Y-93307845D01*
X141881571Y-93275594D01*
X141872060Y-93238553D01*
X141899611Y-93198255D01*
X141905966Y-93192863D01*
X142038231Y-93086127D01*
X142144419Y-93001455D01*
X142227982Y-92936458D01*
X142292372Y-92888743D01*
X142341039Y-92855923D01*
X142377436Y-92835605D01*
X142405015Y-92825401D01*
X142427226Y-92822920D01*
X142438627Y-92824017D01*
X142438627Y-92824017D01*
G37*
X142438627Y-92824017D02*
X142480073Y-92835949D01*
X142545727Y-92860815D01*
X142625418Y-92894581D01*
X142684195Y-92921395D01*
X142760951Y-92957220D01*
X142823829Y-92986037D01*
X142865427Y-93004488D01*
X142878430Y-93009529D01*
X142897554Y-93017062D01*
X142944026Y-93037463D01*
X143010433Y-93067430D01*
X143073768Y-93096463D01*
X143157843Y-93135218D01*
X143234747Y-93170621D01*
X143294210Y-93197945D01*
X143319740Y-93209636D01*
X143373119Y-93234039D01*
X143439258Y-93264337D01*
X143463975Y-93275674D01*
X143537959Y-93306962D01*
X143616187Y-93336220D01*
X143636503Y-93343018D01*
X143699426Y-93364254D01*
X143780087Y-93392855D01*
X143856495Y-93420946D01*
X144018990Y-93481529D01*
X144159515Y-93533045D01*
X144271460Y-93573074D01*
X144278230Y-93575445D01*
X144335888Y-93596145D01*
X144412484Y-93624351D01*
X144489098Y-93653076D01*
X144581267Y-93686011D01*
X144683734Y-93719693D01*
X144757476Y-93741934D01*
X144849040Y-93767939D01*
X144948463Y-93796260D01*
X145016268Y-93815631D01*
X145134516Y-93849360D01*
X145276392Y-93889637D01*
X145428598Y-93932697D01*
X145577835Y-93974774D01*
X145629702Y-93989358D01*
X145713287Y-94012101D01*
X145795432Y-94033241D01*
X145858650Y-94048281D01*
X145859740Y-94048519D01*
X145921170Y-94062282D01*
X146003342Y-94081208D01*
X146089722Y-94101482D01*
X146099983Y-94103919D01*
X146176613Y-94121078D01*
X146242427Y-94133895D01*
X146285718Y-94140141D01*
X146291682Y-94140415D01*
X146326206Y-94144314D01*
X146387723Y-94154890D01*
X146465849Y-94170273D01*
X146511513Y-94179971D01*
X146646710Y-94209261D01*
X146766330Y-94234599D01*
X146875308Y-94256746D01*
X146978580Y-94276466D01*
X147081080Y-94294520D01*
X147187744Y-94311671D01*
X147303507Y-94328681D01*
X147433305Y-94346312D01*
X147582072Y-94365327D01*
X147754743Y-94386487D01*
X147956255Y-94410555D01*
X148160117Y-94434599D01*
X148278422Y-94447397D01*
X148418892Y-94460867D01*
X148565411Y-94473557D01*
X148701866Y-94484012D01*
X148725627Y-94485645D01*
X148864978Y-94495003D01*
X149023937Y-94505660D01*
X149183861Y-94516369D01*
X149326104Y-94525880D01*
X149339061Y-94526745D01*
X149456538Y-94532538D01*
X149603311Y-94536519D01*
X149773187Y-94538779D01*
X149959975Y-94539411D01*
X150157482Y-94538506D01*
X150359516Y-94536155D01*
X150559885Y-94532450D01*
X150752397Y-94527482D01*
X150930859Y-94521343D01*
X151089080Y-94514125D01*
X151220866Y-94505919D01*
X151313551Y-94497562D01*
X151436777Y-94484920D01*
X151574452Y-94472796D01*
X151707496Y-94462779D01*
X151792796Y-94457606D01*
X151863651Y-94453487D01*
X151933298Y-94448224D01*
X152006717Y-94441169D01*
X152088889Y-94431675D01*
X152184794Y-94419092D01*
X152299413Y-94402774D01*
X152437727Y-94382071D01*
X152604715Y-94356337D01*
X152770457Y-94330410D01*
X152918236Y-94306211D01*
X153080417Y-94277961D01*
X153250118Y-94247006D01*
X153420454Y-94214690D01*
X153584544Y-94182359D01*
X153735504Y-94151360D01*
X153866451Y-94123037D01*
X153970501Y-94098736D01*
X154016495Y-94086828D01*
X154065731Y-94074304D01*
X154141721Y-94056137D01*
X154233756Y-94034847D01*
X154323212Y-94014705D01*
X154449230Y-93985776D01*
X154561822Y-93957459D01*
X154674241Y-93926107D01*
X154799741Y-93888071D01*
X154907891Y-93853776D01*
X154981467Y-93830573D01*
X155071889Y-93802636D01*
X155157098Y-93776764D01*
X155242763Y-93750186D01*
X155328939Y-93722061D01*
X155396721Y-93698565D01*
X155456116Y-93677510D01*
X155539140Y-93648930D01*
X155632978Y-93617207D01*
X155693853Y-93596928D01*
X155800214Y-93561110D01*
X155924059Y-93518447D01*
X156046895Y-93475349D01*
X156115589Y-93450803D01*
X156212111Y-93415990D01*
X156305581Y-93382287D01*
X156384463Y-93353855D01*
X156431891Y-93336770D01*
X156501667Y-93310684D01*
X156593365Y-93275031D01*
X156698781Y-93233148D01*
X156809713Y-93188370D01*
X156917959Y-93144032D01*
X157015315Y-93103472D01*
X157093580Y-93070024D01*
X157144550Y-93047024D01*
X157145552Y-93046540D01*
X157231203Y-93009328D01*
X157296248Y-92995009D01*
X157351648Y-93004723D01*
X157408368Y-93039609D01*
X157453565Y-93078548D01*
X157522123Y-93137201D01*
X157605008Y-93202047D01*
X157682875Y-93258069D01*
X157760364Y-93315405D01*
X157803143Y-93360169D01*
X157811777Y-93394809D01*
X157786830Y-93421771D01*
X157728867Y-93443504D01*
X157725853Y-93444303D01*
X157552142Y-93489932D01*
X157388655Y-93533010D01*
X157239673Y-93572401D01*
X157109475Y-93606967D01*
X157002343Y-93635571D01*
X156922557Y-93657076D01*
X156874399Y-93670344D01*
X156867220Y-93672412D01*
X156832657Y-93689288D01*
X156834440Y-93707588D01*
X156870671Y-93726004D01*
X156939453Y-93743228D01*
X156979819Y-93750133D01*
X157164569Y-93778550D01*
X157316502Y-93802331D01*
X157440747Y-93822307D01*
X157542436Y-93839313D01*
X157626698Y-93854180D01*
X157668344Y-93861913D01*
X157757045Y-93877577D01*
X157848113Y-93891864D01*
X157917551Y-93901149D01*
X157990455Y-93911744D01*
X158058169Y-93925286D01*
X158085228Y-93932473D01*
X158111089Y-93940362D01*
X158132938Y-93948719D01*
X158151115Y-93960622D01*
X158165955Y-93979148D01*
X158177797Y-94007376D01*
X158186979Y-94048382D01*
X158193837Y-94105244D01*
X158198709Y-94181040D01*
X158201934Y-94278848D01*
X158203848Y-94401743D01*
X158204789Y-94552806D01*
X158205095Y-94735112D01*
X158205103Y-94951739D01*
X158205098Y-95025255D01*
X158204994Y-95248023D01*
X158204620Y-95435544D01*
X158203886Y-95590912D01*
X158202700Y-95717218D01*
X158200971Y-95817556D01*
X158198607Y-95895017D01*
X158195518Y-95952695D01*
X158191612Y-95993682D01*
X158186799Y-96021071D01*
X158180986Y-96037954D01*
X158174974Y-96046574D01*
X158169792Y-96049332D01*
X158159148Y-96051914D01*
X158141859Y-96054324D01*
X158116739Y-96056567D01*
X158082603Y-96058648D01*
X158038268Y-96060571D01*
X157982547Y-96062342D01*
X157914257Y-96063964D01*
X157832212Y-96065442D01*
X157735228Y-96066780D01*
X157622119Y-96067985D01*
X157491702Y-96069059D01*
X157342790Y-96070008D01*
X157174200Y-96070836D01*
X156984746Y-96071548D01*
X156773244Y-96072148D01*
X156538508Y-96072642D01*
X156279355Y-96073033D01*
X155994599Y-96073326D01*
X155683055Y-96073526D01*
X155343539Y-96073637D01*
X154974866Y-96073665D01*
X154575850Y-96073613D01*
X154145308Y-96073487D01*
X153682054Y-96073290D01*
X153184903Y-96073028D01*
X152652672Y-96072705D01*
X152084174Y-96072326D01*
X151633276Y-96072007D01*
X151115063Y-96071623D01*
X150596808Y-96071217D01*
X150080455Y-96070791D01*
X149567945Y-96070348D01*
X149061222Y-96069890D01*
X148562226Y-96069419D01*
X148072902Y-96068937D01*
X147595190Y-96068447D01*
X147131034Y-96067952D01*
X146682376Y-96067452D01*
X146251158Y-96066951D01*
X145839322Y-96066450D01*
X145448811Y-96065952D01*
X145081568Y-96065460D01*
X144739535Y-96064975D01*
X144424653Y-96064499D01*
X144138866Y-96064036D01*
X143884116Y-96063587D01*
X143662345Y-96063154D01*
X143475496Y-96062739D01*
X143358079Y-96062438D01*
X143057139Y-96061568D01*
X142792222Y-96060693D01*
X142561009Y-96059764D01*
X142361184Y-96058734D01*
X142190430Y-96057555D01*
X142046428Y-96056177D01*
X141926863Y-96054553D01*
X141829416Y-96052634D01*
X141751771Y-96050371D01*
X141691609Y-96047717D01*
X141646614Y-96044623D01*
X141614469Y-96041041D01*
X141592856Y-96036921D01*
X141579458Y-96032217D01*
X141571957Y-96026879D01*
X141570495Y-96025126D01*
X141565091Y-96009290D01*
X141560497Y-95975925D01*
X141556660Y-95922592D01*
X141553527Y-95846851D01*
X141551046Y-95746261D01*
X141549163Y-95618382D01*
X141547827Y-95460775D01*
X141546985Y-95270998D01*
X141546584Y-95046613D01*
X141546532Y-94913261D01*
X141546567Y-94682585D01*
X141546740Y-94487192D01*
X141547156Y-94324027D01*
X141547921Y-94190035D01*
X141549139Y-94082158D01*
X141550915Y-93997342D01*
X141553354Y-93932530D01*
X141556561Y-93884666D01*
X141560640Y-93850695D01*
X141565696Y-93827561D01*
X141571834Y-93812208D01*
X141579159Y-93801579D01*
X141584872Y-93795491D01*
X141617460Y-93767440D01*
X141637589Y-93757006D01*
X141678534Y-93754068D01*
X141747554Y-93746587D01*
X141834827Y-93735845D01*
X141930533Y-93723124D01*
X142024850Y-93709705D01*
X142107960Y-93696871D01*
X142140796Y-93691328D01*
X142221306Y-93677869D01*
X142327272Y-93661123D01*
X142446166Y-93643022D01*
X142565461Y-93625502D01*
X142591287Y-93621807D01*
X142719710Y-93602815D01*
X142813436Y-93587035D01*
X142875890Y-93573571D01*
X142910493Y-93561523D01*
X142920668Y-93549995D01*
X142910013Y-93538197D01*
X142884173Y-93529586D01*
X142828223Y-93515203D01*
X142749636Y-93496840D01*
X142655889Y-93476293D01*
X142624797Y-93469735D01*
X142514672Y-93446525D01*
X142404520Y-93422966D01*
X142306464Y-93401672D01*
X142232626Y-93385255D01*
X142227061Y-93383987D01*
X142144473Y-93365107D01*
X142063035Y-93346493D01*
X142007358Y-93333770D01*
X141927038Y-93307845D01*
X141881571Y-93275594D01*
X141872060Y-93238553D01*
X141899611Y-93198255D01*
X141905966Y-93192863D01*
X142038231Y-93086127D01*
X142144419Y-93001455D01*
X142227982Y-92936458D01*
X142292372Y-92888743D01*
X142341039Y-92855923D01*
X142377436Y-92835605D01*
X142405015Y-92825401D01*
X142427226Y-92822920D01*
X142438627Y-92824017D01*
G36*
X159872872Y-78239189D02*
G01*
X159872179Y-78378641D01*
X159870206Y-78498998D01*
X159867111Y-78596031D01*
X159863054Y-78665508D01*
X159858193Y-78703200D01*
X159855243Y-78708849D01*
X159840043Y-78692207D01*
X159819409Y-78649300D01*
X159804236Y-78608208D01*
X159730202Y-78440646D01*
X159624321Y-78279660D01*
X159493084Y-78131737D01*
X159342983Y-78003360D01*
X159180510Y-77901016D01*
X159033097Y-77837851D01*
X158978177Y-77816664D01*
X158942023Y-77797069D01*
X158933551Y-77787158D01*
X158952014Y-77781923D01*
X159004582Y-77777405D01*
X159087025Y-77773763D01*
X159195114Y-77771155D01*
X159324617Y-77769741D01*
X159403212Y-77769529D01*
X159872872Y-77769529D01*
X159872872Y-78239189D01*
X159872872Y-78239189D01*
G37*
X159872872Y-78239189D02*
X159872179Y-78378641D01*
X159870206Y-78498998D01*
X159867111Y-78596031D01*
X159863054Y-78665508D01*
X159858193Y-78703200D01*
X159855243Y-78708849D01*
X159840043Y-78692207D01*
X159819409Y-78649300D01*
X159804236Y-78608208D01*
X159730202Y-78440646D01*
X159624321Y-78279660D01*
X159493084Y-78131737D01*
X159342983Y-78003360D01*
X159180510Y-77901016D01*
X159033097Y-77837851D01*
X158978177Y-77816664D01*
X158942023Y-77797069D01*
X158933551Y-77787158D01*
X158952014Y-77781923D01*
X159004582Y-77777405D01*
X159087025Y-77773763D01*
X159195114Y-77771155D01*
X159324617Y-77769741D01*
X159403212Y-77769529D01*
X159872872Y-77769529D01*
X159872872Y-78239189D01*
G36*
X140525809Y-77770042D02*
G01*
X140646931Y-77771674D01*
X140735376Y-77774557D01*
X140793970Y-77778828D01*
X140825538Y-77784621D01*
X140833065Y-77791667D01*
X140811508Y-77810509D01*
X140766588Y-77830733D01*
X140748982Y-77836453D01*
X140584805Y-77903437D01*
X140426376Y-78003107D01*
X140279462Y-78129808D01*
X140149832Y-78277886D01*
X140043252Y-78441687D01*
X139971531Y-78598623D01*
X139947821Y-78656517D01*
X139926710Y-78696436D01*
X139914530Y-78708849D01*
X139909948Y-78690544D01*
X139905851Y-78639085D01*
X139902421Y-78559658D01*
X139899842Y-78457446D01*
X139898298Y-78337636D01*
X139897929Y-78239189D01*
X139897929Y-77769529D01*
X140369186Y-77769529D01*
X140525809Y-77770042D01*
X140525809Y-77770042D01*
G37*
X140525809Y-77770042D02*
X140646931Y-77771674D01*
X140735376Y-77774557D01*
X140793970Y-77778828D01*
X140825538Y-77784621D01*
X140833065Y-77791667D01*
X140811508Y-77810509D01*
X140766588Y-77830733D01*
X140748982Y-77836453D01*
X140584805Y-77903437D01*
X140426376Y-78003107D01*
X140279462Y-78129808D01*
X140149832Y-78277886D01*
X140043252Y-78441687D01*
X139971531Y-78598623D01*
X139947821Y-78656517D01*
X139926710Y-78696436D01*
X139914530Y-78708849D01*
X139909948Y-78690544D01*
X139905851Y-78639085D01*
X139902421Y-78559658D01*
X139899842Y-78457446D01*
X139898298Y-78337636D01*
X139897929Y-78239189D01*
X139897929Y-77769529D01*
X140369186Y-77769529D01*
X140525809Y-77770042D01*
G36*
X149940547Y-78584980D02*
G01*
X150028170Y-78595653D01*
X150083990Y-78603407D01*
X150321568Y-78646491D01*
X150536493Y-78707241D01*
X150742181Y-78790316D01*
X150952045Y-78900376D01*
X150971524Y-78911722D01*
X151104126Y-78994172D01*
X151226040Y-79080846D01*
X151343126Y-79177017D01*
X151461246Y-79287962D01*
X151586262Y-79418957D01*
X151724033Y-79575279D01*
X151773693Y-79633793D01*
X151826198Y-79675880D01*
X151868852Y-79686510D01*
X151924856Y-79691604D01*
X152007154Y-79705326D01*
X152105304Y-79725329D01*
X152208862Y-79749271D01*
X152307387Y-79774806D01*
X152390435Y-79799591D01*
X152422356Y-79810767D01*
X152624817Y-79903510D01*
X152824938Y-80025777D01*
X153014317Y-80170931D01*
X153184554Y-80332335D01*
X153327247Y-80503353D01*
X153361472Y-80552587D01*
X153418493Y-80645481D01*
X153475259Y-80749976D01*
X153526054Y-80854488D01*
X153565163Y-80947439D01*
X153583155Y-81001730D01*
X153599474Y-81050881D01*
X153622633Y-81089588D01*
X153659634Y-81124440D01*
X153717476Y-81162025D01*
X153803161Y-81208930D01*
X153803565Y-81209143D01*
X154031602Y-81347808D01*
X154250171Y-81516333D01*
X154453223Y-81708539D01*
X154634713Y-81918246D01*
X154788594Y-82139275D01*
X154884947Y-82314289D01*
X154915140Y-82379889D01*
X154937124Y-82434250D01*
X154946476Y-82466359D01*
X154946546Y-82467647D01*
X154964093Y-82523341D01*
X155014797Y-82594483D01*
X155097396Y-82679628D01*
X155210632Y-82777327D01*
X155228971Y-82792014D01*
X155459535Y-82996818D01*
X155668623Y-83226352D01*
X155850093Y-83473367D01*
X155955482Y-83649273D01*
X156023258Y-83788029D01*
X156086186Y-83943850D01*
X156141283Y-84106938D01*
X156185564Y-84267493D01*
X156216043Y-84415717D01*
X156229737Y-84541812D01*
X156230016Y-84550576D01*
X156243192Y-84571720D01*
X156279113Y-84614303D01*
X156333017Y-84673052D01*
X156400142Y-84742697D01*
X156437832Y-84780613D01*
X156646840Y-85011672D01*
X156820461Y-85253059D01*
X156957805Y-85503433D01*
X157026155Y-85667491D01*
X157077377Y-85833249D01*
X157120966Y-86026563D01*
X157155214Y-86237112D01*
X157178408Y-86454572D01*
X157188386Y-86646297D01*
X157200571Y-86674991D01*
X157231924Y-86722096D01*
X157275796Y-86777678D01*
X157278186Y-86780486D01*
X157423942Y-86967611D01*
X157543516Y-87159525D01*
X157641326Y-87365053D01*
X157721787Y-87593024D01*
X157766771Y-87757000D01*
X157780254Y-87813423D01*
X157790775Y-87865372D01*
X157798699Y-87918631D01*
X157804391Y-87978983D01*
X157808217Y-88052211D01*
X157810543Y-88144100D01*
X157811732Y-88260431D01*
X157812152Y-88406988D01*
X157812186Y-88475868D01*
X157812255Y-89012623D01*
X157910835Y-89137256D01*
X158049054Y-89342259D01*
X158153259Y-89564185D01*
X158223293Y-89801967D01*
X158258999Y-90054537D01*
X158260218Y-90320828D01*
X158226794Y-90599773D01*
X158165595Y-90865652D01*
X158152458Y-90923899D01*
X158151643Y-90974529D01*
X158163754Y-91035636D01*
X158172316Y-91066935D01*
X158210623Y-91203250D01*
X158239422Y-91312308D01*
X158260084Y-91403618D01*
X158273974Y-91486687D01*
X158282463Y-91571024D01*
X158286918Y-91666138D01*
X158288708Y-91781535D01*
X158289105Y-91878510D01*
X158288776Y-92018125D01*
X158286772Y-92126182D01*
X158282627Y-92209441D01*
X158275880Y-92274663D01*
X158266066Y-92328610D01*
X158255514Y-92368810D01*
X158238100Y-92438726D01*
X158228188Y-92500787D01*
X158227467Y-92534249D01*
X158238431Y-92558086D01*
X158268120Y-92595556D01*
X158318664Y-92648792D01*
X158392198Y-92719924D01*
X158490854Y-92811083D01*
X158616763Y-92924400D01*
X158626834Y-92933379D01*
X158731426Y-93027400D01*
X158827338Y-93115180D01*
X158910564Y-93192928D01*
X158977098Y-93256853D01*
X159022936Y-93303165D01*
X159044072Y-93328075D01*
X159044259Y-93328407D01*
X159048532Y-93343001D01*
X159052168Y-93371310D01*
X159055178Y-93415420D01*
X159057572Y-93477417D01*
X159059363Y-93559385D01*
X159060561Y-93663412D01*
X159061177Y-93791583D01*
X159061223Y-93945982D01*
X159060710Y-94128698D01*
X159059649Y-94341814D01*
X159058050Y-94587417D01*
X159055926Y-94867592D01*
X159053843Y-95119513D01*
X159051258Y-95418842D01*
X159048874Y-95682162D01*
X159046628Y-95911803D01*
X159044457Y-96110095D01*
X159042298Y-96279368D01*
X159040089Y-96421951D01*
X159037768Y-96540175D01*
X159035270Y-96636369D01*
X159032534Y-96712864D01*
X159029496Y-96771989D01*
X159026094Y-96816074D01*
X159022265Y-96847449D01*
X159017947Y-96868444D01*
X159013075Y-96881389D01*
X159007589Y-96888613D01*
X159006131Y-96889785D01*
X158995903Y-96892193D01*
X158971256Y-96894479D01*
X158931112Y-96896650D01*
X158874387Y-96898713D01*
X158800002Y-96900675D01*
X158706875Y-96902543D01*
X158593924Y-96904323D01*
X158460070Y-96906022D01*
X158304230Y-96907647D01*
X158125324Y-96909204D01*
X157922271Y-96910701D01*
X157693989Y-96912144D01*
X157439398Y-96913540D01*
X157157416Y-96914896D01*
X156846963Y-96916218D01*
X156506956Y-96917513D01*
X156136316Y-96918789D01*
X155733960Y-96920051D01*
X155298809Y-96921307D01*
X154829780Y-96922563D01*
X154325793Y-96923826D01*
X153785767Y-96925104D01*
X153208620Y-96926401D01*
X153132188Y-96926569D01*
X152271524Y-96928424D01*
X151448492Y-96930143D01*
X150662389Y-96931724D01*
X149912507Y-96933167D01*
X149198141Y-96934470D01*
X148518584Y-96935634D01*
X147873132Y-96936656D01*
X147261078Y-96937537D01*
X146681716Y-96938276D01*
X146134340Y-96938871D01*
X145618245Y-96939322D01*
X145132724Y-96939628D01*
X144677072Y-96939789D01*
X144250583Y-96939803D01*
X143852550Y-96939669D01*
X143482269Y-96939387D01*
X143139032Y-96938956D01*
X142822135Y-96938376D01*
X142530871Y-96937644D01*
X142264534Y-96936761D01*
X142022419Y-96935726D01*
X141803819Y-96934537D01*
X141608029Y-96933195D01*
X141434342Y-96931697D01*
X141282054Y-96930044D01*
X141150457Y-96928235D01*
X141038847Y-96926268D01*
X140946517Y-96924143D01*
X140872761Y-96921860D01*
X140816873Y-96919416D01*
X140778148Y-96916812D01*
X140755880Y-96914046D01*
X140749857Y-96912133D01*
X140743663Y-96906750D01*
X140738187Y-96898681D01*
X140733377Y-96885638D01*
X140729180Y-96865335D01*
X140725544Y-96835484D01*
X140722417Y-96793796D01*
X140719747Y-96737984D01*
X140717482Y-96665761D01*
X140715569Y-96574839D01*
X140713956Y-96462931D01*
X140712591Y-96327747D01*
X140711422Y-96167002D01*
X140710396Y-95978407D01*
X140709462Y-95759675D01*
X140708568Y-95508517D01*
X140707660Y-95222647D01*
X140707101Y-95038284D01*
X140706418Y-94774310D01*
X140705971Y-94520438D01*
X140705756Y-94279392D01*
X140705764Y-94053895D01*
X140705988Y-93846674D01*
X140706422Y-93660453D01*
X140707058Y-93497955D01*
X140707890Y-93361907D01*
X140708231Y-93326098D01*
X141144758Y-93326098D01*
X141156565Y-94869134D01*
X141158995Y-95156500D01*
X141161689Y-95419434D01*
X141164614Y-95656308D01*
X141167739Y-95865496D01*
X141171033Y-96045371D01*
X141174463Y-96194307D01*
X141177999Y-96310676D01*
X141181608Y-96392852D01*
X141185258Y-96439208D01*
X141187268Y-96448838D01*
X141189268Y-96451743D01*
X141192886Y-96454487D01*
X141199162Y-96457074D01*
X141209141Y-96459506D01*
X141223865Y-96461786D01*
X141244375Y-96463917D01*
X141271713Y-96465902D01*
X141306924Y-96467743D01*
X141351048Y-96469443D01*
X141405128Y-96471005D01*
X141470206Y-96472431D01*
X141547325Y-96473725D01*
X141637528Y-96474889D01*
X141741855Y-96475927D01*
X141861351Y-96476839D01*
X141997056Y-96477631D01*
X142150014Y-96478304D01*
X142321267Y-96478860D01*
X142511857Y-96479304D01*
X142722827Y-96479637D01*
X142955218Y-96479863D01*
X143210073Y-96479984D01*
X143488435Y-96480002D01*
X143791346Y-96479922D01*
X144119848Y-96479745D01*
X144474983Y-96479474D01*
X144857795Y-96479112D01*
X145269324Y-96478662D01*
X145710614Y-96478126D01*
X146182707Y-96477508D01*
X146686646Y-96476810D01*
X147223471Y-96476035D01*
X147794227Y-96475185D01*
X148399955Y-96474264D01*
X149041698Y-96473274D01*
X149720497Y-96472219D01*
X149882337Y-96471966D01*
X150600974Y-96470824D01*
X151282110Y-96469696D01*
X151926580Y-96468581D01*
X152535223Y-96467473D01*
X153108876Y-96466370D01*
X153648375Y-96465268D01*
X154154558Y-96464164D01*
X154628263Y-96463053D01*
X155070327Y-96461933D01*
X155481587Y-96460800D01*
X155862880Y-96459650D01*
X156215045Y-96458480D01*
X156538917Y-96457286D01*
X156835334Y-96456065D01*
X157105134Y-96454813D01*
X157349154Y-96453527D01*
X157568232Y-96452203D01*
X157763203Y-96450838D01*
X157934907Y-96449428D01*
X158084180Y-96447969D01*
X158211859Y-96446459D01*
X158318782Y-96444893D01*
X158405786Y-96443268D01*
X158473709Y-96441580D01*
X158523387Y-96439826D01*
X158555658Y-96438003D01*
X158571360Y-96436106D01*
X158573208Y-96435298D01*
X158575569Y-96412846D01*
X158577821Y-96355070D01*
X158579932Y-96264985D01*
X158581872Y-96145609D01*
X158583610Y-95999957D01*
X158585115Y-95831043D01*
X158586357Y-95641886D01*
X158587305Y-95435499D01*
X158587928Y-95214899D01*
X158588196Y-94983102D01*
X158588201Y-94963817D01*
X158588495Y-93515465D01*
X158526193Y-93457403D01*
X158470602Y-93407865D01*
X158413574Y-93360309D01*
X158404306Y-93353001D01*
X158332680Y-93295645D01*
X158242987Y-93221362D01*
X158142998Y-93136838D01*
X158040483Y-93048756D01*
X157943214Y-92963802D01*
X157858960Y-92888660D01*
X157795493Y-92830015D01*
X157788155Y-92822965D01*
X157723015Y-92756372D01*
X157685141Y-92704559D01*
X157671932Y-92658269D01*
X157680789Y-92608240D01*
X157709110Y-92545215D01*
X157709786Y-92543897D01*
X157733943Y-92489022D01*
X157763457Y-92410606D01*
X157793412Y-92322043D01*
X157805635Y-92282747D01*
X157852267Y-92065301D01*
X157861628Y-91848147D01*
X157833687Y-91634779D01*
X157812040Y-91551209D01*
X157761704Y-91395749D01*
X157711796Y-91268542D01*
X157664004Y-91173718D01*
X157646794Y-91147098D01*
X157615576Y-91071552D01*
X157617859Y-90987178D01*
X157649827Y-90909378D01*
X157675845Y-90859728D01*
X157707536Y-90788589D01*
X157738315Y-90710800D01*
X157740140Y-90705832D01*
X157759138Y-90651446D01*
X157772795Y-90603181D01*
X157782003Y-90553035D01*
X157787654Y-90493004D01*
X157790637Y-90415087D01*
X157791845Y-90311280D01*
X157792076Y-90239491D01*
X157792011Y-90118975D01*
X157790597Y-90028042D01*
X157786791Y-89957937D01*
X157779549Y-89899906D01*
X157767829Y-89845193D01*
X157750586Y-89785043D01*
X157730373Y-89721762D01*
X157691556Y-89612655D01*
X157652464Y-89528268D01*
X157606510Y-89455507D01*
X157577142Y-89417211D01*
X157492115Y-89311323D01*
X157428427Y-89230353D01*
X157383030Y-89169638D01*
X157352874Y-89124512D01*
X157334912Y-89090312D01*
X157326095Y-89062373D01*
X157323373Y-89036031D01*
X157323287Y-89028848D01*
X157329143Y-88971311D01*
X157343276Y-88924845D01*
X157343728Y-88923983D01*
X157356965Y-88885323D01*
X157372931Y-88818021D01*
X157390027Y-88731531D01*
X157406655Y-88635305D01*
X157421217Y-88538796D01*
X157432114Y-88451458D01*
X157437747Y-88382743D01*
X157438179Y-88365435D01*
X157432685Y-88267085D01*
X157417558Y-88145822D01*
X157395169Y-88015144D01*
X157367893Y-87888550D01*
X157338103Y-87779538D01*
X157331754Y-87760155D01*
X157231872Y-87519313D01*
X157101072Y-87295938D01*
X156936290Y-87085012D01*
X156886725Y-87030764D01*
X156753407Y-86889207D01*
X156742767Y-86580273D01*
X156737039Y-86460298D01*
X156728738Y-86347810D01*
X156718724Y-86252040D01*
X156707861Y-86182215D01*
X156704095Y-86165906D01*
X156685573Y-86091847D01*
X156669517Y-86020246D01*
X156663488Y-85989407D01*
X156642878Y-85913445D01*
X156605656Y-85814788D01*
X156556111Y-85702883D01*
X156498530Y-85587180D01*
X156437200Y-85477124D01*
X156412990Y-85437453D01*
X156357568Y-85361708D01*
X156279640Y-85271807D01*
X156187594Y-85176290D01*
X156089821Y-85083700D01*
X155994710Y-85002581D01*
X155958374Y-84974577D01*
X155897642Y-84926670D01*
X155849651Y-84883477D01*
X155822557Y-84852514D01*
X155819763Y-84846861D01*
X155814067Y-84815484D01*
X155806325Y-84754974D01*
X155797606Y-84674411D01*
X155789961Y-84593981D01*
X155749213Y-84331736D01*
X155674390Y-84083849D01*
X155564331Y-83847524D01*
X155417873Y-83619964D01*
X155347452Y-83529063D01*
X155172743Y-83336892D01*
X154977426Y-83166887D01*
X154807663Y-83046141D01*
X154733174Y-82996495D01*
X154670951Y-82953493D01*
X154627817Y-82921952D01*
X154610825Y-82907145D01*
X154601370Y-82882644D01*
X154584137Y-82829947D01*
X154561891Y-82757719D01*
X154545419Y-82702231D01*
X154457584Y-82466976D01*
X154338601Y-82253621D01*
X154189519Y-82063512D01*
X154011391Y-81897995D01*
X153810223Y-81761269D01*
X153732201Y-81721325D01*
X153637980Y-81680578D01*
X153541938Y-81644634D01*
X153458452Y-81619096D01*
X153428276Y-81612395D01*
X153375692Y-81597562D01*
X153335857Y-81570392D01*
X153303826Y-81524189D01*
X153274658Y-81452257D01*
X153249725Y-81370499D01*
X153181321Y-81160753D01*
X153102050Y-80981276D01*
X153007744Y-80824589D01*
X152894234Y-80683212D01*
X152829301Y-80616245D01*
X152738508Y-80535780D01*
X152628750Y-80450830D01*
X152511306Y-80369204D01*
X152397451Y-80298712D01*
X152298464Y-80247163D01*
X152292445Y-80244493D01*
X152201543Y-80210081D01*
X152091617Y-80176496D01*
X151974668Y-80146645D01*
X151862695Y-80123435D01*
X151767698Y-80109775D01*
X151726568Y-80107381D01*
X151656423Y-80102694D01*
X151594292Y-80091674D01*
X151569212Y-80083419D01*
X151536648Y-80058510D01*
X151489721Y-80009844D01*
X151435666Y-79945341D01*
X151399190Y-79897378D01*
X151251976Y-79711878D01*
X151103426Y-79558811D01*
X150947275Y-79432589D01*
X150777259Y-79327623D01*
X150736912Y-79306595D01*
X150575571Y-79232696D01*
X150422810Y-79180850D01*
X150261961Y-79146203D01*
X150125023Y-79128488D01*
X149945707Y-79115449D01*
X149789012Y-79117153D01*
X149643218Y-79135467D01*
X149496606Y-79172257D01*
X149337456Y-79229390D01*
X149243212Y-79268906D01*
X149076313Y-79353589D01*
X148916179Y-79457585D01*
X148768668Y-79575588D01*
X148639638Y-79702290D01*
X148534946Y-79832383D01*
X148460449Y-79960562D01*
X148448221Y-79989167D01*
X148427047Y-80032103D01*
X148398707Y-80060998D01*
X148355121Y-80079511D01*
X148288211Y-80091299D01*
X148206023Y-80098836D01*
X147957238Y-80134457D01*
X147715347Y-80201786D01*
X147484662Y-80298103D01*
X147269497Y-80420684D01*
X147074165Y-80566810D01*
X146902980Y-80733759D01*
X146760255Y-80918808D01*
X146676456Y-81063880D01*
X146643550Y-81136084D01*
X146610721Y-81218847D01*
X146581718Y-81301359D01*
X146560290Y-81372810D01*
X146550185Y-81422391D01*
X146549853Y-81428915D01*
X146536749Y-81475251D01*
X146495201Y-81515436D01*
X146421854Y-81551742D01*
X146319815Y-81584666D01*
X146128346Y-81650706D01*
X145958627Y-81738799D01*
X145803703Y-81853649D01*
X145656616Y-81999959D01*
X145591289Y-82077118D01*
X145501679Y-82201506D01*
X145411092Y-82351606D01*
X145325974Y-82515514D01*
X145252770Y-82681327D01*
X145226153Y-82751384D01*
X145197795Y-82822192D01*
X145168840Y-82868809D01*
X145129516Y-82904272D01*
X145094469Y-82927090D01*
X144956804Y-83012781D01*
X144847324Y-83085585D01*
X144759916Y-83149753D01*
X144689268Y-83208812D01*
X144600482Y-83297919D01*
X144503487Y-83410730D01*
X144406637Y-83536373D01*
X144318290Y-83663977D01*
X144246800Y-83782670D01*
X144243456Y-83788849D01*
X144216782Y-83839411D01*
X144194898Y-83884870D01*
X144176521Y-83930524D01*
X144160370Y-83981670D01*
X144145161Y-84043608D01*
X144129613Y-84121634D01*
X144112443Y-84221047D01*
X144092368Y-84347145D01*
X144068107Y-84505224D01*
X144064808Y-84526887D01*
X144040162Y-84627000D01*
X143995809Y-84717186D01*
X143927219Y-84803566D01*
X143829863Y-84892260D01*
X143748319Y-84954553D01*
X143592903Y-85082287D01*
X143462516Y-85224507D01*
X143382307Y-85335129D01*
X143265768Y-85535465D01*
X143178932Y-85744285D01*
X143120370Y-85966982D01*
X143088650Y-86208948D01*
X143082160Y-86466368D01*
X143086139Y-86683253D01*
X142905476Y-86870278D01*
X142729677Y-87076456D01*
X142589336Y-87295239D01*
X142483211Y-87529313D01*
X142410060Y-87781365D01*
X142371433Y-88025378D01*
X142363888Y-88154816D01*
X142365108Y-88298860D01*
X142374197Y-88446420D01*
X142390257Y-88586404D01*
X142412392Y-88707722D01*
X142432435Y-88779770D01*
X142455163Y-88865984D01*
X142453250Y-88929608D01*
X142424987Y-88978779D01*
X142383550Y-89012334D01*
X142344668Y-89046521D01*
X142292850Y-89103613D01*
X142235701Y-89174144D01*
X142180824Y-89248647D01*
X142135824Y-89317653D01*
X142129266Y-89328925D01*
X142055055Y-89491888D01*
X142001177Y-89679840D01*
X141969083Y-89884404D01*
X141960224Y-90097201D01*
X141969281Y-90253114D01*
X141988203Y-90385961D01*
X142016938Y-90522826D01*
X142052372Y-90651661D01*
X142091390Y-90760419D01*
X142111843Y-90804616D01*
X142137759Y-90880462D01*
X142129541Y-90949809D01*
X142090688Y-91016936D01*
X142007625Y-91152383D01*
X141941689Y-91313100D01*
X141896084Y-91488633D01*
X141874017Y-91668529D01*
X141872445Y-91728823D01*
X141879311Y-91843261D01*
X141898129Y-91969837D01*
X141926315Y-92098217D01*
X141961281Y-92218067D01*
X142000442Y-92319053D01*
X142036481Y-92384338D01*
X142056721Y-92432494D01*
X142064117Y-92483817D01*
X142060568Y-92512663D01*
X142046710Y-92541801D01*
X142017728Y-92576986D01*
X141968804Y-92623970D01*
X141895124Y-92688506D01*
X141886796Y-92695644D01*
X141795615Y-92772419D01*
X141693514Y-92856368D01*
X141595625Y-92935130D01*
X141543195Y-92976318D01*
X141458654Y-93043917D01*
X141370483Y-93117825D01*
X141292390Y-93186423D01*
X141260836Y-93215643D01*
X141144758Y-93326098D01*
X140708231Y-93326098D01*
X140708910Y-93255031D01*
X140710111Y-93180053D01*
X140711486Y-93139697D01*
X140712029Y-93134132D01*
X140726540Y-93102028D01*
X140762661Y-93050340D01*
X140821762Y-92977396D01*
X140905216Y-92881527D01*
X141014393Y-92761061D01*
X141049763Y-92722691D01*
X141140247Y-92624344D01*
X141222429Y-92534089D01*
X141292577Y-92456100D01*
X141346961Y-92394548D01*
X141381851Y-92353606D01*
X141393141Y-92338646D01*
X141396327Y-92299525D01*
X141381217Y-92234352D01*
X141370750Y-92203747D01*
X141354990Y-92153162D01*
X141343151Y-92094474D01*
X141334390Y-92020317D01*
X141327859Y-91923322D01*
X141322714Y-91796120D01*
X141322227Y-91780941D01*
X141318908Y-91656558D01*
X141318275Y-91561523D01*
X141320890Y-91486903D01*
X141327319Y-91423766D01*
X141338126Y-91363180D01*
X141352499Y-91301696D01*
X141382035Y-91202784D01*
X141422205Y-91092836D01*
X141464783Y-90994194D01*
X141468662Y-90986207D01*
X141544539Y-90831941D01*
X141479067Y-90667038D01*
X141426996Y-90500070D01*
X141393313Y-90314409D01*
X141378724Y-90121780D01*
X141383934Y-89933906D01*
X141409651Y-89762513D01*
X141421728Y-89715151D01*
X141443277Y-89639656D01*
X141467085Y-89556492D01*
X141474863Y-89529385D01*
X141513474Y-89419389D01*
X141569973Y-89290501D01*
X141638729Y-89154101D01*
X141714108Y-89021573D01*
X141768201Y-88936602D01*
X141806860Y-88879951D01*
X141835229Y-88836507D01*
X141854202Y-88799240D01*
X141864673Y-88761121D01*
X141867536Y-88715119D01*
X141863683Y-88654207D01*
X141854009Y-88571353D01*
X141839406Y-88459530D01*
X141834080Y-88418359D01*
X141824931Y-88319565D01*
X141820836Y-88214915D01*
X141822478Y-88124328D01*
X141823498Y-88110318D01*
X141835171Y-88003275D01*
X141852684Y-87879588D01*
X141874067Y-87750474D01*
X141897350Y-87627152D01*
X141920563Y-87520838D01*
X141939468Y-87449933D01*
X142022165Y-87228505D01*
X142132257Y-87004878D01*
X142262465Y-86792181D01*
X142405512Y-86603540D01*
X142414638Y-86592934D01*
X142456393Y-86543372D01*
X142482658Y-86504181D01*
X142497842Y-86463320D01*
X142506349Y-86408748D01*
X142512588Y-86328422D01*
X142512849Y-86324556D01*
X142538637Y-86104652D01*
X142585408Y-85871626D01*
X142649537Y-85639184D01*
X142727398Y-85421027D01*
X142788160Y-85284095D01*
X142886259Y-85105680D01*
X143001445Y-84933473D01*
X143127267Y-84775689D01*
X143257279Y-84640545D01*
X143362444Y-84552417D01*
X143416031Y-84510332D01*
X143455625Y-84474547D01*
X143472229Y-84453536D01*
X143479059Y-84426030D01*
X143492184Y-84370530D01*
X143509397Y-84296431D01*
X143520316Y-84248925D01*
X143584261Y-84008757D01*
X143663421Y-83787086D01*
X143762685Y-83572684D01*
X143886941Y-83354318D01*
X143958405Y-83242510D01*
X144051276Y-83114247D01*
X144160902Y-82983118D01*
X144279349Y-82857332D01*
X144398685Y-82745100D01*
X144510977Y-82654633D01*
X144556193Y-82623786D01*
X144647444Y-82564470D01*
X144712014Y-82518119D01*
X144756339Y-82478380D01*
X144786855Y-82438903D01*
X144810000Y-82393334D01*
X144823015Y-82360455D01*
X144937735Y-82104502D01*
X145083922Y-81867474D01*
X145263820Y-81645932D01*
X145341515Y-81565062D01*
X145535826Y-81391498D01*
X145734181Y-81254563D01*
X145920567Y-81160224D01*
X146005438Y-81123179D01*
X146060560Y-81095286D01*
X146092077Y-81072224D01*
X146106135Y-81049674D01*
X146108947Y-81027776D01*
X146117514Y-80997579D01*
X146140496Y-80942128D01*
X146173822Y-80869755D01*
X146213415Y-80788791D01*
X146255203Y-80707569D01*
X146295112Y-80634420D01*
X146328918Y-80577906D01*
X146480372Y-80376496D01*
X146659987Y-80193917D01*
X146862517Y-80033380D01*
X147082718Y-79898095D01*
X147315343Y-79791274D01*
X147555147Y-79716129D01*
X147796884Y-79675870D01*
X147803320Y-79675303D01*
X147880972Y-79667812D01*
X147931609Y-79658572D01*
X147966444Y-79642938D01*
X147996694Y-79616262D01*
X148025714Y-79583159D01*
X148063734Y-79540694D01*
X148121860Y-79478581D01*
X148193041Y-79404235D01*
X148270226Y-79325072D01*
X148294091Y-79300895D01*
X148523739Y-79094060D01*
X148768901Y-78922163D01*
X149030830Y-78784562D01*
X149310775Y-78680613D01*
X149609987Y-78609672D01*
X149652669Y-78602469D01*
X149740435Y-78589124D01*
X149809275Y-78581743D01*
X149871780Y-78580352D01*
X149940547Y-78584980D01*
X149940547Y-78584980D01*
G37*
X149940547Y-78584980D02*
X150028170Y-78595653D01*
X150083990Y-78603407D01*
X150321568Y-78646491D01*
X150536493Y-78707241D01*
X150742181Y-78790316D01*
X150952045Y-78900376D01*
X150971524Y-78911722D01*
X151104126Y-78994172D01*
X151226040Y-79080846D01*
X151343126Y-79177017D01*
X151461246Y-79287962D01*
X151586262Y-79418957D01*
X151724033Y-79575279D01*
X151773693Y-79633793D01*
X151826198Y-79675880D01*
X151868852Y-79686510D01*
X151924856Y-79691604D01*
X152007154Y-79705326D01*
X152105304Y-79725329D01*
X152208862Y-79749271D01*
X152307387Y-79774806D01*
X152390435Y-79799591D01*
X152422356Y-79810767D01*
X152624817Y-79903510D01*
X152824938Y-80025777D01*
X153014317Y-80170931D01*
X153184554Y-80332335D01*
X153327247Y-80503353D01*
X153361472Y-80552587D01*
X153418493Y-80645481D01*
X153475259Y-80749976D01*
X153526054Y-80854488D01*
X153565163Y-80947439D01*
X153583155Y-81001730D01*
X153599474Y-81050881D01*
X153622633Y-81089588D01*
X153659634Y-81124440D01*
X153717476Y-81162025D01*
X153803161Y-81208930D01*
X153803565Y-81209143D01*
X154031602Y-81347808D01*
X154250171Y-81516333D01*
X154453223Y-81708539D01*
X154634713Y-81918246D01*
X154788594Y-82139275D01*
X154884947Y-82314289D01*
X154915140Y-82379889D01*
X154937124Y-82434250D01*
X154946476Y-82466359D01*
X154946546Y-82467647D01*
X154964093Y-82523341D01*
X155014797Y-82594483D01*
X155097396Y-82679628D01*
X155210632Y-82777327D01*
X155228971Y-82792014D01*
X155459535Y-82996818D01*
X155668623Y-83226352D01*
X155850093Y-83473367D01*
X155955482Y-83649273D01*
X156023258Y-83788029D01*
X156086186Y-83943850D01*
X156141283Y-84106938D01*
X156185564Y-84267493D01*
X156216043Y-84415717D01*
X156229737Y-84541812D01*
X156230016Y-84550576D01*
X156243192Y-84571720D01*
X156279113Y-84614303D01*
X156333017Y-84673052D01*
X156400142Y-84742697D01*
X156437832Y-84780613D01*
X156646840Y-85011672D01*
X156820461Y-85253059D01*
X156957805Y-85503433D01*
X157026155Y-85667491D01*
X157077377Y-85833249D01*
X157120966Y-86026563D01*
X157155214Y-86237112D01*
X157178408Y-86454572D01*
X157188386Y-86646297D01*
X157200571Y-86674991D01*
X157231924Y-86722096D01*
X157275796Y-86777678D01*
X157278186Y-86780486D01*
X157423942Y-86967611D01*
X157543516Y-87159525D01*
X157641326Y-87365053D01*
X157721787Y-87593024D01*
X157766771Y-87757000D01*
X157780254Y-87813423D01*
X157790775Y-87865372D01*
X157798699Y-87918631D01*
X157804391Y-87978983D01*
X157808217Y-88052211D01*
X157810543Y-88144100D01*
X157811732Y-88260431D01*
X157812152Y-88406988D01*
X157812186Y-88475868D01*
X157812255Y-89012623D01*
X157910835Y-89137256D01*
X158049054Y-89342259D01*
X158153259Y-89564185D01*
X158223293Y-89801967D01*
X158258999Y-90054537D01*
X158260218Y-90320828D01*
X158226794Y-90599773D01*
X158165595Y-90865652D01*
X158152458Y-90923899D01*
X158151643Y-90974529D01*
X158163754Y-91035636D01*
X158172316Y-91066935D01*
X158210623Y-91203250D01*
X158239422Y-91312308D01*
X158260084Y-91403618D01*
X158273974Y-91486687D01*
X158282463Y-91571024D01*
X158286918Y-91666138D01*
X158288708Y-91781535D01*
X158289105Y-91878510D01*
X158288776Y-92018125D01*
X158286772Y-92126182D01*
X158282627Y-92209441D01*
X158275880Y-92274663D01*
X158266066Y-92328610D01*
X158255514Y-92368810D01*
X158238100Y-92438726D01*
X158228188Y-92500787D01*
X158227467Y-92534249D01*
X158238431Y-92558086D01*
X158268120Y-92595556D01*
X158318664Y-92648792D01*
X158392198Y-92719924D01*
X158490854Y-92811083D01*
X158616763Y-92924400D01*
X158626834Y-92933379D01*
X158731426Y-93027400D01*
X158827338Y-93115180D01*
X158910564Y-93192928D01*
X158977098Y-93256853D01*
X159022936Y-93303165D01*
X159044072Y-93328075D01*
X159044259Y-93328407D01*
X159048532Y-93343001D01*
X159052168Y-93371310D01*
X159055178Y-93415420D01*
X159057572Y-93477417D01*
X159059363Y-93559385D01*
X159060561Y-93663412D01*
X159061177Y-93791583D01*
X159061223Y-93945982D01*
X159060710Y-94128698D01*
X159059649Y-94341814D01*
X159058050Y-94587417D01*
X159055926Y-94867592D01*
X159053843Y-95119513D01*
X159051258Y-95418842D01*
X159048874Y-95682162D01*
X159046628Y-95911803D01*
X159044457Y-96110095D01*
X159042298Y-96279368D01*
X159040089Y-96421951D01*
X159037768Y-96540175D01*
X159035270Y-96636369D01*
X159032534Y-96712864D01*
X159029496Y-96771989D01*
X159026094Y-96816074D01*
X159022265Y-96847449D01*
X159017947Y-96868444D01*
X159013075Y-96881389D01*
X159007589Y-96888613D01*
X159006131Y-96889785D01*
X158995903Y-96892193D01*
X158971256Y-96894479D01*
X158931112Y-96896650D01*
X158874387Y-96898713D01*
X158800002Y-96900675D01*
X158706875Y-96902543D01*
X158593924Y-96904323D01*
X158460070Y-96906022D01*
X158304230Y-96907647D01*
X158125324Y-96909204D01*
X157922271Y-96910701D01*
X157693989Y-96912144D01*
X157439398Y-96913540D01*
X157157416Y-96914896D01*
X156846963Y-96916218D01*
X156506956Y-96917513D01*
X156136316Y-96918789D01*
X155733960Y-96920051D01*
X155298809Y-96921307D01*
X154829780Y-96922563D01*
X154325793Y-96923826D01*
X153785767Y-96925104D01*
X153208620Y-96926401D01*
X153132188Y-96926569D01*
X152271524Y-96928424D01*
X151448492Y-96930143D01*
X150662389Y-96931724D01*
X149912507Y-96933167D01*
X149198141Y-96934470D01*
X148518584Y-96935634D01*
X147873132Y-96936656D01*
X147261078Y-96937537D01*
X146681716Y-96938276D01*
X146134340Y-96938871D01*
X145618245Y-96939322D01*
X145132724Y-96939628D01*
X144677072Y-96939789D01*
X144250583Y-96939803D01*
X143852550Y-96939669D01*
X143482269Y-96939387D01*
X143139032Y-96938956D01*
X142822135Y-96938376D01*
X142530871Y-96937644D01*
X142264534Y-96936761D01*
X142022419Y-96935726D01*
X141803819Y-96934537D01*
X141608029Y-96933195D01*
X141434342Y-96931697D01*
X141282054Y-96930044D01*
X141150457Y-96928235D01*
X141038847Y-96926268D01*
X140946517Y-96924143D01*
X140872761Y-96921860D01*
X140816873Y-96919416D01*
X140778148Y-96916812D01*
X140755880Y-96914046D01*
X140749857Y-96912133D01*
X140743663Y-96906750D01*
X140738187Y-96898681D01*
X140733377Y-96885638D01*
X140729180Y-96865335D01*
X140725544Y-96835484D01*
X140722417Y-96793796D01*
X140719747Y-96737984D01*
X140717482Y-96665761D01*
X140715569Y-96574839D01*
X140713956Y-96462931D01*
X140712591Y-96327747D01*
X140711422Y-96167002D01*
X140710396Y-95978407D01*
X140709462Y-95759675D01*
X140708568Y-95508517D01*
X140707660Y-95222647D01*
X140707101Y-95038284D01*
X140706418Y-94774310D01*
X140705971Y-94520438D01*
X140705756Y-94279392D01*
X140705764Y-94053895D01*
X140705988Y-93846674D01*
X140706422Y-93660453D01*
X140707058Y-93497955D01*
X140707890Y-93361907D01*
X140708231Y-93326098D01*
X141144758Y-93326098D01*
X141156565Y-94869134D01*
X141158995Y-95156500D01*
X141161689Y-95419434D01*
X141164614Y-95656308D01*
X141167739Y-95865496D01*
X141171033Y-96045371D01*
X141174463Y-96194307D01*
X141177999Y-96310676D01*
X141181608Y-96392852D01*
X141185258Y-96439208D01*
X141187268Y-96448838D01*
X141189268Y-96451743D01*
X141192886Y-96454487D01*
X141199162Y-96457074D01*
X141209141Y-96459506D01*
X141223865Y-96461786D01*
X141244375Y-96463917D01*
X141271713Y-96465902D01*
X141306924Y-96467743D01*
X141351048Y-96469443D01*
X141405128Y-96471005D01*
X141470206Y-96472431D01*
X141547325Y-96473725D01*
X141637528Y-96474889D01*
X141741855Y-96475927D01*
X141861351Y-96476839D01*
X141997056Y-96477631D01*
X142150014Y-96478304D01*
X142321267Y-96478860D01*
X142511857Y-96479304D01*
X142722827Y-96479637D01*
X142955218Y-96479863D01*
X143210073Y-96479984D01*
X143488435Y-96480002D01*
X143791346Y-96479922D01*
X144119848Y-96479745D01*
X144474983Y-96479474D01*
X144857795Y-96479112D01*
X145269324Y-96478662D01*
X145710614Y-96478126D01*
X146182707Y-96477508D01*
X146686646Y-96476810D01*
X147223471Y-96476035D01*
X147794227Y-96475185D01*
X148399955Y-96474264D01*
X149041698Y-96473274D01*
X149720497Y-96472219D01*
X149882337Y-96471966D01*
X150600974Y-96470824D01*
X151282110Y-96469696D01*
X151926580Y-96468581D01*
X152535223Y-96467473D01*
X153108876Y-96466370D01*
X153648375Y-96465268D01*
X154154558Y-96464164D01*
X154628263Y-96463053D01*
X155070327Y-96461933D01*
X155481587Y-96460800D01*
X155862880Y-96459650D01*
X156215045Y-96458480D01*
X156538917Y-96457286D01*
X156835334Y-96456065D01*
X157105134Y-96454813D01*
X157349154Y-96453527D01*
X157568232Y-96452203D01*
X157763203Y-96450838D01*
X157934907Y-96449428D01*
X158084180Y-96447969D01*
X158211859Y-96446459D01*
X158318782Y-96444893D01*
X158405786Y-96443268D01*
X158473709Y-96441580D01*
X158523387Y-96439826D01*
X158555658Y-96438003D01*
X158571360Y-96436106D01*
X158573208Y-96435298D01*
X158575569Y-96412846D01*
X158577821Y-96355070D01*
X158579932Y-96264985D01*
X158581872Y-96145609D01*
X158583610Y-95999957D01*
X158585115Y-95831043D01*
X158586357Y-95641886D01*
X158587305Y-95435499D01*
X158587928Y-95214899D01*
X158588196Y-94983102D01*
X158588201Y-94963817D01*
X158588495Y-93515465D01*
X158526193Y-93457403D01*
X158470602Y-93407865D01*
X158413574Y-93360309D01*
X158404306Y-93353001D01*
X158332680Y-93295645D01*
X158242987Y-93221362D01*
X158142998Y-93136838D01*
X158040483Y-93048756D01*
X157943214Y-92963802D01*
X157858960Y-92888660D01*
X157795493Y-92830015D01*
X157788155Y-92822965D01*
X157723015Y-92756372D01*
X157685141Y-92704559D01*
X157671932Y-92658269D01*
X157680789Y-92608240D01*
X157709110Y-92545215D01*
X157709786Y-92543897D01*
X157733943Y-92489022D01*
X157763457Y-92410606D01*
X157793412Y-92322043D01*
X157805635Y-92282747D01*
X157852267Y-92065301D01*
X157861628Y-91848147D01*
X157833687Y-91634779D01*
X157812040Y-91551209D01*
X157761704Y-91395749D01*
X157711796Y-91268542D01*
X157664004Y-91173718D01*
X157646794Y-91147098D01*
X157615576Y-91071552D01*
X157617859Y-90987178D01*
X157649827Y-90909378D01*
X157675845Y-90859728D01*
X157707536Y-90788589D01*
X157738315Y-90710800D01*
X157740140Y-90705832D01*
X157759138Y-90651446D01*
X157772795Y-90603181D01*
X157782003Y-90553035D01*
X157787654Y-90493004D01*
X157790637Y-90415087D01*
X157791845Y-90311280D01*
X157792076Y-90239491D01*
X157792011Y-90118975D01*
X157790597Y-90028042D01*
X157786791Y-89957937D01*
X157779549Y-89899906D01*
X157767829Y-89845193D01*
X157750586Y-89785043D01*
X157730373Y-89721762D01*
X157691556Y-89612655D01*
X157652464Y-89528268D01*
X157606510Y-89455507D01*
X157577142Y-89417211D01*
X157492115Y-89311323D01*
X157428427Y-89230353D01*
X157383030Y-89169638D01*
X157352874Y-89124512D01*
X157334912Y-89090312D01*
X157326095Y-89062373D01*
X157323373Y-89036031D01*
X157323287Y-89028848D01*
X157329143Y-88971311D01*
X157343276Y-88924845D01*
X157343728Y-88923983D01*
X157356965Y-88885323D01*
X157372931Y-88818021D01*
X157390027Y-88731531D01*
X157406655Y-88635305D01*
X157421217Y-88538796D01*
X157432114Y-88451458D01*
X157437747Y-88382743D01*
X157438179Y-88365435D01*
X157432685Y-88267085D01*
X157417558Y-88145822D01*
X157395169Y-88015144D01*
X157367893Y-87888550D01*
X157338103Y-87779538D01*
X157331754Y-87760155D01*
X157231872Y-87519313D01*
X157101072Y-87295938D01*
X156936290Y-87085012D01*
X156886725Y-87030764D01*
X156753407Y-86889207D01*
X156742767Y-86580273D01*
X156737039Y-86460298D01*
X156728738Y-86347810D01*
X156718724Y-86252040D01*
X156707861Y-86182215D01*
X156704095Y-86165906D01*
X156685573Y-86091847D01*
X156669517Y-86020246D01*
X156663488Y-85989407D01*
X156642878Y-85913445D01*
X156605656Y-85814788D01*
X156556111Y-85702883D01*
X156498530Y-85587180D01*
X156437200Y-85477124D01*
X156412990Y-85437453D01*
X156357568Y-85361708D01*
X156279640Y-85271807D01*
X156187594Y-85176290D01*
X156089821Y-85083700D01*
X155994710Y-85002581D01*
X155958374Y-84974577D01*
X155897642Y-84926670D01*
X155849651Y-84883477D01*
X155822557Y-84852514D01*
X155819763Y-84846861D01*
X155814067Y-84815484D01*
X155806325Y-84754974D01*
X155797606Y-84674411D01*
X155789961Y-84593981D01*
X155749213Y-84331736D01*
X155674390Y-84083849D01*
X155564331Y-83847524D01*
X155417873Y-83619964D01*
X155347452Y-83529063D01*
X155172743Y-83336892D01*
X154977426Y-83166887D01*
X154807663Y-83046141D01*
X154733174Y-82996495D01*
X154670951Y-82953493D01*
X154627817Y-82921952D01*
X154610825Y-82907145D01*
X154601370Y-82882644D01*
X154584137Y-82829947D01*
X154561891Y-82757719D01*
X154545419Y-82702231D01*
X154457584Y-82466976D01*
X154338601Y-82253621D01*
X154189519Y-82063512D01*
X154011391Y-81897995D01*
X153810223Y-81761269D01*
X153732201Y-81721325D01*
X153637980Y-81680578D01*
X153541938Y-81644634D01*
X153458452Y-81619096D01*
X153428276Y-81612395D01*
X153375692Y-81597562D01*
X153335857Y-81570392D01*
X153303826Y-81524189D01*
X153274658Y-81452257D01*
X153249725Y-81370499D01*
X153181321Y-81160753D01*
X153102050Y-80981276D01*
X153007744Y-80824589D01*
X152894234Y-80683212D01*
X152829301Y-80616245D01*
X152738508Y-80535780D01*
X152628750Y-80450830D01*
X152511306Y-80369204D01*
X152397451Y-80298712D01*
X152298464Y-80247163D01*
X152292445Y-80244493D01*
X152201543Y-80210081D01*
X152091617Y-80176496D01*
X151974668Y-80146645D01*
X151862695Y-80123435D01*
X151767698Y-80109775D01*
X151726568Y-80107381D01*
X151656423Y-80102694D01*
X151594292Y-80091674D01*
X151569212Y-80083419D01*
X151536648Y-80058510D01*
X151489721Y-80009844D01*
X151435666Y-79945341D01*
X151399190Y-79897378D01*
X151251976Y-79711878D01*
X151103426Y-79558811D01*
X150947275Y-79432589D01*
X150777259Y-79327623D01*
X150736912Y-79306595D01*
X150575571Y-79232696D01*
X150422810Y-79180850D01*
X150261961Y-79146203D01*
X150125023Y-79128488D01*
X149945707Y-79115449D01*
X149789012Y-79117153D01*
X149643218Y-79135467D01*
X149496606Y-79172257D01*
X149337456Y-79229390D01*
X149243212Y-79268906D01*
X149076313Y-79353589D01*
X148916179Y-79457585D01*
X148768668Y-79575588D01*
X148639638Y-79702290D01*
X148534946Y-79832383D01*
X148460449Y-79960562D01*
X148448221Y-79989167D01*
X148427047Y-80032103D01*
X148398707Y-80060998D01*
X148355121Y-80079511D01*
X148288211Y-80091299D01*
X148206023Y-80098836D01*
X147957238Y-80134457D01*
X147715347Y-80201786D01*
X147484662Y-80298103D01*
X147269497Y-80420684D01*
X147074165Y-80566810D01*
X146902980Y-80733759D01*
X146760255Y-80918808D01*
X146676456Y-81063880D01*
X146643550Y-81136084D01*
X146610721Y-81218847D01*
X146581718Y-81301359D01*
X146560290Y-81372810D01*
X146550185Y-81422391D01*
X146549853Y-81428915D01*
X146536749Y-81475251D01*
X146495201Y-81515436D01*
X146421854Y-81551742D01*
X146319815Y-81584666D01*
X146128346Y-81650706D01*
X145958627Y-81738799D01*
X145803703Y-81853649D01*
X145656616Y-81999959D01*
X145591289Y-82077118D01*
X145501679Y-82201506D01*
X145411092Y-82351606D01*
X145325974Y-82515514D01*
X145252770Y-82681327D01*
X145226153Y-82751384D01*
X145197795Y-82822192D01*
X145168840Y-82868809D01*
X145129516Y-82904272D01*
X145094469Y-82927090D01*
X144956804Y-83012781D01*
X144847324Y-83085585D01*
X144759916Y-83149753D01*
X144689268Y-83208812D01*
X144600482Y-83297919D01*
X144503487Y-83410730D01*
X144406637Y-83536373D01*
X144318290Y-83663977D01*
X144246800Y-83782670D01*
X144243456Y-83788849D01*
X144216782Y-83839411D01*
X144194898Y-83884870D01*
X144176521Y-83930524D01*
X144160370Y-83981670D01*
X144145161Y-84043608D01*
X144129613Y-84121634D01*
X144112443Y-84221047D01*
X144092368Y-84347145D01*
X144068107Y-84505224D01*
X144064808Y-84526887D01*
X144040162Y-84627000D01*
X143995809Y-84717186D01*
X143927219Y-84803566D01*
X143829863Y-84892260D01*
X143748319Y-84954553D01*
X143592903Y-85082287D01*
X143462516Y-85224507D01*
X143382307Y-85335129D01*
X143265768Y-85535465D01*
X143178932Y-85744285D01*
X143120370Y-85966982D01*
X143088650Y-86208948D01*
X143082160Y-86466368D01*
X143086139Y-86683253D01*
X142905476Y-86870278D01*
X142729677Y-87076456D01*
X142589336Y-87295239D01*
X142483211Y-87529313D01*
X142410060Y-87781365D01*
X142371433Y-88025378D01*
X142363888Y-88154816D01*
X142365108Y-88298860D01*
X142374197Y-88446420D01*
X142390257Y-88586404D01*
X142412392Y-88707722D01*
X142432435Y-88779770D01*
X142455163Y-88865984D01*
X142453250Y-88929608D01*
X142424987Y-88978779D01*
X142383550Y-89012334D01*
X142344668Y-89046521D01*
X142292850Y-89103613D01*
X142235701Y-89174144D01*
X142180824Y-89248647D01*
X142135824Y-89317653D01*
X142129266Y-89328925D01*
X142055055Y-89491888D01*
X142001177Y-89679840D01*
X141969083Y-89884404D01*
X141960224Y-90097201D01*
X141969281Y-90253114D01*
X141988203Y-90385961D01*
X142016938Y-90522826D01*
X142052372Y-90651661D01*
X142091390Y-90760419D01*
X142111843Y-90804616D01*
X142137759Y-90880462D01*
X142129541Y-90949809D01*
X142090688Y-91016936D01*
X142007625Y-91152383D01*
X141941689Y-91313100D01*
X141896084Y-91488633D01*
X141874017Y-91668529D01*
X141872445Y-91728823D01*
X141879311Y-91843261D01*
X141898129Y-91969837D01*
X141926315Y-92098217D01*
X141961281Y-92218067D01*
X142000442Y-92319053D01*
X142036481Y-92384338D01*
X142056721Y-92432494D01*
X142064117Y-92483817D01*
X142060568Y-92512663D01*
X142046710Y-92541801D01*
X142017728Y-92576986D01*
X141968804Y-92623970D01*
X141895124Y-92688506D01*
X141886796Y-92695644D01*
X141795615Y-92772419D01*
X141693514Y-92856368D01*
X141595625Y-92935130D01*
X141543195Y-92976318D01*
X141458654Y-93043917D01*
X141370483Y-93117825D01*
X141292390Y-93186423D01*
X141260836Y-93215643D01*
X141144758Y-93326098D01*
X140708231Y-93326098D01*
X140708910Y-93255031D01*
X140710111Y-93180053D01*
X140711486Y-93139697D01*
X140712029Y-93134132D01*
X140726540Y-93102028D01*
X140762661Y-93050340D01*
X140821762Y-92977396D01*
X140905216Y-92881527D01*
X141014393Y-92761061D01*
X141049763Y-92722691D01*
X141140247Y-92624344D01*
X141222429Y-92534089D01*
X141292577Y-92456100D01*
X141346961Y-92394548D01*
X141381851Y-92353606D01*
X141393141Y-92338646D01*
X141396327Y-92299525D01*
X141381217Y-92234352D01*
X141370750Y-92203747D01*
X141354990Y-92153162D01*
X141343151Y-92094474D01*
X141334390Y-92020317D01*
X141327859Y-91923322D01*
X141322714Y-91796120D01*
X141322227Y-91780941D01*
X141318908Y-91656558D01*
X141318275Y-91561523D01*
X141320890Y-91486903D01*
X141327319Y-91423766D01*
X141338126Y-91363180D01*
X141352499Y-91301696D01*
X141382035Y-91202784D01*
X141422205Y-91092836D01*
X141464783Y-90994194D01*
X141468662Y-90986207D01*
X141544539Y-90831941D01*
X141479067Y-90667038D01*
X141426996Y-90500070D01*
X141393313Y-90314409D01*
X141378724Y-90121780D01*
X141383934Y-89933906D01*
X141409651Y-89762513D01*
X141421728Y-89715151D01*
X141443277Y-89639656D01*
X141467085Y-89556492D01*
X141474863Y-89529385D01*
X141513474Y-89419389D01*
X141569973Y-89290501D01*
X141638729Y-89154101D01*
X141714108Y-89021573D01*
X141768201Y-88936602D01*
X141806860Y-88879951D01*
X141835229Y-88836507D01*
X141854202Y-88799240D01*
X141864673Y-88761121D01*
X141867536Y-88715119D01*
X141863683Y-88654207D01*
X141854009Y-88571353D01*
X141839406Y-88459530D01*
X141834080Y-88418359D01*
X141824931Y-88319565D01*
X141820836Y-88214915D01*
X141822478Y-88124328D01*
X141823498Y-88110318D01*
X141835171Y-88003275D01*
X141852684Y-87879588D01*
X141874067Y-87750474D01*
X141897350Y-87627152D01*
X141920563Y-87520838D01*
X141939468Y-87449933D01*
X142022165Y-87228505D01*
X142132257Y-87004878D01*
X142262465Y-86792181D01*
X142405512Y-86603540D01*
X142414638Y-86592934D01*
X142456393Y-86543372D01*
X142482658Y-86504181D01*
X142497842Y-86463320D01*
X142506349Y-86408748D01*
X142512588Y-86328422D01*
X142512849Y-86324556D01*
X142538637Y-86104652D01*
X142585408Y-85871626D01*
X142649537Y-85639184D01*
X142727398Y-85421027D01*
X142788160Y-85284095D01*
X142886259Y-85105680D01*
X143001445Y-84933473D01*
X143127267Y-84775689D01*
X143257279Y-84640545D01*
X143362444Y-84552417D01*
X143416031Y-84510332D01*
X143455625Y-84474547D01*
X143472229Y-84453536D01*
X143479059Y-84426030D01*
X143492184Y-84370530D01*
X143509397Y-84296431D01*
X143520316Y-84248925D01*
X143584261Y-84008757D01*
X143663421Y-83787086D01*
X143762685Y-83572684D01*
X143886941Y-83354318D01*
X143958405Y-83242510D01*
X144051276Y-83114247D01*
X144160902Y-82983118D01*
X144279349Y-82857332D01*
X144398685Y-82745100D01*
X144510977Y-82654633D01*
X144556193Y-82623786D01*
X144647444Y-82564470D01*
X144712014Y-82518119D01*
X144756339Y-82478380D01*
X144786855Y-82438903D01*
X144810000Y-82393334D01*
X144823015Y-82360455D01*
X144937735Y-82104502D01*
X145083922Y-81867474D01*
X145263820Y-81645932D01*
X145341515Y-81565062D01*
X145535826Y-81391498D01*
X145734181Y-81254563D01*
X145920567Y-81160224D01*
X146005438Y-81123179D01*
X146060560Y-81095286D01*
X146092077Y-81072224D01*
X146106135Y-81049674D01*
X146108947Y-81027776D01*
X146117514Y-80997579D01*
X146140496Y-80942128D01*
X146173822Y-80869755D01*
X146213415Y-80788791D01*
X146255203Y-80707569D01*
X146295112Y-80634420D01*
X146328918Y-80577906D01*
X146480372Y-80376496D01*
X146659987Y-80193917D01*
X146862517Y-80033380D01*
X147082718Y-79898095D01*
X147315343Y-79791274D01*
X147555147Y-79716129D01*
X147796884Y-79675870D01*
X147803320Y-79675303D01*
X147880972Y-79667812D01*
X147931609Y-79658572D01*
X147966444Y-79642938D01*
X147996694Y-79616262D01*
X148025714Y-79583159D01*
X148063734Y-79540694D01*
X148121860Y-79478581D01*
X148193041Y-79404235D01*
X148270226Y-79325072D01*
X148294091Y-79300895D01*
X148523739Y-79094060D01*
X148768901Y-78922163D01*
X149030830Y-78784562D01*
X149310775Y-78680613D01*
X149609987Y-78609672D01*
X149652669Y-78602469D01*
X149740435Y-78589124D01*
X149809275Y-78581743D01*
X149871780Y-78580352D01*
X149940547Y-78584980D01*
G36*
X159858099Y-96817818D02*
G01*
X159863815Y-96850638D01*
X159868015Y-96910622D01*
X159870834Y-97000595D01*
X159872408Y-97123382D01*
X159872872Y-97273214D01*
X159872872Y-97744472D01*
X159403212Y-97744472D01*
X159273591Y-97743825D01*
X159157675Y-97742006D01*
X159060648Y-97739198D01*
X158987695Y-97735585D01*
X158944001Y-97731350D01*
X158933551Y-97727871D01*
X158950090Y-97713089D01*
X158993114Y-97691308D01*
X159043778Y-97670869D01*
X159216928Y-97590097D01*
X159379468Y-97481059D01*
X159525743Y-97349523D01*
X159650100Y-97201257D01*
X159746884Y-97042028D01*
X159805947Y-96893419D01*
X159824994Y-96843842D01*
X159845115Y-96813018D01*
X159850733Y-96809336D01*
X159858099Y-96817818D01*
X159858099Y-96817818D01*
G37*
X159858099Y-96817818D02*
X159863815Y-96850638D01*
X159868015Y-96910622D01*
X159870834Y-97000595D01*
X159872408Y-97123382D01*
X159872872Y-97273214D01*
X159872872Y-97744472D01*
X159403212Y-97744472D01*
X159273591Y-97743825D01*
X159157675Y-97742006D01*
X159060648Y-97739198D01*
X158987695Y-97735585D01*
X158944001Y-97731350D01*
X158933551Y-97727871D01*
X158950090Y-97713089D01*
X158993114Y-97691308D01*
X159043778Y-97670869D01*
X159216928Y-97590097D01*
X159379468Y-97481059D01*
X159525743Y-97349523D01*
X159650100Y-97201257D01*
X159746884Y-97042028D01*
X159805947Y-96893419D01*
X159824994Y-96843842D01*
X159845115Y-96813018D01*
X159850733Y-96809336D01*
X159858099Y-96817818D01*
G36*
X139929311Y-96821690D02*
G01*
X139951092Y-96864714D01*
X139971531Y-96915378D01*
X140052303Y-97088528D01*
X140161341Y-97251068D01*
X140292877Y-97397343D01*
X140441143Y-97521700D01*
X140600372Y-97618484D01*
X140748982Y-97677547D01*
X140798559Y-97696594D01*
X140829383Y-97716715D01*
X140833065Y-97722333D01*
X140824583Y-97729699D01*
X140791762Y-97735415D01*
X140731778Y-97739615D01*
X140641806Y-97742434D01*
X140519019Y-97744008D01*
X140369186Y-97744472D01*
X139897929Y-97744472D01*
X139897929Y-97274812D01*
X139898576Y-97145191D01*
X139900394Y-97029275D01*
X139903202Y-96932248D01*
X139906815Y-96859295D01*
X139911050Y-96815601D01*
X139914530Y-96805151D01*
X139929311Y-96821690D01*
X139929311Y-96821690D01*
G37*
X139929311Y-96821690D02*
X139951092Y-96864714D01*
X139971531Y-96915378D01*
X140052303Y-97088528D01*
X140161341Y-97251068D01*
X140292877Y-97397343D01*
X140441143Y-97521700D01*
X140600372Y-97618484D01*
X140748982Y-97677547D01*
X140798559Y-97696594D01*
X140829383Y-97716715D01*
X140833065Y-97722333D01*
X140824583Y-97729699D01*
X140791762Y-97735415D01*
X140731778Y-97739615D01*
X140641806Y-97742434D01*
X140519019Y-97744008D01*
X140369186Y-97744472D01*
X139897929Y-97744472D01*
X139897929Y-97274812D01*
X139898576Y-97145191D01*
X139900394Y-97029275D01*
X139903202Y-96932248D01*
X139906815Y-96859295D01*
X139911050Y-96815601D01*
X139914530Y-96805151D01*
X139929311Y-96821690D01*
D10*
X140919295Y-75830180D02*
X140919295Y-76639704D01*
X140966914Y-76734942D01*
X141014533Y-76782561D01*
X141109771Y-76830180D01*
X141300247Y-76830180D01*
X141395485Y-76782561D01*
X141443104Y-76734942D01*
X141490723Y-76639704D01*
X141490723Y-75830180D01*
X142490723Y-76830180D02*
X141919295Y-76830180D01*
X142205009Y-76830180D02*
X142205009Y-75830180D01*
X142109771Y-75973038D01*
X142014533Y-76068276D01*
X141919295Y-76115895D01*
M02*
